<svg width="120" height="30" viewBox="0 0 120 30" fill="none" xmlns="http://www.w3.org/2000/svg">
<g clip-path="url(#clip0_661_1082)">
<path d="M59.8856 9.19069C59.8856 9.63022 59.5281 9.98468 59.0886 9.98468H57.8621C57.4226 9.98468 57.0671 9.6292 57.0671 9.19069V8.24276C57.0671 7.80323 57.4236 7.44775 57.8621 7.44775H59.0886C59.5281 7.44775 59.8856 7.80424 59.8856 8.24276V9.19069Z" fill="#A4A9AD"/>
<path d="M53.7828 8.27499C53.7828 7.83546 53.4729 7.47998 53.0334 7.47998H51.7614C51.3188 7.47998 50.9644 7.83647 50.9644 8.27499V21.0072C50.9644 21.4468 51.3188 21.8022 51.7614 21.8022H52.9878C53.4273 21.8022 53.7828 21.4468 53.7828 21.0072V8.27499Z" fill="#A4A9AD"/>
<path d="M77.6693 15.1476C77.7372 14.466 77.9843 13.9485 78.4066 13.5961C78.835 13.2396 79.3393 13.0654 79.9176 13.0654C80.2842 13.0654 80.5941 13.1252 80.8534 13.2487C81.1066 13.3703 81.3193 13.5343 81.4884 13.7389C81.6555 13.9435 81.7821 14.1673 81.8661 14.4154C81.9471 14.6575 81.9877 14.9025 81.9877 15.1476H77.6693ZM84.798 15.893C84.7504 14.3445 84.316 13.1404 83.4967 12.2866C82.6267 11.3752 81.4529 10.9204 79.9814 10.9204C79.0629 10.9204 78.2699 11.0794 77.6005 11.4035C76.932 11.7266 76.3801 12.155 75.9456 12.6806C75.5142 13.2062 75.1992 13.8088 74.9947 14.4904C74.7952 15.1719 74.6929 15.8707 74.6929 16.5837C74.6929 17.5134 74.8184 18.3216 75.0747 19.0011C75.3329 19.6827 75.6965 20.2458 76.1684 20.6904C76.6434 21.137 77.2217 21.4661 77.9043 21.6818C78.5848 21.8976 79.3454 22.0049 80.186 22.0049C80.7622 22.0049 81.3547 21.936 81.9553 21.7922C82.1527 21.7467 82.336 21.692 82.5163 21.6302C82.5953 21.6089 82.7077 21.5704 82.8667 21.5006C83.7103 21.1532 84.2917 20.6732 84.2917 20.6732C84.6147 20.4757 84.7109 20.0503 84.5155 19.7303L83.9767 18.8705C83.7772 18.5504 83.3518 18.4897 83.0308 18.6872C83.0308 18.6872 82.013 19.3434 81.4367 19.5196C81.1218 19.6169 80.6974 19.7161 80.264 19.7161C78.6041 19.7161 77.7048 18.8887 77.5701 17.2288L84.0314 17.2319C84.4598 17.2319 84.7879 16.8926 84.8041 16.4612V15.9872C84.8041 15.9568 84.8021 15.9274 84.799 15.892L84.798 15.893Z" fill="#A4A9AD"/>
<path d="M72.5154 13.7429C72.4506 13.1828 72.2369 12.6734 71.8895 12.2147C71.5503 11.7954 71.1492 11.4743 70.6793 11.2536C70.2134 11.0297 69.6321 10.9194 68.9283 10.9194C68.1981 10.9194 67.5681 11.0784 67.0344 11.3964C66.5007 11.7113 66.0916 12.08 65.808 12.4982V12.2531V11.847C65.808 11.4217 65.4606 11.0763 65.0353 11.0763H63.8433C63.4149 11.0763 63.0706 11.4217 63.0706 11.847V21.0417C63.0706 21.4792 63.423 21.8307 63.8595 21.8307H65.0768C65.5113 21.8307 65.8667 21.4782 65.8667 21.0417C65.8667 21.0417 65.8688 16.1542 65.8769 15.8423C65.8819 15.5304 65.9194 15.2549 65.9873 15.0119C66.0308 14.8478 66.0956 14.6726 66.1898 14.4812C66.284 14.2928 66.4187 14.1156 66.5969 13.9454C66.7721 13.7783 66.9868 13.6365 67.2461 13.5201C67.5023 13.4036 67.8122 13.3499 68.1788 13.3499C68.5282 13.3499 68.83 13.4016 69.0812 13.5089C69.3293 13.6163 69.5157 13.8047 69.6392 14.0771C69.7597 14.3495 69.8195 14.7809 69.8195 15.3734V21.0407C69.8195 21.4782 70.1719 21.8296 70.6084 21.8296H71.8257C72.2602 21.8296 72.6147 21.4772 72.6147 21.0407V20.6913V15.3299C72.6147 14.8285 72.5792 14.3009 72.5124 13.7429H72.5154Z" fill="#A4A9AD"/>
<path d="M11.4309 9.36185C11.3367 9.06613 11.2881 8.81396 11.2881 8.61344C11.2881 8.26202 11.3853 8.02605 11.6709 7.83261C11.8967 7.67564 12.3575 7.70298 12.8325 7.69184C13.6458 7.6726 13.9739 7.64525 14.2493 8.37038C14.2493 8.37038 16.3883 17.0213 16.448 17.3312C16.5108 17.64 16.5594 17.8993 16.5989 18.0988C16.6425 17.8699 16.688 17.6188 16.7417 17.3524C16.7964 17.081 18.8573 11.3144 18.8573 11.3144C18.9657 10.88 19.2371 10.6683 19.549 10.5367C19.6351 10.4982 19.7374 10.4526 19.862 10.4526H20.975C21.1694 10.4526 21.3578 10.4425 21.4935 10.5174C21.8176 10.6633 22.0677 10.9215 22.1751 11.3529C22.1751 11.3529 24.3737 17.1266 24.4325 17.4C24.4943 17.6775 24.5348 17.9044 24.5641 18.0786C24.5915 17.9175 24.629 17.7099 24.6857 17.4507C24.7373 17.1681 26.9562 8.36937 26.9562 8.36937C27.2601 7.65336 27.5335 7.73336 28.3731 7.73336C28.847 7.73336 29.1083 7.68779 29.3777 7.84679C29.6967 8.03516 29.7717 8.30759 29.7717 8.63167C29.7717 8.74206 29.7615 8.86055 29.7413 8.99727C29.72 9.13196 29.6825 9.27476 29.6279 9.42059L26.2848 20.8525C26.1744 21.2049 25.9668 21.4156 25.6761 21.5371C25.5688 21.5796 25.4523 21.6039 25.348 21.6039C25.029 21.6039 23.8552 21.6059 23.8552 21.6059C23.6132 21.6059 23.5028 21.5847 23.3489 21.5199C23.0207 21.3447 22.8526 21.1057 22.7584 20.7684C22.7584 20.7684 20.5658 14.1572 20.5496 14.0357C20.5354 14.143 18.2811 20.8302 18.2811 20.8302C18.1727 21.2069 17.9742 21.3902 17.6613 21.528C17.561 21.5685 17.4456 21.5827 17.3757 21.5827C17.0577 21.5827 15.7745 21.5847 15.7745 21.5847C15.6257 21.5847 15.4565 21.5249 15.3705 21.4824C15.0768 21.3376 14.9016 21.0884 14.7942 20.7522L11.4289 9.36185H11.4309Z" fill="#A4A9AD"/>
<path d="M34.9628 9.19069C34.9628 9.63022 34.6073 9.98468 34.1647 9.98468H32.9393C32.4998 9.98468 32.1443 9.6292 32.1443 9.19069V8.24276C32.1443 7.80323 32.4998 7.44775 32.9393 7.44775H34.1647C34.6073 7.44775 34.9628 7.80424 34.9628 8.24276V9.19069Z" fill="#A4A9AD"/>
<path d="M47.6434 13.7429C47.5755 13.1828 47.3659 12.6734 47.0155 12.2147C46.6792 11.7954 46.2751 11.4743 45.8093 11.2536C45.3434 11.0297 44.7581 10.9194 44.0552 10.9194C43.325 10.9194 42.6951 11.0784 42.1614 11.3964C41.6277 11.7113 41.2185 12.08 40.9349 12.4982V12.2531V11.847C40.9349 11.4217 40.5906 11.0763 40.1622 11.0763H38.9712C38.5449 11.0763 38.1985 11.4217 38.1985 11.847V21.0417C38.1985 21.4792 38.554 21.8307 38.9874 21.8307H40.2048C40.6423 21.8307 40.9937 21.4782 40.9937 21.0417V16.6322C40.9937 16.4165 40.9957 16.1542 41.0048 15.8423C41.0129 15.5304 41.0504 15.2549 41.1152 15.0119C41.1577 14.8478 41.2226 14.6726 41.3167 14.4812C41.4109 14.2928 41.5487 14.1156 41.7229 13.9454C41.8981 13.7783 42.1128 13.6365 42.372 13.5201C42.6303 13.4036 42.9402 13.3499 43.3048 13.3499C43.6572 13.3499 43.956 13.4016 44.2071 13.5089C44.4542 13.6163 44.6426 13.8047 44.7651 14.0771C44.8867 14.3495 44.9454 14.7809 44.9454 15.3734V21.0407C44.9454 21.4782 45.3019 21.8296 45.7374 21.8296H46.9527C47.3892 21.8296 47.7416 21.4772 47.7416 21.0407V15.3299C47.7416 14.8285 47.7061 14.3009 47.6413 13.7429H47.6434Z" fill="#A4A9AD"/>
<path d="M34.1662 11.1201H32.9407C32.5012 11.1201 32.1457 11.4776 32.1457 11.9171L32.1184 20.9994C32.1184 21.443 32.4789 21.8015 32.9205 21.8015H34.1601C34.6026 21.8015 34.9632 21.443 34.9632 20.9994V11.9171C34.9632 11.4776 34.6067 11.1201 34.1651 11.1201H34.1662Z" fill="#A4A9AD"/>
<path d="M59.1027 11.1201H57.8763C57.4367 11.1201 57.0782 11.4776 57.0782 11.9171L57.0549 20.9994C57.0549 21.443 57.4155 21.8015 57.858 21.8015H59.0976C59.5392 21.8015 59.8997 21.443 59.8997 20.9994V11.9171C59.8997 11.4776 59.5422 11.1201 59.1027 11.1201Z" fill="#A4A9AD"/>
<path fill-rule="evenodd" clip-rule="evenodd" d="M105.387 29.3331H14.6129C6.57676 29.3331 0 22.7361 0 14.6696C0 6.60005 6.57676 0 14.6129 0H105.387C113.423 0 120 6.60106 120 14.6696C120 22.7361 113.423 29.3331 105.387 29.3331ZM90.1828 14.6676C90.1828 10.0738 92.1526 6.01468 95.3539 3.21546C95.5372 3.05342 95.4065 2.83062 95.2779 2.83062H14.6129C8.10094 2.83062 2.82049 8.13031 2.82049 14.6686C2.82049 21.2079 8.10094 26.5065 14.6129 26.5065H95.2242C95.3559 26.5065 95.5503 26.2989 95.3002 26.0832C92.1617 23.2901 90.1838 19.2107 90.1838 14.6686L90.1828 14.6676ZM117.183 14.6676C117.183 21.2069 111.902 26.5055 105.388 26.5055C98.8731 26.5055 93.5927 21.2058 93.5927 14.6676C93.5927 8.12929 98.8731 2.82961 105.388 2.82961C111.902 2.82961 117.183 8.12929 117.183 14.6676Z" fill="#A4A9AD"/>
</g>
<defs>
<clipPath id="clip0_661_1082">
<rect width="120" height="30" fill="white"/>
</clipPath>
</defs>
</svg>
