<svg width="100" height="100" viewBox="0 0 100 100" fill="none" xmlns="http://www.w3.org/2000/svg">
<path d="M57.6601 35.3701C53.4901 38.0101 49.8501 41.4101 46.9301 45.3701C46.0801 46.5301 45.2901 47.7301 44.5601 48.9801L45.6601 53.0001L48.0401 51.1901L50.5401 49.2901H55.2501L58.4401 37.0301L57.6601 35.3701Z" fill="#A4A9AD"/>
<path d="M54.27 28.08C54.18 27.9 54.04 27.78 53.91 27.75C53.74 27.71 53.55 27.8 53.42 27.89L44.8 34.11L41.23 36.69L44 46.9C44.78 45.66 45.63 44.46 46.54 43.31C49.46 39.63 53 36.45 56.99 33.94L54.27 28.08Z" fill="#A4A9AD"/>
<path d="M51.0599 50.8501L48.3699 52.9001L46.6899 54.1801L47.3699 57.3001L49.2599 57.6201L52.3599 58.1401L54.1399 50.8501H51.0599Z" fill="#A4A9AD"/>
<path d="M52.81 59.8001L49.18 59.1901L47.29 58.8701L45.97 63.5401C46.86 63.9601 47.76 64.3401 48.67 64.6901C50.71 65.4601 52.81 66.0401 54.96 66.4301L52.81 59.8001Z" fill="#A4A9AD"/>
<path d="M56.16 70.1299C56.04 70.1699 55.92 70.1999 55.8 70.2399C55.92 70.1999 56.04 70.1699 56.16 70.1299Z" fill="#A4A9AD"/>
<path d="M55.5001 68.1001C53.1101 67.7201 50.7701 67.1201 48.5101 66.3001C47.5001 65.9301 46.5101 65.5201 45.5301 65.0601L44.6301 68.2301L44.0701 70.2001C44.2701 70.2601 44.4601 70.3101 44.6601 70.3601C44.7001 70.3701 44.7401 70.3801 44.7801 70.3901C44.9501 70.4301 45.1201 70.4701 45.3001 70.5101C45.3201 70.5101 45.3401 70.5201 45.3501 70.5201C45.3801 70.5301 45.4101 70.5301 45.4401 70.5401C45.4901 70.5501 45.5401 70.5601 45.5801 70.5701C45.6401 70.5801 45.7001 70.6001 45.7701 70.6101C45.8101 70.6201 45.8501 70.6201 45.8901 70.6301C45.9601 70.6401 46.0401 70.6601 46.1101 70.6701C46.1201 70.6701 46.1401 70.6801 46.1501 70.6801C46.1701 70.6801 46.1901 70.6901 46.2101 70.6901C46.2601 70.7001 46.3101 70.7101 46.3501 70.7101C46.4501 70.7301 46.5501 70.7401 46.6501 70.7601C46.6701 70.7601 46.6901 70.7701 46.7001 70.7701C46.7201 70.7701 46.7401 70.7801 46.7601 70.7801C46.7901 70.7801 46.8201 70.7901 46.8501 70.7901C46.9501 70.8001 47.0501 70.8201 47.1501 70.8301C47.1601 70.8301 47.1801 70.8301 47.1901 70.8401C47.4801 70.8801 47.7701 70.9101 48.0601 70.9401C48.6901 71.0001 49.3301 71.0301 49.9801 71.0301C50.8201 71.0301 51.6401 70.9801 52.4501 70.8901C52.4601 70.8901 52.4701 70.8901 52.4901 70.8901C52.6701 70.8701 52.8401 70.8501 53.0201 70.8201C53.0401 70.8201 53.0501 70.8201 53.0701 70.8101C53.0801 70.8101 53.1001 70.8101 53.1101 70.8001C53.2701 70.7801 53.4301 70.7501 53.5901 70.7201C53.6601 70.7101 53.7401 70.6901 53.8101 70.6801C53.9001 70.6601 53.9801 70.6501 54.0701 70.6301C54.2501 70.6001 54.4301 70.5601 54.6101 70.5201C54.6301 70.5201 54.6601 70.5101 54.6801 70.5101C55.0501 70.4301 55.4201 70.3301 55.7801 70.2301C55.9001 70.2001 56.0201 70.1601 56.1401 70.1201L55.5001 68.1001Z" fill="#A4A9AD"/>
<path d="M56.53 29.23C56.55 29.24 56.56 29.24 56.58 29.25C56.56 29.24 56.54 29.24 56.53 29.23Z" fill="#A4A9AD"/>
<path d="M46.24 28.5502C46.4 28.5202 46.56 28.5002 46.71 28.4702C46.55 28.5002 46.4 28.5202 46.24 28.5502Z" fill="#A4A9AD"/>
<path d="M45.24 28.7502C45.32 28.7302 45.39 28.7202 45.47 28.7002C45.4 28.7202 45.32 28.7302 45.24 28.7502Z" fill="#A4A9AD"/>
<path d="M50.28 28.22C50.19 28.22 50.1 28.21 50 28.21C48.89 28.21 47.81 28.3 46.75 28.46C47.81 28.3 48.9 28.21 50.01 28.21C50.09 28.22 50.18 28.22 50.28 28.22Z" fill="#A4A9AD"/>
<path d="M44.28 28.99C44.29 28.99 44.31 28.98 44.32 28.98C44.3 28.99 44.29 28.99 44.28 28.99Z" fill="#A4A9AD"/>
<path d="M44.76 28.8703C44.8 28.8603 44.85 28.8503 44.89 28.8403C44.84 28.8503 44.8 28.8603 44.76 28.8703Z" fill="#A4A9AD"/>
<path d="M45.74 28.6501C45.85 28.6301 45.97 28.6101 46.08 28.5801C45.97 28.6001 45.85 28.6201 45.74 28.6501Z" fill="#A4A9AD"/>
<path d="M71.3601 51.1201C71.3501 51.2201 71.3501 51.3101 71.3401 51.4101C71.3401 51.3101 71.3501 51.2201 71.3601 51.1201Z" fill="#A4A9AD"/>
<path d="M64.3501 33.75C64.3901 33.78 64.4201 33.82 64.4601 33.85C64.4201 33.81 64.3901 33.78 64.3501 33.75Z" fill="#A4A9AD"/>
<path d="M71.3801 50.6401C71.3701 50.7501 71.3701 50.8701 71.3601 50.9801C71.3701 50.8701 71.3801 50.7501 71.3801 50.6401Z" fill="#A4A9AD"/>
<path d="M64.84 34.1999C64.82 34.1799 64.79 34.1599 64.77 34.1299C64.79 34.1499 64.81 34.1799 64.84 34.1999Z" fill="#A4A9AD"/>
<path d="M71.27 52.04C71.27 52.08 71.26 52.12 71.26 52.16C71.26 52.11 71.27 52.08 71.27 52.04Z" fill="#A4A9AD"/>
<path d="M56.97 29.3799C57.02 29.3999 57.07 29.4099 57.13 29.4299C57.07 29.4199 57.02 29.3999 56.97 29.3799Z" fill="#A4A9AD"/>
<path d="M71.3999 50.1104C71.3999 50.2604 71.3899 50.4004 71.3899 50.5504C71.3899 50.4004 71.3999 50.2504 71.3999 50.1104Z" fill="#A4A9AD"/>
<path d="M71.32 51.5903C71.31 51.6703 71.3 51.7503 71.3 51.8203C71.3 51.7403 71.31 51.6603 71.32 51.5903Z" fill="#A4A9AD"/>
<path d="M63.9199 33.3701C63.9299 33.3801 63.9299 33.3801 63.9399 33.3901C63.9399 33.3801 63.9299 33.3801 63.9199 33.3701Z" fill="#A4A9AD"/>
<path d="M29.51 55.83C29.51 55.82 29.5 55.8 29.5 55.79C29.5 55.8 29.5 55.82 29.51 55.83Z" fill="#A4A9AD"/>
<path d="M46.72 70.7802C46.56 70.7502 46.39 70.7302 46.23 70.7002C46.39 70.7302 46.55 70.7602 46.72 70.7802Z" fill="#A4A9AD"/>
<path d="M45.5801 70.5803C45.5101 70.5603 45.4301 70.5503 45.3601 70.5303C45.4301 70.5403 45.5101 70.5603 45.5801 70.5803Z" fill="#A4A9AD"/>
<path d="M53.04 70.8203C52.87 70.8403 52.69 70.8703 52.51 70.8903C52.69 70.8703 52.86 70.8403 53.04 70.8203Z" fill="#A4A9AD"/>
<path d="M54.6899 70.52C54.6699 70.53 54.6399 70.53 54.6199 70.53C54.6399 70.53 54.6699 70.52 54.6899 70.52Z" fill="#A4A9AD"/>
<path d="M53.6099 70.73C53.4499 70.76 53.2899 70.78 53.1299 70.81C53.2799 70.78 53.4399 70.76 53.6099 70.73Z" fill="#A4A9AD"/>
<path d="M54.0801 70.6401C53.9901 70.6601 53.9101 70.6701 53.8201 70.6901C53.9101 70.6801 54.0001 70.6601 54.0801 70.6401Z" fill="#A4A9AD"/>
<path d="M46.16 70.6901C46.03 70.6701 45.91 70.6401 45.78 70.6201C45.91 70.6401 46.03 70.6701 46.16 70.6901Z" fill="#A4A9AD"/>
<path d="M29.32 55.1701C29.31 55.1401 29.3 55.1101 29.29 55.0801C29.3 55.1101 29.31 55.1401 29.32 55.1701Z" fill="#A4A9AD"/>
<path d="M29.1299 54.4102C29.1299 54.4202 29.1299 54.4302 29.1399 54.4402C29.1299 54.4202 29.1299 54.4102 29.1299 54.4102Z" fill="#A4A9AD"/>
<path d="M64.2899 65.5503C64.2599 65.4803 64.2299 65.4103 64.2099 65.3403C62.2099 66.9103 59.8999 68.1103 57.3799 68.8303L57.6399 69.6303C60.1099 68.6803 62.3599 67.2903 64.2899 65.5503Z" fill="#A4A9AD"/>
<path d="M50.2799 28.2202C50.1899 28.2202 50.0999 28.2202 50.0099 28.2202C48.8999 28.2202 47.8199 28.3002 46.7499 28.4702C46.7399 28.4702 46.7299 28.4702 46.7199 28.4802C46.5599 28.5002 46.3999 28.5302 46.2499 28.5602C46.1999 28.5702 46.1499 28.5802 46.0899 28.5902C45.9799 28.6102 45.8599 28.6302 45.7499 28.6602C45.6599 28.6802 45.5699 28.7002 45.4899 28.7202C45.4099 28.7402 45.3399 28.7502 45.2599 28.7702C45.1399 28.8002 45.0199 28.8302 44.8999 28.8502C44.8599 28.8602 44.8099 28.8702 44.7699 28.8802C44.6199 28.9202 44.4799 28.9602 44.3299 29.0002C44.3199 29.0002 44.2999 29.0102 44.2899 29.0102C40.8199 29.9702 37.6999 31.7902 35.1799 34.2202C35.6299 35.0802 36.1499 35.9002 36.7299 36.6702C37.8099 38.0902 39.1199 39.3402 40.5999 40.3602L39.4299 36.0802L47.6699 30.1302L50.2799 28.2202Z" fill="#A4A9AD"/>
<path d="M64.77 34.13C64.67 34.03 64.57 33.94 64.46 33.84C64.42 33.81 64.39 33.77 64.35 33.74C64.22 33.62 64.08 33.5 63.94 33.38C63.93 33.37 63.93 33.37 63.92 33.36C61.91 31.64 59.6 30.3 57.12 29.42C57.07 29.4 57.02 29.38 56.96 29.37C56.83 29.32 56.7 29.28 56.57 29.24C56.55 29.23 56.54 29.23 56.52 29.23L57.03 30.32L60.08 36.86L59.13 40.51C61.48 38.96 63.43 36.83 64.75 34.34C64.78 34.29 64.81 34.24 64.83 34.19C64.81 34.18 64.79 34.15 64.77 34.13Z" fill="#A4A9AD"/>
<path d="M45.58 56.4199C41.99 57.4999 38.97 59.8299 37.02 62.9399C36.51 63.7599 36.06 64.6299 35.71 65.5499C37.7 67.3399 40.03 68.7599 42.59 69.7099L43.19 67.5999L45.92 57.9599L45.58 56.4199Z" fill="#A4A9AD"/>
<path d="M43.4499 50.8403C39.6399 51.2803 35.8899 52.1003 32.2599 53.2803C31.2099 53.6203 30.1599 54.0003 29.1299 54.4103C29.1299 54.4203 29.1299 54.4303 29.1399 54.4403C29.1899 54.6603 29.2399 54.8803 29.2999 55.0903C29.3099 55.1203 29.3199 55.1503 29.3299 55.1803C29.3899 55.3903 29.4399 55.5903 29.5099 55.8003C29.5099 55.8103 29.5199 55.8303 29.5199 55.8403C30.4999 59.0803 32.2299 61.9903 34.5099 64.3803C34.9199 63.4303 35.4199 62.5203 35.9899 61.6803C38.0399 58.6203 41.0599 56.2903 44.6299 55.0903L43.4499 50.8403Z" fill="#A4A9AD"/>
<path d="M41.1901 42.5501C39.0801 41.3801 37.2101 39.8001 35.7201 37.9201C35.0901 37.1301 34.5201 36.2801 34.0201 35.3901C31.8401 37.8401 30.2101 40.7901 29.3301 44.0401C29.3101 44.1001 29.3001 44.1601 29.2801 44.2201C29.2601 44.2901 29.2401 44.3601 29.2301 44.4301C29.2001 44.5301 29.1801 44.6401 29.1501 44.7401C29.1401 44.7901 29.1301 44.8301 29.1201 44.8801C29.0901 45.0101 29.0601 45.1401 29.0301 45.2801C29.0201 45.3101 29.0201 45.3301 29.0101 45.3601C28.9801 45.5101 28.9501 45.6701 28.9201 45.8301C28.9201 45.8401 28.9201 45.8501 28.9201 45.8501C28.7001 47.0801 28.5901 48.3401 28.5901 49.6301C28.5901 50.7201 28.6701 51.8001 28.8301 52.8401C29.8901 52.4301 30.9601 52.0501 32.0301 51.7101C35.6001 50.5601 39.2801 49.7601 43.0301 49.3101L41.1901 42.5501Z" fill="#A4A9AD"/>
<path d="M54.4 56.4102L53.95 58.2502L57.38 68.8302C59.89 68.1102 62.1999 66.9202 64.2099 65.3402C62.4699 61.0602 58.82 57.7402 54.4 56.4102Z" fill="#A4A9AD"/>
<path d="M55.77 50.75L54.76 54.88C57.24 55.61 59.55 56.91 61.46 58.68C63.16 60.25 64.52 62.16 65.45 64.27C65.46 64.3 65.48 64.33 65.49 64.37C65.85 63.99 66.2 63.59 66.54 63.18C68.6 60.66 70.11 57.67 70.86 54.4C66.04 52.5 60.96 51.28 55.77 50.75Z" fill="#A4A9AD"/>
<path d="M29.5001 55.7899C29.4401 55.5899 29.3801 55.3799 29.3301 55.1699C29.3801 55.3799 29.4401 55.5899 29.5001 55.7899Z" fill="#A4A9AD"/>
<path d="M29.2999 55.0802C29.2399 54.8602 29.1899 54.6502 29.1399 54.4302C29.1899 54.6502 29.2399 54.8702 29.2999 55.0802Z" fill="#A4A9AD"/>
<path d="M46.77 70.7903C46.75 70.7903 46.73 70.7803 46.71 70.7803C46.73 70.7903 46.75 70.7903 46.77 70.7903Z" fill="#A4A9AD"/>
<path d="M53.12 70.8101C53.09 70.8101 53.06 70.8201 53.04 70.8201C53.06 70.8201 53.09 70.8101 53.12 70.8101Z" fill="#A4A9AD"/>
<path d="M53.8301 70.6899C53.7601 70.6999 53.6801 70.7199 53.6101 70.7299C53.6801 70.7199 53.7501 70.6999 53.8301 70.6899Z" fill="#A4A9AD"/>
<path d="M54.6201 70.5303C54.4401 70.5703 54.2601 70.6103 54.0801 70.6403C54.2601 70.6103 54.4401 70.5703 54.6201 70.5303Z" fill="#A4A9AD"/>
<path d="M46.2199 70.6999C46.1999 70.6999 46.1799 70.6899 46.1599 70.6899C46.1799 70.6899 46.1999 70.6999 46.2199 70.6999Z" fill="#A4A9AD"/>
<path d="M45.7801 70.6201C45.7101 70.6101 45.6401 70.5901 45.5801 70.5801C45.6501 70.5901 45.7101 70.6001 45.7801 70.6201Z" fill="#A4A9AD"/>
<path d="M46.71 28.47C46.72 28.47 46.73 28.47 46.74 28.46C46.73 28.47 46.72 28.47 46.71 28.47Z" fill="#A4A9AD"/>
<path d="M46.0801 28.5803C46.1301 28.5703 46.1801 28.5603 46.2401 28.5503C46.1901 28.5603 46.1301 28.5703 46.0801 28.5803Z" fill="#A4A9AD"/>
<path d="M56.5801 29.25C56.7101 29.29 56.8401 29.34 56.9701 29.38C56.8401 29.34 56.7101 29.29 56.5801 29.25Z" fill="#A4A9AD"/>
<path d="M64.46 33.8501C64.56 33.9401 64.66 34.0401 64.77 34.1401C64.67 34.0401 64.56 33.9401 64.46 33.8501Z" fill="#A4A9AD"/>
<path d="M63.95 33.3901C64.09 33.5101 64.22 33.6301 64.36 33.7501C64.22 33.6301 64.08 33.5101 63.95 33.3901Z" fill="#A4A9AD"/>
<path d="M45.47 28.7001C45.56 28.6801 45.65 28.6601 45.73 28.6401C45.65 28.6601 45.56 28.6801 45.47 28.7001Z" fill="#A4A9AD"/>
<path d="M44.8899 28.8403C45.0099 28.8103 45.1299 28.7803 45.2499 28.7603C45.1199 28.7803 45.0099 28.8103 44.8899 28.8403Z" fill="#A4A9AD"/>
<path d="M44.3201 28.9804C44.4701 28.9404 44.6101 28.9004 44.7601 28.8604C44.6101 28.9104 44.4601 28.9404 44.3201 28.9804Z" fill="#A4A9AD"/>
<path d="M71.3 51.8203C71.29 51.8903 71.29 51.9603 71.28 52.0403C71.28 51.9603 71.29 51.8903 71.3 51.8203Z" fill="#A4A9AD"/>
<path d="M71.3301 51.4102C71.3301 51.4702 71.3201 51.5302 71.3101 51.5902C71.3201 51.5302 71.3301 51.4702 71.3301 51.4102Z" fill="#A4A9AD"/>
<path d="M71.3701 50.98C71.3701 51.03 71.3601 51.07 71.3601 51.12C71.3601 51.08 71.3601 51.03 71.3701 50.98Z" fill="#A4A9AD"/>
<path fill-rule="evenodd" clip-rule="evenodd" d="M34.3501 70.85L34.1701 70.71L33.8101 71.18L33.9901 71.32C34.1901 71.47 34.3501 71.45 34.4601 71.31C34.5601 71.16 34.5401 71 34.3501 70.85Z" fill="#A4A9AD"/>
<path fill-rule="evenodd" clip-rule="evenodd" d="M31.2899 31.0504L32.1599 30.2304L30.8599 28.8604L30.1299 29.5604L31.1799 30.8804C31.1899 30.9204 31.2199 30.9504 31.2899 31.0504Z" fill="#A4A9AD"/>
<path fill-rule="evenodd" clip-rule="evenodd" d="M42.08 22.71L42.02 23.83L42.72 23.64L42.08 22.71Z" fill="#A4A9AD"/>
<path fill-rule="evenodd" clip-rule="evenodd" d="M33.72 71.9002L33.43 71.6802L33.02 72.2202L33.31 72.4402C33.49 72.5802 33.67 72.6002 33.82 72.4002C33.97 72.2002 33.89 72.0402 33.72 71.9002Z" fill="#A4A9AD"/>
<path fill-rule="evenodd" clip-rule="evenodd" d="M67.64 28.05C67.75 27.91 67.74 27.75 67.55 27.6L67.37 27.46L67 27.91L67.18 28.05C67.37 28.2 67.52 28.19 67.64 28.05Z" fill="#A4A9AD"/>
<path fill-rule="evenodd" clip-rule="evenodd" d="M52.6299 75.8299L52.1799 75.8699L52.3299 77.7599L52.7799 77.7199C53.3599 77.6699 53.7399 77.2599 53.6899 76.6999C53.6499 76.1299 53.2099 75.7799 52.6299 75.8299Z" fill="#A4A9AD"/>
<path fill-rule="evenodd" clip-rule="evenodd" d="M66.9699 29.1299C67.1299 28.9399 67.0599 28.7699 66.8899 28.6299L66.5999 28.3999L66.1699 28.9299L66.4499 29.1599C66.6299 29.2899 66.8099 29.3199 66.9699 29.1299Z" fill="#A4A9AD"/>
<path fill-rule="evenodd" clip-rule="evenodd" d="M63.33 25L62.51 25.76L63.14 26.1L63.33 25Z" fill="#A4A9AD"/>
<path fill-rule="evenodd" clip-rule="evenodd" d="M46.4399 22.2704L46.6599 22.2404L46.5799 21.6104L46.3599 21.6404C46.1099 21.6704 45.9899 21.7804 46.0199 22.0004C46.0499 22.2304 46.1899 22.3004 46.4399 22.2704Z" fill="#A4A9AD"/>
<path fill-rule="evenodd" clip-rule="evenodd" d="M63.2001 73.7901L62.3 73.0801L62.5401 74.1401L63.2001 73.7901Z" fill="#A4A9AD"/>
<path fill-rule="evenodd" clip-rule="evenodd" d="M71.4999 33.3301L70.9399 33.7401L71.1699 34.0501C71.3299 34.2701 71.4999 34.3401 71.7099 34.1801C71.9099 34.0301 71.8899 33.8501 71.7299 33.6301L71.4999 33.3301Z" fill="#A4A9AD"/>
<path fill-rule="evenodd" clip-rule="evenodd" d="M50 17.8701C32.46 17.8701 18.24 32.0901 18.24 49.6301C18.24 67.1701 32.46 81.3801 50 81.3801C67.54 81.3801 81.76 67.1601 81.76 49.6201C81.76 32.0801 67.54 17.8701 50 17.8701ZM69.35 29.0701L69.77 28.6601H69.8L71.52 30.4501V30.4801L71.1 30.8901H71.07L70.43 30.2201L68.63 31.9501H68.6L68.19 31.5301V31.5001L69.99 29.7701L69.35 29.1001V29.0701ZM67.26 26.5801H67.29L67.94 27.1001C68.4 27.4701 68.56 28.0101 68.22 28.4301C68.05 28.6401 67.82 28.7101 67.62 28.6701C67.76 28.9301 67.72 29.3001 67.51 29.5601C67.11 30.0501 66.55 30.0301 66.09 29.6601L65.3 29.0201V28.9901L67.26 26.5801ZM63.44 24.1401L63.99 24.4401L64 24.4701L63.56 27.7701L63.53 27.7801L62.92 27.4501L62.91 27.4201L63.01 26.7601L62.02 26.2201L61.52 26.6701L61.49 26.6801L60.88 26.3501L60.87 26.3201L63.41 24.1601L63.44 24.1401ZM59.82 22.5301L59.85 22.5201L61.77 23.3101L61.78 23.3401L61.56 23.8801L61.53 23.8901L60.17 23.3301L59.22 25.6401L59.19 25.6501L58.65 25.4301L58.64 25.4001L59.82 22.5301ZM55.21 21.2701L55.24 21.2501L55.81 21.3801L55.83 21.4101L55.37 23.4101L57.37 21.7701L57.42 21.7601L58.01 21.9001L58.03 21.9301L57.33 24.9601L57.3 24.9801L56.73 24.8501L56.71 24.8201L57.17 22.8201L55.17 24.4601L55.12 24.4701L54.53 24.3301L54.51 24.3001L55.21 21.2701ZM50.22 23.3401L50.24 23.3201C50.51 23.3401 50.72 23.2301 50.82 22.9401L51.35 20.8201L51.4 20.8001L53.49 20.9901L53.51 21.0101L53.23 24.1101L53.2 24.1301L52.62 24.0801L52.6 24.0601L52.83 21.5701L51.84 21.4801L51.39 23.1601C51.2 23.8001 50.77 23.9901 50.19 23.9301L50.17 23.9001L50.22 23.3401ZM45.35 22.1001C45.28 21.5901 45.61 21.1101 46.24 21.0301L47.11 20.9201L47.14 20.9401L47.54 24.0301L47.52 24.0601L46.94 24.1301L46.9 24.1001L46.74 22.8701L46.52 22.9001L45.74 24.2501L45.72 24.2701L45.01 24.3601L44.98 24.3401L45.87 22.7701C45.56 22.6801 45.39 22.4501 45.35 22.1001ZM41.54 22.0501L41.55 22.0201L42.16 21.8501L42.19 21.8701L44.18 24.5401L44.17 24.5701L43.5 24.7601L43.47 24.7401L43.08 24.1901L42 24.4901L41.95 25.1601L41.93 25.1901L41.26 25.3801L41.23 25.3601L41.54 22.0501ZM36.43 24.1201L36.96 23.8701L36.99 23.8801L37.49 24.9401L38.8 24.3201L38.3 23.2601L38.31 23.2301L38.84 22.9801L38.86 23.0001L40.19 25.8101L40.18 25.8401L39.65 26.0901L39.62 26.0801L39.06 24.9001L37.76 25.5201L38.32 26.7001L38.31 26.7301L37.78 26.9801L37.75 26.9701L36.42 24.1601L36.43 24.1201ZM32.49 26.6301L32.97 26.3001H33L34.16 27.9901L34.3 25.4101L34.32 25.3701L34.82 25.0201L34.85 25.0301L36.61 27.5901L36.6 27.6201L36.12 27.9501L36.09 27.9401L34.93 26.2501L34.79 28.8301L34.77 28.8701L34.27 29.2101L34.24 29.2001L32.47 26.6401L32.49 26.6301ZM29.28 29.4601L30.85 27.9701H30.88L32.6 29.7801L32.85 29.5501H32.88L33.84 30.5601V30.5901L33.42 31.0001H33.39L32.85 30.4301L31.38 31.8301L31.92 32.4001V32.4301L31.5 32.8301H31.47L30.51 31.8201V31.7901L30.79 31.5201C30.76 31.4201 30.71 31.3501 30.64 31.2301L29.29 29.5001L29.28 29.4601ZM26.39 32.9401L27.68 31.2601L27.71 31.2501L28.18 31.6101V31.6401L27.26 32.8401L27.71 33.1801L28.38 32.3001H28.41L28.88 32.6601L28.89 32.6901L28.22 33.5701L28.78 33.9901L29.72 32.7501H29.75L30.22 33.1101V33.1401L28.91 34.8601H28.88L26.41 32.9701L26.39 32.9401ZM27.93 68.2801L27.53 67.7901V67.7601L29.17 64.8601H29.2L29.63 65.3801V65.4101L28.46 67.4301L30.66 66.6601H30.69L31.12 67.1801V67.2101L27.96 68.2701L27.93 68.2801ZM30.53 70.9801L30.1 70.5801V70.5501L31.82 68.7301L31.15 68.1001V68.0701L31.55 67.6401H31.58L33.38 69.3401V69.3701L32.98 69.8001H32.95L32.28 69.1701L30.56 70.9901L30.53 70.9801ZM35.05 71.6701C34.89 71.8901 34.66 71.9601 34.46 71.9301C34.61 72.1801 34.58 72.5601 34.37 72.8301C33.99 73.3301 33.42 73.3301 32.96 72.9701L32.15 72.3501L32.14 72.3201L34.03 69.8501L34.06 69.8401L34.72 70.3501C35.19 70.7001 35.38 71.2401 35.05 71.6701ZM36.98 75.4801C36.3 75.1401 35.98 74.3701 36.39 73.5401L37.17 71.9901L37.2 71.9801L37.72 72.2401L37.73 72.2701L36.99 73.7401C36.72 74.2801 36.89 74.7001 37.27 74.8901C37.65 75.0801 38.09 74.9701 38.36 74.4301L39.1 72.9601L39.13 72.9501L39.65 73.2101L39.66 73.2401L38.88 74.7901C38.47 75.6301 37.66 75.8201 36.98 75.4801ZM42.1 77.3901L42.07 77.4001L41.49 77.2101L41.46 77.1701L40.62 74.7201L39.97 76.6601L39.94 76.6701L39.38 76.4801L39.37 76.4501L40.36 73.5001L40.39 73.4901L40.97 73.6801L41.01 73.7201L41.85 76.1701L42.5 74.2301L42.53 74.2101L43.09 74.4001L43.1 74.4301L42.1 77.3901ZM43.84 77.8201L43.81 77.8401L43.24 77.7101L43.22 77.6801L43.92 74.6501L43.95 74.6301L44.52 74.7601L44.54 74.7901L43.84 77.8201ZM47.72 75.8601L47.69 75.8801L46.77 75.7601L46.45 78.2401L46.43 78.2601L45.85 78.1901L45.83 78.1601L46.15 75.6801L45.23 75.5601L45.21 75.5301L45.29 74.9501L45.31 74.9301L47.77 75.2501L47.79 75.2701L47.72 75.8601ZM50.64 78.4701L50.62 78.4901L48.46 78.4501L48.44 78.4301L48.49 75.3201L48.51 75.3001L50.63 75.3401L50.65 75.3601L50.64 75.9501L50.62 75.9701L49.11 75.9401L49.1 76.5001L50.2 76.5201L50.22 76.5401L50.21 77.1301L50.19 77.1501L49.09 77.1301L49.08 77.8301L50.64 77.8601L50.66 77.8801L50.64 78.4701ZM52.83 78.3501L51.77 78.4301L51.74 78.4101L51.49 75.3101L51.51 75.2901L52.57 75.2101C53.54 75.1301 54.29 75.7801 54.36 76.6501C54.43 77.5101 53.79 78.2701 52.83 78.3501ZM58.34 77.2601L56.59 77.7101L56.56 77.6901L55.78 74.6801L55.8 74.6501L56.37 74.5001L56.4 74.5201L57.03 76.9401L58.19 76.6401L58.22 76.6601L58.37 77.2301L58.34 77.2601ZM61.37 76.1401L59.35 76.9201L59.32 76.9101L58.19 74.0101L58.2 73.9801L60.18 73.2101L60.21 73.2201L60.42 73.7701L60.41 73.8001L59 74.3501L59.2 74.8801L60.23 74.4801L60.26 74.4901L60.47 75.0401L60.46 75.0701L59.43 75.4701L59.68 76.1201L61.13 75.5601L61.16 75.5701L61.37 76.1201V76.1401ZM64.96 74.3001L64.32 74.6401L64.29 74.6301L63.74 74.2101L62.7 74.7601L62.83 75.4001L62.82 75.4301L62.18 75.7701L62.15 75.7601L61.56 72.5701L61.57 72.5401L62.15 72.2301L62.18 72.2401L64.97 74.2501L64.96 74.3001ZM66.89 73.0501C66.16 73.6901 65.11 73.6601 64.5 72.9701C63.9 72.2901 63.97 71.2401 64.69 70.6001C65.01 70.3201 65.31 70.1101 65.67 70.0101L66.13 70.5301V70.5601C65.74 70.6301 65.41 70.8401 65.12 71.0901C64.66 71.4901 64.66 72.1001 65.02 72.5001C65.38 72.9101 65.98 72.9801 66.45 72.5601C66.57 72.4501 66.71 72.3001 66.76 72.2001L66.37 71.7601L66.01 72.0701H65.98L65.59 71.6301V71.6001L66.4 70.8801H66.43L67.52 72.1101C67.4 72.4801 67.19 72.7801 66.89 73.0501ZM69.65 70.7601C69.09 71.2801 68.26 71.3101 67.63 70.6301L66.45 69.3601V69.3301L66.88 68.9301H66.91L68.03 70.1401C68.44 70.5901 68.89 70.5701 69.21 70.2801C69.52 69.9901 69.57 69.5501 69.16 69.1001L68.04 67.8901V67.8601L68.47 67.4601H68.5L69.68 68.7401C70.31 69.4101 70.22 70.2401 69.65 70.7601ZM71.67 68.6501H71.64L69.21 66.7001V66.6701L70.54 65.0201H70.57L71.03 65.3901V65.4201L70.08 66.6001L70.52 66.9501L71.21 66.0901H71.24L71.7 66.4601V66.4901L71.01 67.3501L71.55 67.7901L72.52 66.5801H72.55L73.01 66.9501V66.9801L71.67 68.6501ZM50 72.7201C37.25 72.7201 26.91 62.3801 26.91 49.6301C26.91 36.8801 37.25 26.5301 50 26.5301C62.75 26.5301 73.09 36.8701 73.09 49.6201C73.09 62.3701 62.75 72.7201 50 72.7201ZM73.25 33.6601H73.22L72.46 32.6301L72 32.9501L72.25 33.2901C72.61 33.7801 72.61 34.3401 72.1 34.7201C71.59 35.0901 71.03 34.9401 70.67 34.4601L70.05 33.6301V33.6001L72.55 31.7501H72.58L73.7 33.2701V33.3001L73.25 33.6601Z" fill="#A4A9AD"/>
<path d="M67.9101 46.0498H67.5801V46.6598H67.9101C68.0401 46.6598 68.1101 46.6298 68.1601 46.5598C68.1901 46.5298 68.2201 46.4698 68.2201 46.3498C68.2201 46.2398 68.1801 46.1598 68.1101 46.0998C68.0701 46.0698 68.0101 46.0498 67.9101 46.0498Z" fill="#A4A9AD"/>
<path d="M64.4201 46.0898H64.1301V46.6698H64.4301C64.5201 46.6698 64.6001 46.6598 64.6601 46.6098C64.7201 46.5498 64.7501 46.4798 64.7501 46.3898C64.7501 46.3198 64.7301 46.2498 64.6901 46.1998C64.6401 46.1098 64.5601 46.0898 64.4201 46.0898Z" fill="#A4A9AD"/>
<path d="M69.5301 40.8299C68.8001 39.2099 67.8501 37.6699 66.7101 36.2399C66.4701 35.9499 66.2301 35.6599 65.9801 35.3799C65.9701 35.3999 65.9601 35.4199 65.9501 35.4399C64.2401 38.4899 61.6801 41.0299 58.5801 42.6799L57.7901 45.7199L56.8601 49.2999C61.7701 49.8699 66.5701 51.0599 71.1701 52.8399C71.2001 52.6099 71.2301 52.3799 71.2601 52.1499C71.2601 52.1099 71.2701 52.0699 71.2701 52.0299C71.2801 51.9599 71.2901 51.8899 71.2901 51.8099C71.3001 51.7299 71.3101 51.6499 71.3101 51.5799C71.3201 51.5199 71.3201 51.4599 71.3201 51.3999C71.3301 51.2999 71.3401 51.2099 71.3401 51.1099C71.3401 51.0599 71.3501 51.0199 71.3501 50.9699C71.3601 50.8599 71.3601 50.7399 71.3701 50.6299C71.3701 50.5999 71.3701 50.5699 71.3701 50.5299C71.3801 50.3799 71.3801 50.2399 71.3801 50.0899C71.3801 50.0899 71.3801 50.0899 71.3801 50.0799C71.3801 49.9199 71.3901 49.7599 71.3901 49.5999C71.4101 46.5399 70.7701 43.5599 69.5301 40.8299ZM62.8001 45.7499H60.9601L61.0901 45.3899H62.9301L62.8001 45.7499ZM63.0001 45.1999H61.1601L61.2901 44.8399H63.1301L63.0001 45.1999ZM63.2001 44.6599H61.3601L61.4901 44.2999H63.3301L63.2001 44.6599ZM64.8101 46.9999C64.7301 47.0199 64.6501 47.0299 64.4901 47.0299H63.7001V44.8399H64.4001C64.5401 44.8399 64.6401 44.8499 64.7301 44.8699C64.9801 44.9399 65.1501 45.1099 65.1501 45.3899C65.1501 45.5399 65.1001 45.6599 65.0101 45.7499C64.9701 45.7899 64.9201 45.8299 64.8401 45.8699V45.8799C64.9201 45.9099 65.0001 45.9599 65.0401 45.9999C65.1701 46.1099 65.2301 46.2499 65.2301 46.4299C65.2301 46.7099 65.0701 46.9299 64.8101 46.9999ZM66.8801 45.2099H66.3201V47.0299H65.8801V45.2099H65.2501V44.8399H67.0101L66.8801 45.2099ZM68.4201 46.9099C68.2801 47.0099 68.1401 47.0299 67.8501 47.0299H67.1401V44.8399H68.5601L68.4301 45.2099H67.5701V45.6899H67.9201C68.2001 45.6899 68.3501 45.7599 68.4501 45.8499C68.5301 45.9199 68.6701 46.0699 68.6701 46.3699C68.6801 46.6599 68.5401 46.8199 68.4201 46.9099Z" fill="#A4A9AD"/>
<path d="M64.5301 45.6997C64.6301 45.6697 64.7001 45.5797 64.7001 45.4497C64.7001 45.2997 64.6301 45.2397 64.5301 45.2097C64.4901 45.1997 64.4501 45.1997 64.3601 45.1997H64.1301V45.7097H64.3801C64.4501 45.7097 64.4901 45.7097 64.5301 45.6997Z" fill="#A4A9AD"/>
</svg>
