<svg width="80" height="80" viewBox="0 0 80 80" fill="none" xmlns="http://www.w3.org/2000/svg">
<path d="M1.36 50.5148C3.76 49.6352 6.24 49.1954 8.88 49.1954C14.24 49.1954 18.92 50.8746 22.92 54.2329L10.36 66.7868C6.12 61.989 3.12 56.5118 1.36 50.5148ZM54.24 31.2044C62.12 37.0814 70.64 38.5208 79.76 35.5222C79.88 36.3618 80 37.881 80 40C80 44.118 79 48.7157 77.12 53.7931C75.24 58.8307 72.92 62.9087 70.2 65.9871L44.88 40.7596L54.24 31.2044ZM27.08 58.5508C31.32 64.6678 32.2 71.3445 29.68 78.6208C24 76.9816 18.92 74.4229 14.68 70.9047L27.08 58.5508ZM40.76 44.8776L66 70.185C57.32 77.7812 47.12 80.9797 35.52 79.7403C36.36 77.1016 36.8 74.223 36.8 71.1046C36.8 68.6258 36.24 65.7072 35.12 62.3888C34 59.0706 32.68 56.3519 31.2 54.2329L40.76 44.8776ZM27.24 49.995C23.52 46.6767 19.2 44.5977 14.32 43.6382C9.44 42.7187 4.76 42.9985 0.24 44.5177C0.12 43.6382 0 42.1189 0 40C0 35.882 1 31.2843 2.88 26.2069C4.76 21.1693 7.08 17.0913 9.8 14.0129L36.44 40.7596L27.24 49.995ZM54.24 22.9285C48.88 16.3317 47.64 9.13533 50.52 1.37915C53 2.01885 55.84 3.21828 59.04 5.05733C62.2 6.85647 64.8 8.65552 66.8 10.3747L54.24 22.9285ZM78.64 29.5252C76.24 30.3648 73.76 30.8046 71.12 30.8046C66.76 30.8046 62.56 29.5252 58.56 26.8865L70.92 14.6926C74.44 19.0904 77 24.0079 78.64 29.5252ZM40.76 36.4418L14 9.81495C22.68 2.21876 32.88 -0.97968 44.52 0.259711C43.64 2.89838 43.2 5.77695 43.2 8.89542C43.2 11.774 43.84 15.0124 45.16 18.6506C46.48 22.2488 48 25.1273 50 27.2463L40.76 36.4418Z" fill="#F9D110"/>
</svg>
