<svg width="100" height="100" viewBox="0 0 100 100" fill="none" xmlns="http://www.w3.org/2000/svg">
<g clip-path="url(#clip0_585_927)">
<path d="M91.9355 0H8.06452C3.61774 0 0 3.61774 0 8.06452V62.9032C0 67.35 3.61774 70.9677 8.06452 70.9677H27.9226C31.8081 80.1226 33.871 90.0161 33.871 100L37.0968 99.9742C37.0968 97.1161 36.9097 94.2661 36.5935 91.4323L36.6242 91.4629L38.7097 89.3774L42.0742 92.7419L37.5694 97.2468L39.85 99.5274L44.3548 95.0226L48.8597 99.5274L50 98.3871L51.1403 99.5274L55.6452 95.0226L60.15 99.5274L62.4306 97.2468L57.9258 92.7419L64.1065 86.5613C63.3258 90.9887 62.9032 95.4855 62.9032 100L66.129 99.9742C66.129 90.0113 68.1919 80.121 72.0774 70.9677H91.9355C96.3823 70.9677 100 67.35 100 62.9032V8.06452C100 3.61774 96.3823 0 91.9355 0ZM72.5806 54.8387H27.4194V25.8065H72.5806V54.8387ZM75.8064 58.0645V61.2903H24.1935V58.0645H75.8064ZM59.0097 64.5161L55.6452 67.8806L52.2806 64.5161H59.0097ZM61.2903 66.7968L64.6548 70.1613L61.2903 73.5258L57.9258 70.1613L61.2903 66.7968ZM53.3645 70.1613L50 73.5258L46.6355 70.1613L50 66.7968L53.3645 70.1613ZM47.7194 64.5161L44.3548 67.8806L40.9903 64.5161H47.7194ZM36.429 64.5161L33.0645 67.8806L29.7 64.5161H36.429ZM36.429 75.8064L33.95 78.2855C33.1984 75.7113 32.3258 73.1742 31.3113 70.6903L36.429 75.8064ZM35.3452 70.1613L38.7097 66.7968L42.0742 70.1613L38.7097 73.5258L35.3452 70.1613ZM44.3548 72.4419L47.7194 75.8064L44.3548 79.171L40.9903 75.8064L44.3548 72.4419ZM50 78.0871L53.3645 81.4516L50 84.8161L46.6355 81.4516L50 78.0871ZM52.2806 75.8064L55.6452 72.4419L59.0097 75.8064L55.6452 79.171L52.2806 75.8064ZM61.2903 78.0871L64.6548 81.4516L61.2903 84.8161L57.9258 81.4516L61.2903 78.0871ZM63.571 75.8064L66.9355 72.4419L67.7145 73.221C67.1 74.8903 66.5484 76.579 66.05 78.2855L63.571 75.8064ZM63.571 64.5161H71.5419C70.6258 66.2952 69.779 68.1081 69.0048 69.95L63.571 64.5161ZM36.0403 87.4855C35.7323 85.6032 35.3645 83.7323 34.9177 81.879L38.7097 78.0871L42.0742 81.4516L36.0403 87.4855ZM40.9903 87.0968L44.3548 83.7323L47.7194 87.0968L44.3548 90.4613L40.9903 87.0968ZM50 96.1065L46.6355 92.7419L50 89.3774L53.3645 92.7419L50 96.1065ZM52.2806 87.0968L55.6452 83.7323L59.0097 87.0968L55.6452 90.4613L52.2806 87.0968ZM96.7742 62.9032C96.7742 65.571 94.6032 67.7419 91.9355 67.7419H73.5242C74.0468 66.6564 74.5774 65.5758 75.1532 64.5161H77.4194C78.3113 64.5161 79.0323 63.7952 79.0323 62.9032V56.4516C79.0323 55.5597 78.3113 54.8387 77.4194 54.8387H75.8064V24.1935C75.8064 23.3016 75.0855 22.5806 74.1936 22.5806H25.8065C24.9145 22.5806 24.1935 23.3016 24.1935 24.1935V54.8387H22.5806C21.6887 54.8387 20.9677 55.5597 20.9677 56.4516V62.9032C20.9677 63.7952 21.6887 64.5161 22.5806 64.5161H24.8468C25.4226 65.5758 25.9532 66.6564 26.4758 67.7419H8.06452C5.39677 67.7419 3.22581 65.571 3.22581 62.9032V8.06452C3.22581 5.39677 5.39677 3.22581 8.06452 3.22581H91.9355C94.6032 3.22581 96.7742 5.39677 96.7742 8.06452V62.9032Z" fill="white"/>
<path d="M91.9921 6.39258H8.00766C7.11452 6.39258 6.39258 7.11263 6.39258 8.00343V62.7725C6.39258 63.6633 7.11452 64.3833 8.00766 64.3833H17.6982V61.1616H9.62275V9.61429H90.377V61.1616H82.3016V64.3833H91.9921C92.8852 64.3833 93.6072 63.6633 93.6072 62.7725V8.00343C93.6072 7.11263 92.8852 6.39258 91.9921 6.39258Z" fill="white"/>
</g>
<defs>
<clipPath id="clip0_585_927">
<rect width="100" height="100" fill="white"/>
</clipPath>
</defs>
</svg>
