<svg width="100" height="100" viewBox="0 0 100 100" fill="none" xmlns="http://www.w3.org/2000/svg">
<path d="M50 9C55.4369 9 60.6512 11.1598 64.4957 15.0043C68.3402 18.8488 70.5 24.0631 70.5 29.5C70.5 34.9369 68.3402 40.1512 64.4957 43.9957C60.6512 47.8402 55.4369 50 50 50C44.5631 50 39.3488 47.8402 35.5043 43.9957C31.6598 40.1512 29.5 34.9369 29.5 29.5C29.5 24.0631 31.6598 18.8488 35.5043 15.0043C39.3488 11.1598 44.5631 9 50 9V9ZM50 60.25C72.6525 60.25 91 69.4237 91 80.75V91H9V80.75C9 69.4237 27.3475 60.25 50 60.25Z" fill="white"/>
</svg>
