<svg width="100" height="100" viewBox="0 0 100 100" fill="none" xmlns="http://www.w3.org/2000/svg">
<path d="M50 82.8C31.919 82.8 17.2 68.081 17.2 50C17.2 31.919 31.919 17.2 50 17.2C68.081 17.2 82.8 31.919 82.8 50C82.8 68.081 68.081 82.8 50 82.8ZM50 9C44.6158 9 39.2843 10.0605 34.31 12.1209C29.3356 14.1814 24.8158 17.2014 21.0086 21.0086C13.3196 28.6976 9 39.1261 9 50C9 60.8739 13.3196 71.3024 21.0086 78.9914C24.8158 82.7986 29.3356 85.8186 34.31 87.8791C39.2843 89.9395 44.6158 91 50 91C60.8739 91 71.3024 86.6804 78.9914 78.9914C86.6804 71.3024 91 60.8739 91 50C91 44.6158 89.9395 39.2843 87.8791 34.31C85.8186 29.3356 82.7986 24.8158 78.9914 21.0086C75.1842 17.2014 70.6644 14.1814 65.69 12.1209C60.7157 10.0605 55.3842 9 50 9V9ZM41.8 68.45L66.4 50L41.8 31.55V68.45Z" fill="white"/>
</svg>
