<svg width="100" height="100" viewBox="0 0 100 100" fill="none" xmlns="http://www.w3.org/2000/svg">
<path d="M39.4571 9C47.5349 9 55.2818 12.2089 60.9936 17.9207C66.7054 23.6325 69.9143 31.3794 69.9143 39.4571C69.9143 47.0011 67.1497 53.936 62.6046 59.2777L63.8697 60.5429H67.5714L91 83.9714L83.9714 91L60.5429 67.5714V63.8697L59.2777 62.6046C53.936 67.1497 47.0011 69.9143 39.4571 69.9143C31.3794 69.9143 23.6325 66.7054 17.9207 60.9936C12.2089 55.2818 9 47.5349 9 39.4571C9 31.3794 12.2089 23.6325 17.9207 17.9207C23.6325 12.2089 31.3794 9 39.4571 9V9ZM39.4571 18.3714C27.7429 18.3714 18.3714 27.7429 18.3714 39.4571C18.3714 51.1714 27.7429 60.5429 39.4571 60.5429C51.1714 60.5429 60.5429 51.1714 60.5429 39.4571C60.5429 27.7429 51.1714 18.3714 39.4571 18.3714Z" fill="white"/>
</svg>
