<svg width="100" height="100" viewBox="0 0 100 100" fill="none" xmlns="http://www.w3.org/2000/svg">
<path d="M91 24.716L72.14 9L66.851 15.2294L85.711 30.9454L91 24.716ZM33.108 15.2294L27.86 9L9 24.6753L14.289 30.9047L33.108 15.2294ZM52.05 33.999H45.9V58.428L65.375 70.0318L68.45 65.0238L52.05 55.3744V33.999ZM50 17.713C29.623 17.713 13.1 34.1212 13.1 54.3565C13.1 74.5919 29.582 91 50 91C70.377 91 86.9 74.5919 86.9 54.3565C86.9 34.1212 70.377 17.713 50 17.713ZM50 82.857C34.133 82.857 21.3 70.1132 21.3 54.3565C21.3 38.5998 34.133 25.856 50 25.856C65.867 25.856 78.7 38.5998 78.7 54.3565C78.7 70.1132 65.867 82.857 50 82.857Z" fill="white"/>
</svg>
