<svg width="100" height="100" viewBox="0 0 100 100" fill="none" xmlns="http://www.w3.org/2000/svg">
<path d="M9.428 61.0405C11.948 60.117 14.552 59.6552 17.324 59.6552C22.952 59.6552 27.866 61.4183 32.066 64.9446L18.878 78.1261C14.426 73.0885 11.276 67.3374 9.428 61.0405ZM64.952 40.7646C73.226 46.9355 82.172 48.4468 91.748 45.2983C91.874 46.1799 92 47.7751 92 50C92 54.3239 90.95 59.1515 88.976 64.4828C87.002 69.7722 84.566 74.0541 81.71 77.2865L55.124 50.7976L64.952 40.7646ZM36.434 69.4783C40.886 75.9012 41.81 82.9117 39.164 90.5519C33.2 88.8307 27.866 86.1441 23.414 82.4499L36.434 69.4783ZM50.798 55.1215L77.3 81.6943C68.186 89.6703 57.476 93.0287 45.296 91.7273C46.178 88.9567 46.64 85.9342 46.64 82.6598C46.64 80.0571 46.052 76.9926 44.876 73.5083C43.7 70.0241 42.314 67.1695 40.76 64.9446L50.798 55.1215ZM36.602 60.4948C32.696 57.0105 28.16 54.8276 23.036 53.8201C17.912 52.8546 12.998 53.1484 8.252 54.7436C8.126 53.8201 8 52.2249 8 50C8 45.6761 9.05 40.8485 11.024 35.5172C12.998 30.2278 15.434 25.9459 18.29 22.7135L46.262 50.7976L36.602 60.4948ZM64.952 32.0749C59.324 25.1483 58.022 17.5921 61.046 9.44811C63.65 10.1198 66.632 11.3792 69.992 13.3102C73.31 15.1993 76.04 17.0883 78.14 18.8934L64.952 32.0749ZM90.572 39.0015C88.052 39.883 85.448 40.3448 82.676 40.3448C78.098 40.3448 73.688 39.0015 69.488 36.2308L82.466 23.4272C86.162 28.0449 88.85 33.2083 90.572 39.0015ZM50.798 46.2639L22.7 18.3057C31.814 10.3297 42.524 6.97134 54.746 8.2727C53.822 11.0433 53.36 14.0658 53.36 17.3402C53.36 20.3627 54.032 23.763 55.418 27.5831C56.804 31.3612 58.4 34.3837 60.5 36.6086L50.798 46.2639Z" fill="#FECF00"/>
</svg>
