<svg width="100" height="100" viewBox="0 0 100 100" fill="none" xmlns="http://www.w3.org/2000/svg">
<path d="M74.8106 61.3953C69.9295 61.3953 65.5771 63.588 62.793 66.9767L39.4802 54.701C40.0264 53.2226 40.326 51.6279 40.326 49.9834C40.326 48.3223 40.0264 46.7442 39.4626 45.2492L62.7577 32.99C65.5242 36.3953 69.8943 38.6047 74.793 38.6047C83.1454 38.6047 89.9648 32.1927 89.9648 24.3023C89.9648 16.412 83.163 10 74.793 10C66.4229 10 59.6211 16.412 59.6211 24.3023C59.6211 25.9635 59.9207 27.5581 60.4846 29.0365L37.207 41.2957C34.4405 37.8738 30.0705 35.6811 25.1718 35.6811C16.8194 35.6811 10 42.093 10 49.9834C10 57.8738 16.8194 64.2857 25.1894 64.2857C30.0881 64.2857 34.4581 62.0764 37.2423 58.6545L60.5374 70.9302C59.9736 72.4252 59.6564 74.0365 59.6564 75.6977C59.6564 83.5714 66.4582 90 74.8282 90C83.1982 90 90 83.588 90 75.6977C90 67.8073 83.1806 61.3953 74.8106 61.3953ZM74.8106 14.5017C80.5551 14.5017 85.2247 18.9037 85.2247 24.3189C85.2247 29.7342 80.5551 34.1362 74.8106 34.1362C69.0661 34.1362 64.3965 29.7342 64.3965 24.3189C64.3965 18.9037 69.0837 14.5017 74.8106 14.5017ZM25.1894 59.8007C19.4449 59.8007 14.7753 55.3987 14.7753 49.9834C14.7753 44.5681 19.4449 40.1661 25.1894 40.1661C30.9339 40.1661 35.6035 44.5681 35.6035 49.9834C35.6035 55.3987 30.9163 59.8007 25.1894 59.8007ZM74.8106 85.4983C69.0661 85.4983 64.3965 81.0963 64.3965 75.6811C64.3965 70.2658 69.0661 65.8638 74.8106 65.8638C80.5551 65.8638 85.2247 70.2658 85.2247 75.6811C85.2247 81.0963 80.5551 85.4983 74.8106 85.4983Z" fill="white" stroke="white"/>
</svg>
