<svg width="100" height="100" viewBox="0 0 100 100" fill="none" xmlns="http://www.w3.org/2000/svg">
<path d="M67.766 75.2L50 64.49L32.234 75.2L36.938 54.998L21.272 41.432L41.936 39.668L50 20.6L58.064 39.626L78.728 41.39L63.062 54.956L67.766 75.2ZM50 8C26.774 8 8 26.9 8 50C8 61.1391 12.425 71.822 20.3015 79.6985C24.2016 83.5985 28.8316 86.6922 33.9273 88.8029C39.023 90.9136 44.4845 92 50 92C61.1391 92 71.822 87.575 79.6985 79.6985C87.575 71.822 92 61.1391 92 50C92 44.4845 90.9136 39.023 88.8029 33.9273C86.6922 28.8316 83.5985 24.2016 79.6985 20.3015C75.7984 16.4015 71.1684 13.3078 66.0727 11.1971C60.977 9.08636 55.5155 8 50 8Z" fill="#DA3426"/>
</svg>
