<svg width="100" height="100" viewBox="0 0 100 100" fill="none" xmlns="http://www.w3.org/2000/svg">
<path d="M16.4 18.8889H29L37.4 10H62.6L71 18.8889H83.6C85.8278 18.8889 87.9644 19.8254 89.5397 21.4924C91.115 23.1594 92 25.4203 92 27.7778V81.1111C92 83.4686 91.115 85.7295 89.5397 87.3965C87.9644 89.0635 85.8278 90 83.6 90H16.4C14.1722 90 12.0356 89.0635 10.4603 87.3965C8.885 85.7295 8 83.4686 8 81.1111V27.7778C8 25.4203 8.885 23.1594 10.4603 21.4924C12.0356 19.8254 14.1722 18.8889 16.4 18.8889ZM50 32.2222C44.4305 32.2222 39.089 34.5635 35.1508 38.731C31.2125 42.8984 29 48.5507 29 54.4444C29 60.3381 31.2125 65.9905 35.1508 70.1579C39.089 74.3254 44.4305 76.6667 50 76.6667C55.5695 76.6667 60.911 74.3254 64.8492 70.1579C68.7875 65.9905 71 60.3381 71 54.4444C71 48.5507 68.7875 42.8984 64.8492 38.731C60.911 34.5635 55.5695 32.2222 50 32.2222ZM50 41.1111C53.3417 41.1111 56.5466 42.5159 58.9095 45.0164C61.2725 47.5168 62.6 50.9082 62.6 54.4444C62.6 57.9807 61.2725 61.3721 58.9095 63.8725C56.5466 66.373 53.3417 67.7778 50 67.7778C46.6583 67.7778 43.4534 66.373 41.0905 63.8725C38.7275 61.3721 37.4 57.9807 37.4 54.4444C37.4 50.9082 38.7275 47.5168 41.0905 45.0164C43.4534 42.5159 46.6583 41.1111 50 41.1111Z" fill="#FECF00"/>
</svg>
