<svg width="100" height="100" viewBox="0 0 100 100" fill="none" xmlns="http://www.w3.org/2000/svg">
<path d="M36.6667 45.8H27.7778V54.2H36.6667V45.8ZM54.4444 45.8H45.5556V54.2H54.4444V45.8ZM72.2222 45.8H63.3333V54.2H72.2222V45.8ZM81.1111 16.4H76.6667V8H67.7778V16.4H32.2222V8H23.3333V16.4H18.8889C13.9556 16.4 10 20.18 10 24.8V83.6C10 85.8278 10.9365 87.9644 12.6035 89.5397C14.2705 91.115 16.5314 92 18.8889 92H81.1111C83.4686 92 85.7295 91.115 87.3965 89.5397C89.0635 87.9644 90 85.8278 90 83.6V24.8C90 22.5722 89.0635 20.4356 87.3965 18.8603C85.7295 17.285 83.4686 16.4 81.1111 16.4ZM81.1111 83.6H18.8889V37.4H81.1111V83.6Z" fill="#3A3A3A"/>
</svg>
