<svg width="100" height="100" viewBox="0 0 100 100" fill="none" xmlns="http://www.w3.org/2000/svg">
<path d="M50.0095 64.7C46.0015 64.7 42.1576 63.1513 39.3235 60.3945C36.4893 57.6377 34.8972 53.8987 34.8972 50C34.8972 46.1013 36.4893 42.3623 39.3235 39.6055C42.1576 36.8487 46.0015 35.3 50.0095 35.3C54.0176 35.3 57.8615 36.8487 60.6956 39.6055C63.5297 42.3623 65.1219 46.1013 65.1219 50C65.1219 53.8987 63.5297 57.6377 60.6956 60.3945C57.8615 63.1513 54.0176 64.7 50.0095 64.7ZM82.091 54.074C82.2637 52.73 82.3932 51.386 82.3932 50C82.3932 48.614 82.2637 47.228 82.091 45.8L91.2016 38.954C92.022 38.324 92.2378 37.19 91.7197 36.266L83.0841 21.734C82.5659 20.81 81.4001 20.432 80.4502 20.81L69.6988 25.01C67.4535 23.372 65.1219 21.944 62.4017 20.894L60.8041 9.764C60.6314 8.756 59.7246 8 58.6452 8H41.3739C40.2944 8 39.3877 8.756 39.215 9.764L37.6174 20.894C34.8972 21.944 32.5655 23.372 30.3203 25.01L19.5689 20.81C18.619 20.432 17.4531 20.81 16.935 21.734L8.29936 36.266C7.73804 37.19 7.99711 38.324 8.8175 38.954L17.9281 45.8C17.7554 47.228 17.6259 48.614 17.6259 50C17.6259 51.386 17.7554 52.73 17.9281 54.074L8.8175 61.046C7.99711 61.676 7.73804 62.81 8.29936 63.734L16.935 78.266C17.4531 79.19 18.619 79.526 19.5689 79.19L30.3203 74.948C32.5655 76.628 34.8972 78.056 37.6174 79.106L39.215 90.236C39.3877 91.244 40.2944 92 41.3739 92H58.6452C59.7246 92 60.6314 91.244 60.8041 90.236L62.4017 79.106C65.1219 78.014 67.4535 76.628 69.6988 74.948L80.4502 79.19C81.4001 79.526 82.5659 79.19 83.0841 78.266L91.7197 63.734C92.2378 62.81 92.022 61.676 91.2016 61.046L82.091 54.074Z" fill="#FECF00"/>
</svg>
