<svg width="100" height="100" viewBox="0 0 100 100" fill="none" xmlns="http://www.w3.org/2000/svg">
<path d="M78 84.3636H22V23.2727H30V34.7273H70V23.2727H78V84.3636ZM50 15.6364C51.0609 15.6364 52.0783 16.0386 52.8284 16.7547C53.5786 17.4707 54 18.4419 54 19.4545C54 20.4672 53.5786 21.4384 52.8284 22.1544C52.0783 22.8705 51.0609 23.2727 50 23.2727C48.9391 23.2727 47.9217 22.8705 47.1716 22.1544C46.4214 21.4384 46 20.4672 46 19.4545C46 18.4419 46.4214 17.4707 47.1716 16.7547C47.9217 16.0386 48.9391 15.6364 50 15.6364ZM78 15.6364H61.28C59.6 11.2073 55.2 8 50 8C44.8 8 40.4 11.2073 38.72 15.6364H22C19.8783 15.6364 17.8434 16.4409 16.3431 17.873C14.8429 19.3051 14 21.2474 14 23.2727V84.3636C14 86.3889 14.8429 88.3313 16.3431 89.7634C17.8434 91.1955 19.8783 92 22 92H78C80.1217 92 82.1566 91.1955 83.6569 89.7634C85.1571 88.3313 86 86.3889 86 84.3636V23.2727C86 21.2474 85.1571 19.3051 83.6569 17.873C82.1566 16.4409 80.1217 15.6364 78 15.6364Z" fill="#3A3A3A"/>
</svg>
