<svg width="100" height="100" viewBox="0 0 100 100" fill="none" xmlns="http://www.w3.org/2000/svg">
<rect x="1" y="1" width="98" height="98" rx="49" fill="#3A3A3A"/>
<path d="M1.7 63.1434C4.7 62.044 7.8 61.4943 11.1 61.4943C17.8 61.4943 23.65 63.5932 28.65 67.7912L12.95 83.4834C7.65 77.4863 3.9 70.6398 1.7 63.1434ZM67.8 39.0055C77.65 46.3518 88.3 48.1509 99.7 44.4027C99.85 45.4523 100 47.3513 100 50C100 55.1475 98.75 60.8946 96.4 67.2414C94.05 73.5383 91.15 78.6358 87.75 82.4839L56.1 50.9495L67.8 39.0055ZM33.85 73.1884C39.15 80.8348 40.25 89.1806 37.1 98.2761C30 96.227 23.65 93.0287 18.35 88.6308L33.85 73.1884ZM50.95 56.097L82.5 87.7313C71.65 97.2265 58.9 101.225 44.4 99.6753C45.45 96.377 46 92.7788 46 88.8807C46 85.7822 45.3 82.134 43.9 77.9861C42.5 73.8382 40.85 70.4399 39 67.7912L50.95 56.097ZM34.05 62.4938C29.4 58.3458 24 55.7471 17.9 54.5477C11.8 53.3983 5.95 53.7481 0.3 55.6471C0.15 54.5477 0 52.6487 0 50C0 44.8525 1.25 39.1053 3.6 32.7586C5.95 26.4617 8.85 21.3642 12.25 17.5161L45.55 50.9495L34.05 62.4938ZM67.8 28.6606C61.1 20.4146 59.55 11.4192 63.15 1.72393C66.25 2.52357 69.8 4.02285 73.8 6.32166C77.75 8.57059 81 10.8194 83.5 12.9683L67.8 28.6606ZM98.3 36.9065C95.3 37.9559 92.2 38.5057 88.9 38.5057C83.45 38.5057 78.2 36.9065 73.2 33.6081L88.65 18.3657C93.05 23.863 96.25 30.0099 98.3 36.9065ZM50.95 45.5523L17.5 12.2687C28.35 2.77345 41.1 -1.2246 55.65 0.324638C54.55 3.62297 54 7.22119 54 11.1193C54 14.7175 54.8 18.7655 56.45 23.3132C58.1 27.8109 60 31.4092 62.5 34.0578L50.95 45.5523Z" fill="#FF9900"/>
</svg>
