<svg width="260" height="61" viewBox="0 0 260 61" fill="none" xmlns="http://www.w3.org/2000/svg">
<path d="M218.914 0.604891C218.558 1.56823 216.295 8.24444 213.006 18.0347C212.252 20.2526 211.435 22.6274 211.184 23.2995C210.932 23.9716 210.555 25.0918 210.346 25.7639C210.137 26.436 209.592 28.0939 209.131 29.4604C208.67 30.8046 207.622 33.9411 206.805 36.4054C205.967 38.8698 205.171 41.2446 205.003 41.6702C204.835 42.096 204.311 43.6641 203.829 45.1427C203.327 46.6215 202.907 47.876 202.887 47.8984C202.866 47.9432 201.798 48.1448 200.519 48.3464L198.194 48.6825V54.2609V59.8169H210.031H221.869L221.827 54.2609L221.763 48.7273L220.13 48.4136C219.082 48.2345 218.517 48.0329 218.58 47.8536C218.621 47.7192 218.851 47.0247 219.062 46.3078L219.439 45.0308L229.159 45.0755L238.902 45.1427L239.3 46.5543C239.531 47.3383 239.677 48.0329 239.615 48.0776C239.551 48.1448 238.839 48.3241 238.022 48.4585L236.535 48.7049V54.2609V59.8169H248.267H260V54.2161C260 50.9229 259.916 48.6153 259.811 48.6153C259.496 48.6153 256.375 48.1673 255.872 48.0552C255.557 47.9656 255.307 47.5848 254.993 46.6662C253.862 43.2385 249.546 30.3566 248.77 28.1162C248.602 27.6234 248.225 26.5032 247.952 25.6519C247.681 24.7781 247.198 23.3667 246.905 22.5154C246.591 21.6417 246.277 20.7007 246.171 20.3871C246.088 20.0734 245.669 18.8189 245.23 17.5866C244.328 14.8983 243.616 12.8371 242.82 10.4176C242.484 9.43182 241.814 7.46032 241.353 6.0489C240.871 4.6375 240.222 2.6884 239.929 1.74746L239.363 0H229.243H219.144L218.914 0.604891ZM231.799 22.2914C233.161 26.7272 234.397 30.7374 234.565 31.1855L234.858 32.0368H229.18C224.76 32.0368 223.524 31.9696 223.587 31.7455C223.964 30.1325 229.118 13.9573 229.223 14.0693C229.286 14.159 230.438 17.8555 231.799 22.2914Z" fill="#3A3A3A"/>
<path d="M66.8569 5.41696V10.8339L69.8642 11.4213L72.8716 12.0086V25.8666C72.8716 36.6787 72.9338 40.1377 73.1619 41.6605C74.0537 47.5561 76.8329 52.1464 81.4787 55.366C84.1749 57.2153 86.6222 58.2595 90.397 59.1949C92.7614 59.7606 99.6057 60.0217 102.426 59.6301C112.485 58.2377 119.744 52.4292 121.818 44.097C122.524 41.2472 122.648 38.7672 122.648 25.1921V12.0086L123.228 11.8781C123.54 11.8129 124.887 11.5518 126.236 11.2908L128.662 10.8339V5.41696V0H114.87H101.078V5.3952V10.7904L103.111 11.182C104.21 11.3995 105.558 11.6823 106.118 11.7911L107.093 12.0086V25.9971C107.093 38.5278 107.051 40.0942 106.74 41.1384C105.89 43.9665 104.127 45.6416 101.14 46.4466C99.7301 46.8382 96.1835 46.8817 94.6073 46.5336C92.2843 46.0115 90.1274 44.4452 89.2563 42.6395C88.2607 40.5728 88.2192 39.8984 88.2192 25.5184V12.0086L91.3304 11.3995L94.4414 10.7904V5.3952V0H80.6491H66.8569V5.41696Z" fill="#3A3A3A"/>
<path d="M136.389 5.35241V10.7272L138.514 11.0855C139.656 11.2871 141.166 11.5558 141.829 11.6902L143.017 11.9142V30.0316V48.1268L141.486 48.3732C140.617 48.53 139.154 48.7538 138.217 48.9106L136.502 49.2018L136.434 54.5094L136.389 59.8169H154.423C166.035 59.8169 173.325 59.7274 174.834 59.5707C183.475 58.6525 189.897 55.0916 192.594 49.6944C194.034 46.8279 194.331 45.4394 194.331 41.677C194.308 38.7209 194.262 38.273 193.692 36.6606C192.982 34.6899 191.543 32.3831 190.148 31.017C189.28 30.166 187.451 28.8447 186.835 28.6208C186.674 28.5536 187.131 27.9713 187.84 27.3219C189.439 25.8438 190.651 24.0074 191.428 21.8799C191.954 20.4914 192.023 19.9316 192.023 17.3785C192.045 13.9968 191.702 12.4516 190.4 9.87619C188.411 5.97946 183.817 2.84416 177.874 1.36609C173.257 0.201555 172.617 0.17916 153.942 0.0895799L136.389 0V5.35241ZM170.651 13.3698C172.617 13.7953 174.125 14.7135 174.629 15.766C175.542 17.6473 175.314 20.0212 174.08 21.2753C172.525 22.8877 170.514 23.3132 164.457 23.3132H159.932V18.1624V13.0115H164.525C167.84 13.0115 169.532 13.1011 170.651 13.3698ZM173.897 35.7648C176.183 36.4366 177.531 38.5417 177.531 41.4531C177.509 44.0061 176.411 45.529 173.966 46.4248C172.731 46.8951 172.137 46.9399 166.285 47.0071L159.932 47.0967V41.2515V35.4065H166.285C171.474 35.4065 172.868 35.4737 173.897 35.7648Z" fill="#3A3A3A"/>
<path d="M10.6293 53.08C13.48 55.6824 21.7709 59.3316 24.9498 59.4108C26.2111 59.4423 26.3647 59.2435 26.3793 57.7759C26.4775 53.0196 29.6891 44.7973 33.0613 40.6795C33.9298 39.638 34.6468 38.5927 34.6484 38.4409C34.6504 38.2385 33.4526 36.8924 32.0041 35.3882L29.4067 32.6909L19.5705 42.2162C14.2188 47.449 9.78376 51.844 9.78223 51.9958C9.78071 52.1477 10.1793 52.6638 10.6293 53.08ZM21.9711 44.4023C27.3219 39.2708 29.2056 37.6471 29.6551 38.1139C30.1046 38.5808 29.9483 39.0832 29.1298 40.1765C27.1845 42.9123 24.5522 48.7191 23.8623 52.0938C23.1729 55.4177 23.1729 55.4177 21.6622 55.0763C19.648 54.6212 14.8269 52.2229 14.832 51.7167C14.8346 51.4637 18.0469 48.2026 21.9711 44.4023Z" fill="#DA3426"/>
<path d="M30.3028 59.0884C30.7831 61.5303 44.149 57.358 48.1232 53.6097C48.7857 52.9681 48.1878 52.1939 43.2428 47.0587L37.5979 41.248L36.6266 42.4895C33.0499 46.8552 29.6289 55.8317 30.3028 59.0884ZM35.2713 51.8212C37.4474 46.2055 37.3969 46.2042 40.7954 49.5289C43.4942 52.178 43.5932 52.383 42.7283 53.0702C41.7625 53.7549 37.4559 55.4193 35.2301 55.9207C33.662 56.2866 33.6655 55.9324 35.2713 51.8212Z" fill="#DA3426"/>
<path d="M53.4619 11.5816C55.9546 14.5306 59.3003 22.9712 59.2683 26.1611C59.2557 27.4271 59.0524 27.574 57.5899 27.5374C52.8486 27.4699 44.546 30.4032 40.3266 33.6408C39.2589 34.4751 38.1927 35.1577 38.0414 35.1539C37.8397 35.1489 36.5405 33.9009 35.0927 32.396L32.4966 29.6975L42.3282 20.1675C47.7275 14.984 52.2601 10.6906 52.4115 10.6943C52.5628 10.6981 53.0631 11.1158 53.4619 11.5816ZM44.4221 22.6508C39.1236 27.8367 37.4406 29.6689 37.8899 30.1359C38.3393 30.6029 38.8451 30.4636 39.9627 29.6811C42.7558 27.826 48.6321 25.3895 52.0176 24.8154C55.3528 24.2402 55.3528 24.2402 55.0655 22.7136C54.6823 20.6781 52.4615 15.7605 51.9572 15.7479C51.705 15.7416 48.3445 18.8487 44.4221 22.6508Z" fill="#DA3426"/>
<path d="M58.7602 31.5172C61.1759 32.084 56.5534 45.3399 52.6808 49.1939C52.0186 49.8359 51.2682 49.2094 46.3256 44.072L40.7344 38.2092L42.0048 37.2786C46.4785 33.8448 55.5396 30.7278 58.7602 31.5172ZM51.3477 36.2454C45.6778 38.2312 45.6784 38.1805 48.8715 41.7043C51.4162 44.5027 51.6169 44.609 52.3317 43.7659C53.0474 42.8214 54.8557 38.5613 55.4328 36.3472C55.852 34.7875 55.4989 34.7787 51.3477 36.2454Z" fill="#DA3426"/>
<path d="M5.9668 48.2359C3.47408 45.2868 0.128396 36.8463 0.160384 33.6563C0.173078 32.3904 0.376334 32.2435 1.83889 32.28C6.58012 32.3476 14.8827 29.4144 19.1021 26.1767C20.1699 25.3423 21.236 24.6598 21.3874 24.6636C21.5891 24.6686 22.8882 25.9165 24.336 27.4215L26.9321 30.1199L17.1005 39.65C11.7013 44.8335 7.16856 49.1269 7.01725 49.1231C6.86596 49.1194 6.36569 48.7016 5.9668 48.2359ZM15.0066 37.1666C20.3051 31.9807 21.9881 30.1486 21.5388 29.6816C21.0895 29.2145 20.5836 29.3538 19.466 30.1364C16.6729 31.9914 10.7967 34.4279 7.41108 35.002C4.0759 35.5773 4.0759 35.5773 4.36326 37.1038C4.74641 39.1394 6.96717 44.0571 7.4715 44.0696C7.72366 44.0759 11.0842 40.9688 15.0066 37.1666Z" fill="#DA3426"/>
<path d="M0.668196 28.3003C-1.74752 27.7336 2.87508 14.4776 6.7476 10.6235C7.40983 9.98159 8.16024 10.6081 13.1028 15.7455L18.694 21.6083L17.4235 22.5388C12.9499 25.9727 3.88881 29.0897 0.668196 28.3003ZM8.08069 23.5722C13.7506 21.5863 13.75 21.6369 10.5568 18.1132C8.01216 15.3148 7.81144 15.2084 7.09675 16.0517C6.38103 16.9961 4.57271 21.2562 3.99561 23.4703C3.57639 25.03 3.92943 25.0388 8.08069 23.5722Z" fill="#DA3426"/>
<path d="M48.7988 6.73702C45.9482 4.13472 37.6572 0.485529 34.4784 0.406272C33.2169 0.374819 33.0635 0.573493 33.0489 2.04123C32.9506 6.79749 29.7391 15.0198 26.3669 19.1376C25.4983 20.1791 24.7813 21.2243 24.7798 21.3761C24.7778 21.5786 25.9756 22.9247 27.4241 24.4289L30.0215 27.1261L39.8577 17.6009C45.2094 12.3681 49.6444 7.97309 49.646 7.82126C49.6475 7.66942 49.2489 7.15323 48.7988 6.73702ZM37.457 15.4147C32.1062 20.5463 30.2225 22.17 29.773 21.7031C29.3235 21.2363 29.4799 20.734 30.2984 19.6406C32.2437 16.9047 34.8758 11.098 35.5658 7.72331C36.2552 4.39929 36.2552 4.39929 37.766 4.7407C39.7801 5.19591 44.6012 7.59422 44.5962 8.10035C44.5936 8.3534 41.3813 11.6145 37.457 15.4147Z" fill="#DA3426"/>
<path d="M29.1254 0.728636C28.6451 -1.71331 15.2793 2.45901 11.3051 6.20739C10.6425 6.84898 11.2404 7.62325 16.1855 12.7584L21.8302 18.5691L22.8016 17.3277C26.3783 12.9618 29.7993 3.98541 29.1254 0.728636ZM24.157 7.99594C21.9809 13.6116 22.0313 13.6129 18.6328 10.2882C15.934 7.63904 15.8351 7.43407 16.6999 6.74689C17.6657 6.06223 21.9724 4.39775 24.1981 3.89637C25.7662 3.53048 25.7627 3.88476 24.157 7.99594Z" fill="#DA3426"/>
</svg>
