<svg width="372" height="248" viewBox="0 0 372 248" fill="none" xmlns="http://www.w3.org/2000/svg">
<g clip-path="url(#clip0_539_943)">
<path d="M292.417 133.163C291.733 135.016 287.381 147.855 281.056 166.682C279.606 170.947 278.036 175.514 277.552 176.807C277.067 178.099 276.342 180.253 275.94 181.546C275.538 182.838 274.49 186.027 273.604 188.655C272.717 191.24 270.702 197.271 269.131 202.01C267.52 206.75 265.988 211.317 265.665 212.135C265.342 212.954 264.336 215.97 263.408 218.813C262.442 221.657 261.636 224.069 261.597 224.112C261.556 224.198 259.502 224.586 257.042 224.974L252.572 225.62V236.348V247.033H275.336H298.099L298.02 236.348L297.897 225.706L294.756 225.103C292.74 224.759 291.654 224.371 291.774 224.026C291.854 223.768 292.297 222.432 292.702 221.053L293.427 218.598L312.12 218.684L330.856 218.813L331.622 221.527C332.065 223.035 332.347 224.371 332.227 224.457C332.104 224.586 330.736 224.931 329.163 225.189L326.304 225.663V236.348V247.033H348.865H371.429V236.262C371.429 229.929 371.267 225.491 371.065 225.491C370.461 225.491 364.458 224.629 363.49 224.414C362.886 224.242 362.404 223.509 361.799 221.743C359.624 215.151 351.324 190.378 349.833 186.07C349.511 185.122 348.786 182.968 348.261 181.33C347.738 179.65 346.811 176.936 346.247 175.299C345.642 173.619 345.038 171.809 344.836 171.206C344.674 170.603 343.87 168.19 343.024 165.82C341.29 160.651 339.922 156.687 338.39 152.034C337.745 150.138 336.456 146.347 335.57 143.633C334.642 140.918 333.395 137.17 332.831 135.36L331.742 132H312.281H292.861L292.417 133.163ZM317.197 174.868C319.815 183.398 322.192 191.11 322.515 191.972L323.079 193.609H312.161C303.661 193.609 301.283 193.48 301.404 193.049C302.129 189.947 312.04 158.841 312.242 159.056C312.363 159.229 314.579 166.337 317.197 174.868Z" fill="#3A3A3A"/>
<path d="M0 142.417V152.834L5.78318 153.964L11.5666 155.094V181.743C11.5666 202.536 11.6864 209.188 12.125 212.116C13.84 223.454 19.1846 232.282 28.1189 238.473C33.3039 242.029 38.0102 244.037 45.2693 245.836C49.8164 246.924 62.9784 247.426 68.4027 246.673C87.7468 243.996 101.706 232.825 105.695 216.802C107.052 211.322 107.29 206.552 107.29 180.446V155.094L108.406 154.843C109.006 154.717 111.597 154.215 114.19 153.713L118.856 152.834V142.417V132H92.3336H65.8102V142.375V152.751L69.7189 153.504C71.8327 153.922 74.4252 154.466 75.5023 154.675L77.3768 155.094V181.994C77.3768 206.092 77.2971 209.104 76.6986 211.112C75.0634 216.551 71.6732 219.772 65.9298 221.32C63.2177 222.073 56.3973 222.157 53.3661 221.488C48.8989 220.484 44.7509 217.472 43.0757 213.999C41.1611 210.025 41.0814 208.728 41.0814 181.074V155.094L47.0643 153.922L53.0471 152.751V142.375V132H26.5234H0V142.417Z" fill="#3A3A3A"/>
<path d="M133.715 142.293V152.629L137.802 153.318C139.999 153.706 142.902 154.223 144.177 154.481L146.463 154.912V189.753V224.552L143.518 225.025C141.847 225.327 139.034 225.757 137.231 226.059L133.934 226.619L133.802 236.826L133.715 247.033H168.397C190.727 247.033 204.747 246.86 207.649 246.559C224.265 244.793 236.615 237.945 241.802 227.566C244.572 222.054 245.143 219.383 245.143 212.148C245.099 206.463 245.011 205.602 243.913 202.501C242.549 198.711 239.781 194.275 237.099 191.648C235.429 190.012 231.913 187.471 230.727 187.04C230.418 186.911 231.297 185.791 232.661 184.542C235.736 181.7 238.065 178.168 239.561 174.077C240.572 171.406 240.704 170.33 240.704 165.42C240.747 158.917 240.088 155.945 237.584 150.993C233.759 143.499 224.924 137.47 213.495 134.627C204.615 132.388 203.386 132.345 167.472 132.172L133.715 132V142.293ZM199.604 157.711C203.386 158.529 206.286 160.295 207.254 162.319C209.011 165.937 208.572 170.502 206.199 172.914C203.209 176.015 199.34 176.833 187.693 176.833H178.99V166.928V157.022H187.824C194.199 157.022 197.452 157.194 199.604 157.711ZM205.847 200.778C210.243 202.07 212.836 206.119 212.836 211.718C212.793 216.627 210.681 219.556 205.979 221.279C203.604 222.183 202.463 222.269 191.209 222.398L178.99 222.571V211.33V200.089H191.209C201.188 200.089 203.868 200.219 205.847 200.778Z" fill="#3A3A3A"/>
<path d="M148.441 102.077C153.923 107.082 169.867 114.099 175.981 114.252C178.406 114.312 178.702 113.93 178.73 111.107C178.919 101.961 185.095 86.1486 191.58 78.2299C193.25 76.2269 194.629 74.2168 194.632 73.9249C194.636 73.5356 192.332 70.9469 189.547 68.0543L184.552 62.8672L165.636 81.185C155.344 91.2481 146.815 99.7 146.812 99.9919C146.809 100.284 147.576 101.277 148.441 102.077ZM170.252 85.3891C180.542 75.5207 184.165 72.3984 185.029 73.296C185.894 74.1939 185.593 75.16 184.019 77.2625C180.278 82.5237 175.216 93.6905 173.889 100.18C172.564 106.573 172.564 106.573 169.658 105.916C165.785 105.041 156.514 100.429 156.523 99.4552C156.528 98.9687 162.706 92.6973 170.252 85.3891Z" fill="#3A3A3A"/>
<path d="M186.275 113.632C187.199 118.328 212.902 110.304 220.545 103.096C221.819 101.862 220.669 100.373 211.16 90.4976L200.304 79.3232L198.436 81.7106C191.558 90.1062 184.979 107.369 186.275 113.632ZM195.83 99.6562C200.015 88.8567 199.918 88.8542 206.453 95.248C211.643 100.342 211.833 100.737 210.17 102.058C208.313 103.375 200.031 106.576 195.751 107.54C192.735 108.244 192.742 107.562 195.83 99.6562Z" fill="#3A3A3A"/>
<path d="M230.811 22.2721C235.605 27.9434 242.039 44.1752 241.977 50.3098C241.953 52.7442 241.562 53.0268 238.75 52.9565C229.632 52.8266 213.665 58.4675 205.551 64.6936C203.498 66.2982 201.447 67.6108 201.157 67.6035C200.769 67.5938 198.27 65.1939 195.486 62.2999L190.493 57.1105L209.4 38.7836C219.784 28.8152 228.5 20.5587 228.791 20.5659C229.082 20.5732 230.044 21.3764 230.811 22.2721ZM213.427 43.5591C203.238 53.5321 200.001 57.0554 200.865 57.9535C201.729 58.8516 202.702 58.5837 204.851 57.079C210.223 53.5115 221.523 48.8258 228.034 47.7219C234.448 46.6156 234.448 46.6156 233.895 43.6799C233.158 39.7654 228.887 30.3085 227.918 30.2843C227.433 30.2722 220.97 36.2473 213.427 43.5591Z" fill="#3A3A3A"/>
<path d="M241.001 60.6098C245.646 61.6998 236.757 87.192 229.31 94.6035C228.036 95.8381 226.593 94.6332 217.088 84.7536L206.336 73.4791L208.779 71.6895C217.382 65.0859 234.807 59.0918 241.001 60.6098ZM226.746 69.7025C215.842 73.5214 215.843 73.4239 221.984 80.2004C226.878 85.582 227.264 85.7865 228.638 84.165C230.015 82.3487 233.492 74.1562 234.602 69.8983C235.408 66.8988 234.729 66.8819 226.746 69.7025Z" fill="#3A3A3A"/>
<path d="M139.474 92.7614C134.681 87.09 128.247 70.8582 128.308 64.7236C128.332 62.2892 128.723 62.0067 131.536 62.0769C140.654 62.2068 156.62 56.5661 164.734 50.3398C166.788 48.7353 168.838 47.4226 169.129 47.43C169.517 47.4396 172.015 49.8395 174.8 52.7337L179.792 57.9229L160.885 76.2501C150.502 86.2182 141.785 94.4748 141.494 94.4674C141.203 94.4604 140.241 93.657 139.474 92.7614ZM156.859 71.4743C167.048 61.5013 170.284 57.978 169.42 57.0799C168.556 56.1818 167.584 56.4497 165.434 57.9547C160.063 61.5219 148.763 66.2076 142.252 67.3116C135.838 68.4178 135.838 68.4178 136.391 71.3535C137.127 75.268 141.398 84.7251 142.368 84.7491C142.853 84.7612 149.315 78.7861 156.859 71.4743Z" fill="#3A3A3A"/>
<path d="M129.285 54.4234C124.639 53.3336 133.529 27.8412 140.976 20.4296C142.25 19.1951 143.693 20.3999 153.198 30.2795L163.95 41.5541L161.507 43.3437C152.904 49.9472 135.478 55.9414 129.285 54.4234ZM143.54 45.3309C154.443 41.5118 154.442 41.6092 148.302 34.8327C143.408 29.4512 143.022 29.2467 141.648 30.8684C140.271 32.6845 136.794 40.877 135.684 45.1349C134.878 48.1343 135.557 48.1513 143.54 45.3309Z" fill="#3A3A3A"/>
<path d="M221.844 12.9558C216.362 7.9514 200.418 0.933728 194.305 0.781311C191.879 0.720825 191.584 1.10289 191.556 3.92547C191.367 13.0721 185.191 28.8842 178.706 36.8031C177.036 38.8059 175.657 40.816 175.654 41.1079C175.65 41.4973 177.953 44.0859 180.739 46.9788L185.734 52.1656L204.65 33.8478C214.942 23.7847 223.47 15.3329 223.473 15.0409C223.476 14.7489 222.71 13.7562 221.844 12.9558ZM200.033 29.6437C189.743 39.5121 186.121 42.6346 185.256 41.7368C184.392 40.8391 184.692 39.8731 186.267 37.7703C190.007 32.5091 195.069 21.3422 196.396 14.8525C197.722 8.46019 197.722 8.46019 200.627 9.11674C204.501 9.99216 213.772 14.6043 213.762 15.5776C213.757 16.0642 207.58 22.3356 200.033 29.6437Z" fill="#3A3A3A"/>
<path d="M184.011 1.40122C183.087 -3.29483 157.383 4.72887 149.741 11.9373C148.467 13.1711 149.616 14.6601 159.126 24.5355L169.981 35.7098L171.85 33.3225C178.728 24.9266 185.307 7.66424 184.011 1.40122ZM174.456 15.3768C170.271 26.1761 170.368 26.1786 163.833 19.785C158.643 14.6905 158.452 14.2963 160.115 12.9748C161.973 11.6581 170.255 8.45721 174.535 7.49302C177.551 6.78938 177.544 7.47069 174.456 15.3768Z" fill="#3A3A3A"/>
</g>
<defs>
<clipPath id="clip0_539_943">
<rect width="372" height="248" fill="white"/>
</clipPath>
</defs>
</svg>
