<svg width="50" height="26" viewBox="0 0 50 26" fill="none" xmlns="http://www.w3.org/2000/svg">
<path d="M8.14168 0.212891L13.5868 18.3948H13.7942L19.2393 0.212891H27.381L18.617 26H8.76398L0 0.212891H8.14168Z" fill="#3A3A3A"/>
<path d="M43.0069 8.20275C42.9403 7.38411 42.6281 6.74558 42.0703 6.28714C41.5208 5.8287 40.6842 5.59948 39.5603 5.59948C38.8443 5.59948 38.2574 5.68544 37.7996 5.85735C37.35 6.02108 37.017 6.24621 36.8006 6.53273C36.5841 6.81925 36.4717 7.14671 36.4634 7.5151C36.4467 7.81799 36.5009 8.09224 36.6257 8.33783C36.7589 8.57523 36.9671 8.79217 37.2501 8.98864C37.5332 9.17693 37.8953 9.34885 38.3365 9.50439C38.7777 9.65993 39.3022 9.7991 39.91 9.92189L42.0079 10.364C43.4231 10.6587 44.6344 11.0475 45.6417 11.5305C46.649 12.0135 47.4732 12.5825 48.1142 13.2374C48.7553 13.8841 49.2256 14.6127 49.5253 15.4231C49.8334 16.2336 49.9915 17.1177 49.9999 18.0755C49.9915 19.7292 49.5711 21.129 48.7386 22.2751C47.9061 23.4212 46.7156 24.2931 45.1672 24.8907C43.6271 25.4883 41.7748 25.7871 39.6103 25.7871C37.3875 25.7871 35.4477 25.4637 33.7911 24.817C32.1427 24.1703 30.8607 23.1756 29.9449 21.8331C29.0375 20.4823 28.5796 18.755 28.5713 16.6511H35.1647C35.2063 17.4206 35.402 18.0673 35.7516 18.5913C36.1013 19.1152 36.5924 19.5122 37.2251 19.7824C37.8662 20.0525 38.6279 20.1876 39.5104 20.1876C40.2513 20.1876 40.8715 20.0976 41.371 19.9175C41.8705 19.7374 42.2493 19.4877 42.5074 19.1684C42.7654 18.8491 42.8986 18.4848 42.907 18.0755C42.8986 17.6908 42.7696 17.3551 42.5198 17.0686C42.2784 16.7739 41.8788 16.5119 41.321 16.2827C40.7633 16.0453 40.0099 15.8243 39.0608 15.6196L36.5133 15.0793C34.2489 14.5963 32.4632 13.79 31.1562 12.6602C29.8575 11.5223 29.2123 9.97101 29.2206 8.00628C29.2123 6.40994 29.6452 5.01416 30.5193 3.81895C31.4018 2.61555 32.6214 1.67821 34.1782 1.00692C35.7433 0.335641 37.5373 0 39.5603 0C41.6249 0 43.4106 0.339735 44.9174 1.0192C46.4243 1.69867 47.5856 2.65648 48.4015 3.89262C49.2256 5.12058 49.6419 6.55729 49.6502 8.20275H43.0069Z" fill="#3A3A3A"/>
</svg>
