<svg width="160" height="230" viewBox="0 0 160 230" fill="none" xmlns="http://www.w3.org/2000/svg">
<g clip-path="url(#clip0_479_935)">
<path d="M63.0024 1.93325C54.9521 3.39992 33.2162 13.6666 29.4594 17.5332L26.9102 20.4666L52.9395 46.3333L79.103 72.3333L86.6166 64.8666L94.2644 57.3999L89.4342 51.1333C80.1763 39.1333 71.8577 16.8666 71.7235 3.93325C71.7235 1.93325 71.321 0.466582 70.7843 0.466582C70.1135 0.599915 66.7592 1.13325 63.0024 1.93325ZM64.6124 17.9332C66.7592 27.9332 71.0527 38.5999 76.4195 47.5333C80.9814 54.9999 82.1889 58.9999 80.0422 58.9999C79.5055 58.9999 70.3818 50.3333 59.7822 39.7999L40.4615 20.5999L46.3651 17.6666C51.4636 14.9999 60.4531 11.3999 62.3315 11.1332C62.734 10.9999 63.8074 14.1999 64.6124 17.9332Z" fill="#E7362E"/>
<path d="M82.457 5.26671C82.457 16.2 90.5073 36.6 98.021 45.4L101.912 49.8L117.208 34.6L132.369 19.4L122.574 13.2667C111.706 6.60005 100.436 2.46671 89.5681 1.00005L82.457 0.0667129V5.26671ZM109.291 16.2C113.317 18.0667 116.671 20.3334 116.671 21C116.671 21.8 113.451 25.2667 109.56 29C102.717 35.2667 102.18 35.5334 100.436 33C98.6918 30.7334 94.935 21.5334 92.5199 13.8C91.5807 10.7334 91.7149 10.7334 96.6792 11.5334C99.631 12.0667 105.266 14.2 109.291 16.2Z" fill="#E7362E"/>
<path d="M16.4446 30.6001C9.73598 38.2001 0.612305 60.2001 0.612305 68.6001C0.612305 71.9334 1.14899 72.3334 5.03997 72.3334C17.6521 72.4667 39.6563 80.7334 50.7925 89.5334C53.6101 91.8001 56.4278 93.6667 56.8303 93.6667C57.367 93.6667 60.8554 90.4667 64.7464 86.6001L71.7233 79.6667L45.8282 53.9334C31.606 39.9334 19.6647 28.3334 19.2622 28.3334C18.8597 28.3334 17.5179 29.4001 16.4446 30.6001ZM40.193 60.3334C54.1468 74.3334 58.5745 79.2667 57.367 80.4667C56.1594 81.6667 54.8177 81.2667 51.8659 79.1334C44.4865 74.0667 28.9225 67.2667 19.933 65.5334C11.0777 63.8001 11.0777 63.8001 11.8827 59.8001C12.9561 54.4667 18.9938 41.6667 20.3356 41.6667C21.0064 41.6667 29.8617 50.0667 40.193 60.3334Z" fill="#E7362E"/>
<path d="M123.514 42.8666L108.889 57.3999L114.793 61.6666C126.868 70.3333 142.835 76.3333 154.239 76.3333H159.204L158.399 69.9333C156.923 58.8666 151.958 45.3999 146.323 37.1332C143.237 32.7332 140.151 28.9999 139.48 28.7332C138.675 28.4666 131.564 34.8666 123.514 42.8666ZM143.237 50.3333C145.116 53.9333 147.128 59.2666 147.531 62.1999C148.47 67.1333 148.47 67.2666 145.384 66.3333C138.139 64.0666 129.015 60.3333 125.929 58.3333L122.575 56.1999L130.357 48.9999C134.65 45.1333 138.541 42.1999 139.078 42.7333C139.614 43.2666 141.493 46.5999 143.237 50.3333Z" fill="#E7362E"/>
<path d="M93.4594 72.7333L86.4824 79.6667L112.378 105.4C126.6 119.4 138.541 131 139.078 131C139.614 131 142.432 127.533 145.25 123.267C151.019 114.733 155.983 102.867 157.459 93.5333L158.398 87.5333L148.201 85.9333C135.321 84.0667 121.904 78.8667 111.036 71.4C106.34 68.2 102.046 65.6667 101.51 65.6667C100.973 65.6667 97.3503 68.8667 93.4594 72.7333ZM116.134 84.7333C123.111 88.2 133.04 92.0667 138.273 93.2667L147.799 95.5333L146.591 100.2C145.786 102.867 143.774 107.933 141.895 111.533L138.541 118.067L119.354 99C108.755 88.4667 100.436 79.2667 100.705 78.7333C101.644 77.2667 100.57 76.8667 116.134 84.7333Z" fill="#E7362E"/>
<path d="M1.81997 82.7333C-4.62027 84.0666 7.32101 119.267 17.5181 129.667C19.2623 131.4 21.2749 129.8 34.5579 116.6L49.5851 101.533L46.2308 99C34.4237 89.6666 10.407 80.8666 1.81997 82.7333ZM21.409 95.6666C36.4363 101.267 36.4363 101.133 27.8493 110.2C21.0065 117.4 20.4698 117.667 18.5914 115.4C16.713 112.867 12.017 101.533 10.5411 95.6666C9.46776 91.5333 10.407 91.5333 21.409 95.6666Z" fill="#E7362E"/>
<path d="M71.7234 94.3333L64.6123 101.533L70.2475 109.533C79.5054 122.867 86.3481 141.4 86.4823 153.533V158.067L92.9225 157.267C96.411 156.867 102.717 155.267 106.876 153.667C114.793 150.733 130.759 141.133 130.759 139.267C130.759 138.467 85.5431 92.8666 79.237 87.4C79.1029 87.2666 75.7486 90.3333 71.7234 94.3333ZM99.2286 119.133C117.073 136.867 117.878 137.933 115.463 139.8C112.512 141.933 99.3628 147 96.6794 147C95.606 147 94.3984 144.2 93.4592 139.933C91.4467 130.2 87.2873 119.533 81.7863 110.467C77.627 103.4 76.8219 100.333 79.5054 100.333C80.0421 100.333 88.8974 108.733 99.2286 119.133Z" fill="#E7362E"/>
<path d="M41.5348 124.333L26.7759 139.133L30.1302 141.8C40.7297 150.067 58.0379 157.133 69.7108 157.8L76.4194 158.2L75.8827 152.467C75.3461 144.6 72.2601 133.4 68.9058 126.6C65.149 119.533 58.4404 109.667 57.2329 109.667C56.6962 109.667 49.5851 116.333 41.5348 124.333ZM60.7213 131.267C63.0023 135.933 65.149 141.667 65.6857 144.2C66.6249 148.6 66.4907 148.733 63.1364 147.8C57.0987 146.333 45.6941 141.667 43.1448 139.8C40.8639 138.067 41.1323 137.4 47.8408 130.6C51.7318 126.6 55.3545 123.267 55.8911 123.133C56.4278 123.133 58.5746 126.733 60.7213 131.267Z" fill="#E7362E"/>
<path d="M126.751 184.641C126.471 185.344 124.696 190.213 122.114 197.353C121.522 198.971 120.881 200.703 120.684 201.193C120.486 201.683 120.19 202.5 120.026 202.99C119.862 203.48 119.434 204.689 119.072 205.686C118.711 206.666 117.889 208.954 117.247 210.751C116.59 212.549 115.965 214.28 115.833 214.591C115.702 214.901 115.291 216.045 114.913 217.124C114.518 218.202 114.189 219.117 114.173 219.133C114.156 219.166 113.318 219.313 112.315 219.46L110.49 219.705V223.774V227.826H119.779H129.069L129.036 223.774L128.987 219.738L127.704 219.509C126.882 219.378 126.438 219.231 126.488 219.101C126.521 219.003 126.701 218.496 126.866 217.973L127.162 217.042L134.791 217.074L142.436 217.124L142.749 218.153C142.93 218.725 143.045 219.231 142.995 219.264C142.946 219.313 142.387 219.444 141.746 219.542L140.578 219.721V223.774V227.826H149.786H158.993V223.741C158.993 221.339 158.928 219.656 158.845 219.656C158.599 219.656 156.149 219.329 155.754 219.248C155.508 219.182 155.31 218.904 155.064 218.235C154.176 215.735 150.789 206.34 150.181 204.706C150.049 204.346 149.753 203.529 149.539 202.908C149.326 202.271 148.947 201.242 148.717 200.621C148.471 199.984 148.224 199.297 148.142 199.069C148.076 198.84 147.747 197.925 147.402 197.026C146.695 195.066 146.136 193.562 145.511 191.798C145.248 191.079 144.722 189.641 144.36 188.612C143.982 187.582 143.472 186.161 143.242 185.474L142.798 184.2H134.857H126.932L126.751 184.641ZM136.863 200.458C137.931 203.693 138.901 206.617 139.033 206.944L139.263 207.565H134.807C131.338 207.565 130.368 207.516 130.417 207.353C130.713 206.176 134.758 194.379 134.84 194.461C134.89 194.526 135.794 197.222 136.863 200.458Z" fill="black"/>
<path d="M0 188.432V192.5L2.38408 192.941L4.76816 193.383V203.791C4.76816 211.911 4.81749 214.509 4.99835 215.653C5.70535 220.081 7.90857 223.528 11.5916 225.947C13.729 227.335 15.6692 228.12 18.6616 228.822C20.536 229.247 25.9618 229.443 28.1979 229.149C36.1723 228.103 41.9269 223.741 43.5711 217.483C44.1302 215.343 44.2288 213.48 44.2288 203.284V193.383L44.6892 193.285C44.9358 193.236 46.0045 193.04 47.0733 192.843L48.997 192.5V188.432V184.363H38.0631H27.1292V188.416V192.468L28.7405 192.762C29.6119 192.925 30.6807 193.138 31.1246 193.219L31.8974 193.383V203.889C31.8974 213.3 31.8645 214.477 31.6178 215.261C30.9437 217.385 29.5462 218.643 27.1785 219.248C26.0605 219.542 23.2489 219.574 21.9993 219.313C20.1578 218.921 18.4479 217.744 17.7573 216.388C16.9681 214.836 16.9352 214.329 16.9352 203.529V193.383L19.4015 192.925L21.8678 192.468V188.416V184.363H10.9339H0V188.432Z" fill="black"/>
<path d="M60.0132 188.252V192.174L61.5423 192.435C62.3644 192.582 63.4495 192.778 63.9264 192.876L64.7813 193.039V206.258V219.46L63.6797 219.64C63.0549 219.754 62.0027 219.917 61.3285 220.032L60.0954 220.244L60.0461 224.117L60.0132 227.989H72.9859C81.3384 227.989 86.5833 227.924 87.6685 227.809C93.8836 227.139 98.5038 224.541 100.444 220.604C101.48 218.512 101.693 217.499 101.693 214.754C101.677 212.597 101.644 212.271 101.233 211.094C100.723 209.656 99.6876 207.974 98.6846 206.977C98.0598 206.356 96.7445 205.392 96.3005 205.229C96.1854 205.179 96.5143 204.755 97.024 204.281C98.1749 203.202 99.0463 201.863 99.6054 200.31C99.9835 199.297 100.033 198.889 100.033 197.026C100.049 194.559 99.8027 193.432 98.8655 191.553C97.435 188.71 94.1302 186.422 89.8553 185.344C86.534 184.494 86.0736 184.478 72.6406 184.412L60.0132 184.347V188.252ZM84.6596 194.102C86.0736 194.412 87.1588 195.082 87.5205 195.85C88.1782 197.222 88.0138 198.954 87.1259 199.869C86.0079 201.046 84.561 201.356 80.2039 201.356H76.9484V197.598V193.84H80.2532C82.6373 193.84 83.854 193.905 84.6596 194.102ZM86.9944 210.441C88.6386 210.931 89.6087 212.467 89.6087 214.591C89.5922 216.454 88.803 217.565 87.0437 218.218C86.1559 218.561 85.7284 218.594 81.5192 218.643L76.9484 218.708V214.444V210.179H81.5192C85.2516 210.179 86.2545 210.228 86.9944 210.441Z" fill="black"/>
</g>
<defs>
<clipPath id="clip0_479_935">
<rect width="160" height="230" fill="white"/>
</clipPath>
</defs>
</svg>
