<svg width="800" height="301" viewBox="0 0 800 301" fill="none" xmlns="http://www.w3.org/2000/svg">
<path d="M684.442 246.323H657.864V300.023H560.795V135.749H678.087C719.303 135.749 749.926 140.069 769.956 148.711C789.986 157.352 800.001 171.549 800.001 191.3C800.001 211.052 790.564 225.16 771.689 233.626C752.815 242.091 723.732 246.323 684.442 246.323ZM695.42 210.611C698.887 207.613 700.621 202.234 700.621 194.475C700.621 186.715 698.695 181.248 694.843 178.074C690.991 174.899 683.287 173.312 671.731 173.312H657.864V215.108H674.042C684.828 215.108 691.954 213.609 695.42 210.611Z" fill="white"/>
<path d="M550.869 135.749L496.918 300.023H361.27L303.723 135.749H400.834L428.58 243.413H437.315L458.382 135.749H550.869Z" fill="white"/>
<path d="M293.797 300.023H217.806V214.315H213.45L184.893 300.023H106.967L79.8623 214.315H75.0222V300.023H0L10.1643 135.749H119.067L146.172 224.631H150.044L176.181 135.749H283.632L293.797 300.023Z" fill="white"/>
<rect x="151.862" y="0.0229492" width="496.278" height="120.394" rx="60.1972" fill="#2C2C2C"/>
<rect x="524.691" y="0.0229492" width="123.449" height="120.394" rx="60.1972" fill="#FF6A13"/>
<path d="M399.528 37.6989C399.528 39.5007 398.05 40.9538 396.232 40.9538H391.16C389.342 40.9538 387.872 39.4965 387.872 37.6989V33.8131C387.872 32.0113 389.346 30.5541 391.16 30.5541H396.232C398.05 30.5541 399.528 32.0154 399.528 33.8131V37.6989Z" fill="white"/>
<path d="M374.291 33.9447C374.291 32.1429 373.009 30.6857 371.191 30.6857H365.931C364.1 30.6857 362.635 32.147 362.635 33.9447V86.1379C362.635 87.94 364.1 89.3969 365.931 89.3969H371.003C372.82 89.3969 374.291 87.94 374.291 86.1379V33.9447Z" fill="white"/>
<path d="M473.078 62.1182C473.359 59.3241 474.381 57.2027 476.127 55.7581C477.899 54.2967 479.984 53.5826 482.376 53.5826C483.892 53.5826 485.174 53.8277 486.246 54.334C487.293 54.8325 488.173 55.5048 488.872 56.3435C489.563 57.1822 490.087 58.0996 490.434 59.1167C490.769 60.1091 490.937 61.1135 490.937 62.1182H473.078ZM502.56 65.1738C502.363 58.826 500.566 53.89 497.178 50.39C493.58 46.6539 488.726 44.7896 482.64 44.7896C478.841 44.7896 475.562 45.4413 472.793 46.7699C470.029 48.0944 467.746 49.8506 465.949 52.0052C464.165 54.1598 462.862 56.63 462.017 59.4241C461.192 62.2178 460.769 65.0824 460.769 68.0052C460.769 71.8164 461.288 75.1294 462.348 77.9149C463.415 80.709 464.919 83.0173 466.871 84.8399C468.835 86.6707 471.227 88.0197 474.05 88.904C476.864 89.7886 480.01 90.2284 483.486 90.2284C485.869 90.2284 488.319 89.946 490.803 89.3565C491.62 89.17 492.378 88.9458 493.123 88.6924C493.45 88.6051 493.915 88.4473 494.573 88.1612C498.061 86.7371 500.466 84.7694 500.466 84.7694C501.802 83.9598 502.199 82.2159 501.391 80.9041L499.163 77.3795C498.338 76.0674 496.579 75.8185 495.251 76.6281C495.251 76.6281 491.042 79.3181 488.659 80.0404C487.356 80.4393 485.601 80.8459 483.809 80.8459C476.944 80.8459 473.225 77.4542 472.668 70.6497L499.389 70.6624C501.161 70.6624 502.518 69.2715 502.585 67.5031V65.56C502.585 65.4354 502.577 65.3148 502.564 65.1697L502.56 65.1738Z" fill="white"/>
<path d="M451.76 56.3601C451.492 54.064 450.608 51.9759 449.171 50.0955C447.768 48.3766 446.109 47.0604 444.166 46.1556C442.239 45.2378 439.835 44.7856 436.925 44.7856C433.905 44.7856 431.299 45.4374 429.092 46.741C426.885 48.0319 425.193 49.5433 424.02 51.2576V50.2529V48.5882C424.02 46.8447 422.583 45.4288 420.825 45.4288H415.895C414.123 45.4288 412.699 46.8447 412.699 48.5882V86.2802C412.699 88.0736 414.157 89.5145 415.962 89.5145H420.996C422.793 89.5145 424.263 88.0695 424.263 86.2802C424.263 86.2802 424.272 66.2448 424.305 64.9662C424.326 63.6876 424.481 62.5582 424.762 61.5621C424.942 60.8894 425.21 60.1712 425.599 59.3866C425.989 58.6143 426.546 57.8879 427.283 57.1902C428.007 56.5052 428.895 55.9239 429.968 55.4467C431.027 54.9692 432.309 54.749 433.825 54.749C435.27 54.749 436.518 54.961 437.557 55.4008C438.583 55.8411 439.354 56.6134 439.865 57.7301C440.363 58.8467 440.61 60.6152 440.61 63.044V86.2761C440.61 88.0695 442.068 89.51 443.873 89.51H448.907C450.704 89.51 452.17 88.0654 452.17 86.2761V84.8438V62.8657C452.17 60.8103 452.023 58.6475 451.747 56.3601H451.76Z" fill="white"/>
<path d="M199.136 38.4005C198.747 37.1883 198.546 36.1546 198.546 35.3326C198.546 33.892 198.948 32.9247 200.129 32.1317C201.063 31.4882 202.969 31.6003 204.933 31.5546C208.297 31.4758 209.653 31.3637 210.792 34.3362C210.792 34.3362 219.639 69.799 219.885 71.0694C220.145 72.3352 220.346 73.3982 220.51 74.216C220.69 73.2777 220.878 72.2483 221.1 71.1563C221.326 70.0437 229.849 46.4046 229.849 46.4046C230.298 44.6238 231.42 43.756 232.71 43.2166C233.066 43.0587 233.489 42.8718 234.005 42.8718H238.608C239.411 42.8718 240.191 42.8304 240.752 43.1374C242.092 43.7355 243.127 44.794 243.571 46.5624C243.571 46.5624 252.663 70.2307 252.907 71.3514C253.162 72.489 253.33 73.4191 253.451 74.1332C253.564 73.4728 253.719 72.6218 253.954 71.5592C254.167 70.4008 263.344 34.3321 263.344 34.3321C264.6 31.3969 265.731 31.7248 269.203 31.7248C271.163 31.7248 272.244 31.538 273.358 32.1898C274.677 32.962 274.988 34.0788 274.988 35.4073C274.988 35.8598 274.945 36.3456 274.862 36.906C274.774 37.4582 274.619 38.0435 274.393 38.6413L260.567 85.5043C260.11 86.9489 259.252 87.8126 258.05 88.3107C257.606 88.4849 257.124 88.5845 256.693 88.5845C255.373 88.5845 250.519 88.5927 250.519 88.5927C249.518 88.5927 249.062 88.5058 248.425 88.2402C247.068 87.522 246.373 86.5422 245.983 85.1595C245.983 85.1595 236.915 58.0581 236.848 57.5601C236.789 57.9999 227.466 85.4129 227.466 85.4129C227.018 86.9571 226.197 87.7085 224.903 88.2734C224.488 88.4394 224.011 88.4976 223.722 88.4976C222.407 88.4976 217.1 88.5058 217.1 88.5058C216.485 88.5058 215.785 88.2607 215.429 88.0865C214.215 87.4929 213.49 86.4713 213.046 85.0931L199.128 38.4005H199.136Z" fill="white"/>
<path d="M296.457 37.6989C296.457 39.5007 294.987 40.9538 293.156 40.9538H288.089C286.271 40.9538 284.801 39.4965 284.801 37.6989V33.8131C284.801 32.0113 286.271 30.5541 288.089 30.5541H293.156C294.987 30.5541 296.457 32.0154 296.457 33.8131V37.6989Z" fill="white"/>
<path d="M348.897 56.3601C348.616 54.064 347.749 51.9759 346.3 50.0955C344.909 48.3766 343.238 47.0604 341.312 46.1556C339.385 45.2378 336.964 44.7856 334.057 44.7856C331.037 44.7856 328.432 45.4374 326.225 46.741C324.018 48.0319 322.326 49.5433 321.153 51.2576V50.2529V48.5882C321.153 46.8447 319.729 45.4288 317.957 45.4288H313.032C311.269 45.4288 309.836 46.8447 309.836 48.5882V86.2802C309.836 88.0736 311.306 89.5145 313.099 89.5145H318.133C319.943 89.5145 321.396 88.0695 321.396 86.2802V68.2042C321.396 67.32 321.404 66.2448 321.442 64.9662C321.475 63.6876 321.63 62.5582 321.898 61.5621C322.074 60.8894 322.343 60.1712 322.732 59.3866C323.121 58.6143 323.691 57.8879 324.412 57.1902C325.136 56.5052 326.024 55.9239 327.096 55.4467C328.164 54.9692 329.446 54.749 330.954 54.749C332.411 54.749 333.647 54.961 334.685 55.4008C335.707 55.8411 336.486 56.6134 336.993 57.7301C337.496 58.8467 337.739 60.6152 337.739 63.044V86.2761C337.739 88.0695 339.213 89.51 341.014 89.51H346.04C347.845 89.51 349.303 88.0654 349.303 86.2761V62.8657C349.303 60.8103 349.156 58.6475 348.888 56.3601H348.897Z" fill="white"/>
<path d="M293.16 45.6074H288.092C286.275 45.6074 284.804 47.0729 284.804 48.8746L284.691 86.1058C284.691 87.9243 286.182 89.3939 288.009 89.3939H293.135C294.965 89.3939 296.456 87.9243 296.456 86.1058V48.8746C296.456 47.0729 294.982 45.6074 293.156 45.6074H293.16Z" fill="white"/>
<path d="M396.289 45.6074H391.217C389.399 45.6074 387.917 47.0729 387.917 48.8746L387.82 86.1058C387.82 87.9243 389.312 89.3939 391.142 89.3939H396.268C398.094 89.3939 399.585 87.9243 399.585 86.1058V48.8746C399.585 47.0729 398.107 45.6074 396.289 45.6074Z" fill="white"/>
<path fill-rule="evenodd" clip-rule="evenodd" d="M587.706 120.269H212.296C179.061 120.269 151.862 93.2255 151.862 60.1583C151.862 27.0787 179.061 0.0229492 212.296 0.0229492H587.706C620.94 0.0229492 648.14 27.0828 648.14 60.1583C648.14 93.2255 620.94 120.269 587.706 120.269ZM524.827 60.1501C524.827 41.3187 532.973 24.679 546.213 13.2041C546.971 12.5399 546.43 11.6266 545.898 11.6266H212.296C185.365 11.6266 163.527 33.3517 163.527 60.1542C163.527 86.9609 185.365 108.682 212.296 108.682H545.676C546.221 108.682 547.025 107.831 545.99 106.946C533.011 95.4965 524.831 78.7737 524.831 60.1542L524.827 60.1501ZM636.49 60.1501C636.49 86.9568 614.65 108.677 587.71 108.677C560.767 108.677 538.929 86.9523 538.929 60.1501C538.929 33.3475 560.767 11.6224 587.71 11.6224C614.65 11.6224 636.49 33.3475 636.49 60.1501Z" fill="white"/>
</svg>
