<svg width="808" height="467" viewBox="0 0 808 467" fill="none" xmlns="http://www.w3.org/2000/svg">
<path d="M48.0656 359.274C38.9027 326.789 39.786 292.301 50.5994 260.346L53.1304 252.866C62.9813 223.755 79.6596 197.429 101.772 176.089L124.008 154.629C142.501 136.782 163.836 122.135 187.14 111.287L246.48 83.664C249.147 82.4227 252.053 81.7789 254.995 81.7777C275.832 81.769 283.066 109.476 264.875 119.62L250.509 127.631L202.879 162.791C181.262 178.748 162.586 198.342 147.686 220.698L127.559 250.896C121.237 260.38 115.882 270.476 111.575 281.03L103.647 300.454C97.5718 315.34 95.5059 331.561 97.6552 347.501C100.518 368.733 110.699 388.307 126.443 402.851L131.222 407.265C144.735 419.749 161.158 428.652 178.991 433.162L201.658 438.895C215.168 441.707 214.48 461.223 200.807 463.054L172.873 466.795C171.029 467.042 169.157 466.986 167.33 466.629L150.486 463.339C116.494 456.7 86.9438 435.865 69.2699 406.078L63.7515 396.778C57.2888 385.886 52.2751 374.198 48.8376 362.011L48.0656 359.274Z" fill="#FF6A13"/>
<path d="M691.241 259.591H664.398V313.987H566.365V147.584H684.822C726.447 147.584 757.374 151.961 777.603 160.714C797.832 169.467 807.947 183.848 807.947 203.856C807.947 223.863 798.416 238.154 779.354 246.729C760.292 255.304 730.921 259.591 691.241 259.591ZM702.328 223.417C705.829 220.38 707.579 214.931 707.579 207.071C707.579 199.211 705.634 193.673 701.744 190.458C697.854 187.242 690.073 185.634 678.403 185.634H664.398V227.972H680.737C691.63 227.972 698.826 226.453 702.328 223.417Z" fill="white"/>
<path d="M750.198 124.512C779.914 167.559 771.78 225.509 731.502 257.701L694.896 286.957L638.783 328.889C627.413 337.385 615.259 344.805 602.476 351.055L501.494 400.423C501.094 400.619 500.667 400.756 500.227 400.831C494.937 401.731 492.374 394.519 497.106 392.051L593.4 341.818L669.396 291.298L707.817 259.76C719.122 250.481 728.451 239.059 735.275 226.14L738.789 219.489C741.819 213.753 743.935 207.573 745.063 201.166L746.029 195.68C748.086 183.991 745.764 171.886 739.5 161.639C734.376 153.257 726.875 146.546 717.958 142.366L670.622 120.178L628.565 105.19C625.006 103.922 621.339 102.99 617.614 102.407L585.943 97.4479C574.552 95.6642 566.105 85.7973 566.187 74.3689C566.275 62.0444 576.205 52.1859 588.607 52.1087L595.474 52.066C619.329 51.9178 642.978 57.3522 664.511 67.9297L711.106 90.8193C726.805 98.5313 740.279 110.144 750.198 124.512Z" fill="#FF6A13"/>
<path d="M556.341 147.584L501.854 313.987H364.858L306.739 147.584H404.815L432.837 256.644H441.659L462.935 147.584H556.341Z" fill="white"/>
<path d="M296.715 313.987H219.97V227.168H215.57L186.73 313.987H108.03L80.6556 227.168H75.7674V313.987H0L10.2653 147.584H120.25L147.624 237.618H151.535L177.931 147.584H286.45L296.715 313.987Z" fill="white"/>
<path d="M444.61 433.928C442.899 434.544 441.145 435.011 439.372 435.322L262.996 466.311C259.556 466.915 256.157 465.983 253.781 463.784C246.658 457.193 252.648 444.887 262.961 444.924L303.928 445.07L356.115 438.832L411.109 429.669L443.306 419.948C445.28 419.352 447.152 418.411 448.822 417.175L456.245 411.683C461.362 407.897 468.411 409.585 470.345 415.06C471.99 419.715 469.145 425.099 464.076 426.923L444.61 433.928Z" fill="#FF6A13"/>
<path d="M153.37 60.9773C153.37 27.3004 180.67 0 214.347 0H593.6C627.277 0 654.578 27.3004 654.578 60.9773C654.578 94.6541 627.277 121.955 593.6 121.955H214.347C180.67 121.955 153.37 94.6541 153.37 60.9773Z" fill="#2C2C2C"/>
<path d="M529.902 60.9773C529.902 27.3004 557.203 0 590.879 0H593.6C627.277 0 654.578 27.3004 654.578 60.9773C654.578 94.6541 627.277 121.955 593.6 121.955H590.879C557.203 121.955 529.902 94.6541 529.902 60.9773Z" fill="#FF6A13"/>
<path d="M403.497 38.1642C403.497 39.9893 402.004 41.4612 400.168 41.4612H395.045C393.209 41.4612 391.725 39.9851 391.725 38.1642V34.228C391.725 32.4029 393.214 30.9268 395.045 30.9268H400.168C402.004 30.9268 403.497 32.4071 403.497 34.228V38.1642Z" fill="white"/>
<path d="M378.008 34.3613C378.008 32.5362 376.714 31.0601 374.878 31.0601H369.565C367.717 31.0601 366.236 32.5404 366.236 34.3613V87.2309C366.236 89.0563 367.717 90.5321 369.565 90.5321H374.688C376.523 90.5321 378.008 89.0563 378.008 87.2309V34.3613Z" fill="white"/>
<path d="M477.776 62.8999C478.06 60.0696 479.092 57.9207 480.855 56.4574C482.645 54.977 484.751 54.2537 487.167 54.2537C488.698 54.2537 489.992 54.502 491.075 55.0148C492.133 55.5197 493.021 56.2007 493.727 57.0503C494.425 57.8999 494.954 58.8292 495.305 59.8595C495.643 60.8648 495.813 61.8821 495.813 62.8999H477.776ZM507.551 65.9951C507.352 59.565 505.537 54.5651 502.115 51.0197C498.482 47.2352 493.579 45.3467 487.433 45.3467C483.597 45.3467 480.285 46.0069 477.489 47.3527C474.697 48.6944 472.391 50.4733 470.577 52.6558C468.775 54.8383 467.459 57.3406 466.605 60.1709C465.772 63.0008 465.344 65.9025 465.344 68.8632C465.344 72.7237 465.869 76.0797 466.939 78.9013C468.017 81.7316 469.536 84.0698 471.507 85.916C473.491 87.7705 475.907 89.1371 478.758 90.0328C481.6 90.9288 484.777 91.3744 488.288 91.3744C490.694 91.3744 493.169 91.0883 495.677 90.4912C496.502 90.3022 497.268 90.0751 498.021 89.8185C498.351 89.73 498.82 89.5702 499.484 89.2803C503.008 87.8378 505.436 85.8446 505.436 85.8446C506.785 85.0245 507.187 83.258 506.371 81.9293L504.12 78.359C503.287 77.0298 501.51 76.7777 500.17 77.5979C500.17 77.5979 495.918 80.3227 493.511 81.0543C492.196 81.4584 490.424 81.8703 488.613 81.8703C481.68 81.8703 477.924 78.4346 477.362 71.5419L504.349 71.5548C506.138 71.5548 507.508 70.1459 507.576 68.3545V66.3863C507.576 66.26 507.568 66.1379 507.555 65.991L507.551 65.9951Z" fill="white"/>
<path d="M456.246 57.0672C455.975 54.7414 455.083 52.6262 453.632 50.7214C452.215 48.9803 450.54 47.647 448.577 46.7305C446.631 45.8008 444.203 45.3428 441.264 45.3428C438.214 45.3428 435.583 46.003 433.353 47.3235C431.124 48.6311 429.416 50.1621 428.231 51.8986V49.1946C428.231 47.4285 426.78 45.9943 425.004 45.9943H420.025C418.236 45.9943 416.798 47.4285 416.798 49.1946V87.375C416.798 89.1917 418.27 90.6513 420.093 90.6513H425.177C426.992 90.6513 428.476 89.1876 428.476 87.375C428.476 87.375 428.485 67.08 428.519 65.7848C428.54 64.4897 428.696 63.3457 428.98 62.3366C429.162 61.6552 429.432 60.9277 429.826 60.1329C430.219 59.3506 430.782 58.6148 431.526 57.9081C432.258 57.2142 433.155 56.6254 434.238 56.142C435.308 55.6583 436.602 55.4353 438.133 55.4353C439.593 55.4353 440.853 55.65 441.902 56.0955C442.939 56.5415 443.717 57.3238 444.233 58.4549C444.736 59.5861 444.986 61.3774 444.986 63.8377V87.3709C444.986 89.1876 446.458 90.6467 448.281 90.6467H453.365C455.18 90.6467 456.661 89.1834 456.661 87.3709V63.6571C456.661 61.5751 456.513 59.3843 456.234 57.0672H456.246Z" fill="white"/>
<path d="M201.114 38.8749C200.721 37.6469 200.518 36.5998 200.518 35.7671C200.518 34.3079 200.924 33.328 202.117 32.5248C203.06 31.873 204.984 31.9865 206.968 31.9403C210.365 31.8604 211.736 31.7468 212.886 34.7579C212.886 34.7579 221.82 70.6802 222.069 71.967C222.332 73.2493 222.535 74.326 222.7 75.1545C222.882 74.204 223.072 73.1613 223.296 72.0551C223.524 70.9281 232.132 46.9826 232.132 46.9826C232.585 45.1788 233.719 44.2997 235.021 43.7533C235.381 43.5934 235.808 43.4041 236.329 43.4041H240.977C241.789 43.4041 242.576 43.3621 243.143 43.6731C244.497 44.279 245.541 45.3511 245.99 47.1425C245.99 47.1425 255.173 71.1175 255.418 72.2527C255.677 73.405 255.846 74.3472 255.968 75.0706C256.083 74.4016 256.239 73.5396 256.476 72.4633C256.691 71.2898 265.959 34.7537 265.959 34.7537C267.229 31.7805 268.37 32.1127 271.877 32.1127C273.857 32.1127 274.948 31.9234 276.073 32.5837C277.406 33.3659 277.719 34.4971 277.719 35.8428C277.719 36.3012 277.676 36.7933 277.592 37.361C277.503 37.9203 277.346 38.5132 277.118 39.1188L263.155 86.589C262.694 88.0523 261.827 88.9273 260.613 89.4318C260.164 89.6083 259.678 89.7092 259.242 89.7092C257.91 89.7092 253.007 89.7175 253.007 89.7175C251.996 89.7175 251.535 89.6294 250.893 89.3604C249.522 88.6329 248.82 87.6404 248.426 86.2398C248.426 86.2398 239.268 58.7872 239.201 58.2827C239.141 58.7282 229.726 86.4964 229.726 86.4964C229.273 88.0607 228.444 88.8218 227.137 89.394C226.718 89.5622 226.236 89.6211 225.944 89.6211C224.616 89.6211 219.256 89.6294 219.256 89.6294C218.635 89.6294 217.928 89.3811 217.569 89.2047C216.342 88.6034 215.61 87.5686 215.162 86.1725L201.106 38.8749H201.114Z" fill="white"/>
<path d="M299.401 38.1642C299.401 39.9893 297.916 41.4612 296.068 41.4612H290.95C289.114 41.4612 287.629 39.9851 287.629 38.1642V34.228C287.629 32.4029 289.114 30.9268 290.95 30.9268H296.068C297.916 30.9268 299.401 32.4071 299.401 34.228V38.1642Z" fill="white"/>
<path d="M352.361 57.0672C352.078 54.7414 351.202 52.6262 349.739 50.7214C348.334 48.9803 346.646 47.647 344.701 46.7305C342.755 45.8008 340.31 45.3428 337.374 45.3428C334.325 45.3428 331.694 46.003 329.465 47.3235C327.235 48.6311 325.526 50.1621 324.342 51.8986V49.1946C324.342 47.4285 322.904 45.9943 321.114 45.9943H316.14C314.359 45.9943 312.913 47.4285 312.913 49.1946V87.375C312.913 89.1917 314.397 90.6513 316.208 90.6513H321.292C323.12 90.6513 324.587 89.1876 324.587 87.375V69.0648C324.587 68.1692 324.596 67.08 324.634 65.7848C324.668 64.4897 324.824 63.3457 325.095 62.3366C325.272 61.6552 325.543 60.9277 325.936 60.1329C326.33 59.3506 326.906 58.6148 327.633 57.9081C328.365 57.2142 329.262 56.6254 330.344 56.142C331.423 55.6583 332.717 55.4353 334.24 55.4353C335.712 55.4353 336.96 55.65 338.009 56.0955C339.041 56.5415 339.828 57.3238 340.34 58.4549C340.847 59.5861 341.093 61.3774 341.093 63.8377V87.3709C341.093 89.1876 342.582 90.6467 344.401 90.6467H349.477C351.3 90.6467 352.772 89.1834 352.772 87.3709V63.6571C352.772 61.5751 352.623 59.3843 352.353 57.0672H352.361Z" fill="white"/>
<path d="M296.072 46.1753H290.953C289.117 46.1753 287.632 47.6598 287.632 49.4848L287.518 87.1985C287.518 89.0405 289.024 90.5292 290.869 90.5292H296.046C297.894 90.5292 299.4 89.0405 299.4 87.1985V49.4848C299.4 47.6598 297.911 46.1753 296.067 46.1753H296.072Z" fill="white"/>
<path d="M400.225 46.1753H395.103C393.266 46.1753 391.769 47.6598 391.769 49.4848L391.672 87.1985C391.672 89.0405 393.178 90.5292 395.026 90.5292H400.204C402.048 90.5292 403.554 89.0405 403.554 87.1985V49.4848C403.554 47.6598 402.061 46.1753 400.225 46.1753Z" fill="white"/>
<path fill-rule="evenodd" clip-rule="evenodd" d="M593.543 121.804H214.404C180.839 121.804 153.37 94.4103 153.37 60.9146C153.37 27.4063 180.839 0 214.404 0H593.543C627.107 0 654.578 27.4105 654.578 60.9146C654.578 94.4103 627.107 121.804 593.543 121.804ZM530.039 60.9063C530.039 41.8309 538.267 24.9756 551.638 13.352C552.403 12.6791 551.857 11.754 551.32 11.754H214.404C187.205 11.754 165.15 33.7606 165.15 60.9105C165.15 88.0645 187.205 110.067 214.404 110.067H551.096C551.646 110.067 552.458 109.205 551.413 108.309C538.305 96.7107 530.044 79.7713 530.044 60.9105L530.039 60.9063ZM642.812 60.9063C642.812 88.0604 620.755 110.062 593.547 110.062C566.336 110.062 544.281 88.0558 544.281 60.9063C544.281 33.7564 566.336 11.7498 593.547 11.7498C620.755 11.7498 642.812 33.7564 642.812 60.9063Z" fill="white"/>
</svg>
