<svg id="Layer_1" data-name="Layer 1" xmlns="http://www.w3.org/2000/svg" viewBox="0 0 85.04 41.68"><defs><style>.cls-1{fill:#fff;}</style></defs><title>Playground_logo_white</title><polygon class="cls-1" points="83.52 40.16 43.3 40.16 43.3 31.05 41.78 31.05 41.78 40.16 1.55 40.16 1.55 33.57 0.03 33.57 0.03 41.67 85.04 41.67 85.04 28.75 83.52 28.75 83.52 40.16"/><polygon class="cls-1" points="0.03 0 0.03 12.93 1.55 12.93 1.55 1.52 41.78 1.52 41.78 10.43 43.3 10.43 43.3 1.52 83.52 1.52 83.52 8.11 85.04 8.11 85.04 0 0.03 0"/><path class="cls-1" d="M66.13,21v9.28a1.06,1.06,0,0,0,1.06,1.06h3.27a1.06,1.06,0,0,0,1.06-1.06V21H70v8.82H67.65V21Z" transform="translate(-5 -5.32)"/><path class="cls-1" d="M62,31.34A1.06,1.06,0,0,0,63,30.28V22.06A1.06,1.06,0,0,0,62,21H58.61a1.06,1.06,0,0,0-1.06,1.06v8.21a1.06,1.06,0,0,0,1.06,1.06Zm-2.92-1.52v-7.3h2.47v7.3Z" transform="translate(-5 -5.32)"/><path class="cls-1" d="M31.68,21v4.83a1.06,1.06,0,0,0,1.06,1.06h1v4.39h1.52V26.89h1a1.06,1.06,0,0,0,1.06-1.06V21H35.88v4.37H33.19V21Z" transform="translate(-5 -5.32)"/><path class="cls-1" d="M28.7,31.34V22.06A1.06,1.06,0,0,0,27.64,21H24A1.06,1.06,0,0,0,23,22.06v9.28H24.5V26.89h2.68v4.45Zm-1.52-8.82v2.86H24.5V22.52Z" transform="translate(-5 -5.32)"/><path class="cls-1" d="M46,23.9V22.06A1.06,1.06,0,0,0,44.9,21H41.34a1.06,1.06,0,0,0-1.06,1.06v8.21a1.06,1.06,0,0,0,1.06,1.06H44.9A1.06,1.06,0,0,0,46,30.28v-3.8a1.06,1.06,0,0,0-1.06-1.06H42.77v1.52h1.68v2.89H41.8v-7.3h2.65V23.9Z" transform="translate(-5 -5.32)"/><path class="cls-1" d="M14.83,21v9.28a1.06,1.06,0,0,0,1.06,1.06h3.7a1.06,1.06,0,0,0,1.06-1.06V28.44H19.13v1.38H16.34V21Z" transform="translate(-5 -5.32)"/><path class="cls-1" d="M54.62,25.87V22.06A1.06,1.06,0,0,0,53.56,21H49.23V31.34h1.52v-4.4h.56L53,31.34h1.65l-1.75-4.4h.61A1.06,1.06,0,0,0,54.62,25.87ZM53.1,22.52v2.9H50.74v-2.9Z" transform="translate(-5 -5.32)"/><path class="cls-1" d="M76.08,21H74.61V31.34h1.52v-6L76,24l.54,1.63,2.08,5.1a1.06,1.06,0,0,0,1,.66h.75V21H78.81v6.53l.16.9-.55-1.69Z" transform="translate(-5 -5.32)"/><path class="cls-1" d="M7.53,20.88H6.06A1.06,1.06,0,0,0,5,21.93V35.64H6.52V31.47h1a5.3,5.3,0,0,0,.05-10.59ZM7.48,30h-1V22.39h1a3.78,3.78,0,0,1,0,7.56Z" transform="translate(-5 -5.32)"/><path class="cls-1" d="M87.66,31.46H89A1.06,1.06,0,0,0,90,30.41V16.7H88.52v4.17h-.8a5.3,5.3,0,0,0-.05,10.59Zm.05-9.07h.8V30h-.8a3.78,3.78,0,0,1,0-7.56Z" transform="translate(-5 -5.32)"/></svg>