<svg width="65" height="95" viewBox="0 0 65 95" fill="none" xmlns="http://www.w3.org/2000/svg">
<g clip-path="url(#clip0_485_1004)">
<path d="M51.1735 75.2022C51.0536 75.5243 50.2921 77.7566 49.1851 81.03C48.9313 81.7715 48.6563 82.5655 48.5717 82.7903C48.4871 83.015 48.3602 83.3895 48.2897 83.6142C48.2192 83.839 48.0359 84.3933 47.8807 84.8502C47.7256 85.2996 47.3731 86.3483 47.0981 87.1723C46.8161 87.9963 46.5481 88.7903 46.4917 88.9326C46.4353 89.0749 46.259 89.5993 46.0969 90.0936C45.9277 90.588 45.7866 91.0075 45.7796 91.015C45.7725 91.03 45.4129 91.0974 44.9828 91.1648L44.2002 91.2772V93.1423V95H48.1839H52.1677L52.1536 93.1423L52.1324 91.2921L51.5824 91.1873C51.2299 91.1273 51.0395 91.0599 51.0607 91C51.0748 90.9551 51.1523 90.7228 51.2228 90.4831L51.3498 90.0562L54.6213 90.0712L57.9 90.0936L58.034 90.5655C58.1115 90.8277 58.1609 91.0599 58.1397 91.0749C58.1186 91.0974 57.8788 91.1573 57.6039 91.2022L57.1032 91.2846V93.1423V95H61.0517H65.0002V93.1273C65.0002 92.0262 64.972 91.2547 64.9367 91.2547C64.831 91.2547 63.7804 91.1049 63.6112 91.0674C63.5054 91.0375 63.4208 90.9101 63.315 90.603C62.9343 89.4569 61.4818 85.1498 61.2209 84.4007C61.1645 84.236 61.0376 83.8614 60.946 83.5768C60.8543 83.2846 60.6921 82.8127 60.5934 82.5281C60.4877 82.236 60.3819 81.9213 60.3466 81.8165C60.3184 81.7116 60.1774 81.2921 60.0293 80.8801C59.7262 79.9813 59.4864 79.2921 59.2185 78.4831C59.1057 78.1536 58.8801 77.4944 58.7249 77.0225C58.5628 76.5506 58.3442 75.8989 58.2455 75.5843L58.0551 75H54.6496H51.251L51.1735 75.2022ZM55.5098 82.4532C55.9681 83.9363 56.3841 85.2772 56.4405 85.427L56.5392 85.7116H54.6284C53.1407 85.7116 52.7247 85.6891 52.7458 85.6142C52.8727 85.0749 54.6072 79.6667 54.6425 79.7041C54.6637 79.7341 55.0514 80.97 55.5098 82.4532Z" fill="#3A3A3A"/>
<path d="M0 76.8112V78.6224L1.01208 78.8187L2.02416 79.0151V83.6485C2.02416 87.2636 2.0451 88.4202 2.12188 88.9293C2.42201 90.9005 3.35732 92.4353 4.92081 93.5118C5.82819 94.1301 6.65181 94.4792 7.92215 94.792C8.71785 94.9811 11.0212 95.0684 11.9705 94.9375C15.3557 94.472 17.7987 92.5299 18.4966 89.744C18.734 88.7911 18.7758 87.9619 18.7758 83.4231V79.0151L18.9713 78.9715C19.076 78.9497 19.5297 78.8624 19.9834 78.7751L20.8 78.6224V76.8112V75H16.1584H11.5168V76.8039V78.6078L12.2008 78.7387C12.5707 78.8115 13.0244 78.906 13.2129 78.9424L13.5409 79.0151V83.6922C13.5409 87.8819 13.527 88.4056 13.4223 88.7548C13.1361 89.7004 12.5428 90.2604 11.5377 90.5296C11.0631 90.6605 9.86953 90.675 9.33906 90.5587C8.55732 90.3841 7.83141 89.8604 7.53825 89.2566C7.20322 88.5656 7.18926 88.3402 7.18926 83.5322V79.0151L8.23624 78.8115L9.28322 78.6078V76.8039V75H4.64161H0V76.8112Z" fill="#3A3A3A"/>
<path d="M23.3999 76.7896V78.5867L24.1153 78.7065C24.4999 78.7739 25.0076 78.8637 25.2307 78.9086L25.6307 78.9835V85.0412V91.0914L25.1153 91.1737C24.823 91.2261 24.3307 91.301 24.0153 91.3534L23.4384 91.4508L23.4153 93.2254L23.3999 95H29.4691C33.3768 95 35.8307 94.97 36.3384 94.9176C39.2461 94.6106 41.4076 93.4201 42.3153 91.6155C42.7999 90.6571 42.8999 90.1928 42.8999 88.9349C42.8922 87.9465 42.8768 87.7967 42.6845 87.2576C42.4461 86.5987 41.9614 85.8274 41.4922 85.3706C41.1999 85.0861 40.5845 84.6443 40.3768 84.5694C40.323 84.547 40.4768 84.3523 40.7153 84.1352C41.2537 83.641 41.6614 83.027 41.923 82.3156C42.0999 81.8514 42.123 81.6642 42.123 80.8106C42.1307 79.6799 42.0153 79.1632 41.5768 78.3021C40.9076 76.9993 39.3614 75.951 37.3614 75.4568C35.8076 75.0674 35.5922 75.0599 29.3076 75.03L23.3999 75V76.7896ZM34.9307 79.4702C35.5922 79.6125 36.0999 79.9195 36.2691 80.2714C36.5768 80.9004 36.4999 81.6941 36.0845 82.1134C35.5614 82.6526 34.8845 82.7948 32.8461 82.7948H31.323V81.0726V79.3504H32.8691C33.9845 79.3504 34.5537 79.3804 34.9307 79.4702ZM36.023 86.9581C36.7922 87.1827 37.2461 87.8866 37.2461 88.86C37.2384 89.7136 36.8691 90.2228 36.0461 90.5223C35.6307 90.6795 35.4307 90.6945 33.4614 90.717L31.323 90.7469V88.7926V86.8383H33.4614C35.2076 86.8383 35.6768 86.8607 36.023 86.9581Z" fill="#3A3A3A"/>
</g>
<path d="M11.626 57.6793C14.744 60.5071 23.8122 64.4724 27.289 64.5586C28.6687 64.5927 28.8365 64.3768 28.8526 62.7819C28.9599 57.6135 32.4726 48.6788 36.161 44.2042C37.1109 43.0725 37.8952 41.9367 37.8968 41.7717C37.8991 41.5517 36.589 40.089 35.0046 38.4544L32.1638 35.5235L21.4054 45.8741C15.5519 51.5603 10.7012 56.3361 10.6995 56.5011C10.6978 56.6661 11.1338 57.227 11.626 57.6793ZM24.0311 48.2496C29.8835 42.6734 31.9438 40.9091 32.4355 41.4164C32.9272 41.9237 32.7561 42.4695 31.8609 43.6576C29.7332 46.6305 26.8542 52.9405 26.0996 56.6075C25.3455 60.2196 25.3455 60.2196 23.6932 59.8486C21.4902 59.3539 16.2172 56.7478 16.2227 56.1978C16.2255 55.9228 19.7389 52.3791 24.0311 48.2496Z" fill="#F9D110"/>
<path d="M33.144 64.2082C33.6692 66.8618 48.2881 62.3279 52.6349 58.2548C53.3596 57.5576 52.7056 56.7162 47.297 51.1361L41.123 44.822L40.0606 46.1709C36.1486 50.915 32.4069 60.6693 33.144 64.2082ZM38.5782 56.3112C40.9582 50.209 40.9031 50.2076 44.6203 53.8204C47.5721 56.6991 47.6803 56.9218 46.7343 57.6685C45.678 58.4125 40.9676 60.2212 38.5332 60.766C36.818 61.1636 36.8219 60.7786 38.5782 56.3112Z" fill="#F9D110"/>
<path d="M58.474 12.5849C61.2004 15.7896 64.8597 24.9614 64.8247 28.4278C64.8109 29.8034 64.5885 29.963 62.9889 29.9234C57.8031 29.85 48.7223 33.0373 44.1072 36.5555C42.9394 37.4622 41.7732 38.2038 41.6078 38.1997C41.3871 38.1942 39.9662 36.8382 38.3827 35.2028L35.5432 32.2706L46.2965 21.9148C52.2019 16.2822 57.1596 11.6167 57.325 11.6208C57.4905 11.6249 58.0377 12.0788 58.474 12.5849ZM48.5866 24.6133C42.7915 30.2486 40.9506 32.2394 41.4421 32.7469C41.9335 33.2544 42.4868 33.103 43.7092 32.2527C46.7642 30.237 53.1913 27.5893 56.8943 26.9655C60.5421 26.3404 60.5422 26.3404 60.2278 24.6815C59.8088 22.4696 57.3798 17.1259 56.8282 17.1122C56.5524 17.1054 52.8768 20.4817 48.5866 24.6133Z" fill="#F9D110"/>
<path d="M64.2692 34.2481C66.9113 34.8639 61.8554 49.2685 57.6198 53.4565C56.8955 54.154 56.0747 53.4732 50.6687 47.8906L44.5534 41.52L45.943 40.5087C50.8361 36.7773 60.7466 33.3903 64.2692 34.2481ZM56.1617 39.3859C49.9604 41.5438 49.9609 41.4888 53.4535 45.3178C56.2367 48.3588 56.4562 48.4743 57.2379 47.558C58.0207 46.5317 59.9986 41.9026 60.6298 39.4966C61.0883 37.8018 60.7022 37.7922 56.1617 39.3859Z" fill="#F9D110"/>
<path d="M6.52602 52.4153C3.79961 49.2107 0.14027 40.0389 0.175257 36.5724C0.18914 35.1968 0.411451 35.0372 2.01113 35.0768C7.19685 35.1503 16.2777 31.9629 20.8928 28.4448C22.0606 27.5381 23.2268 26.7964 23.3922 26.8005C23.6129 26.806 25.0338 28.1621 26.6173 29.7974L29.4568 32.7297L18.7035 43.0855C12.7981 48.7181 7.84045 53.3835 7.67496 53.3794C7.50948 53.3753 6.96231 52.9215 6.52602 52.4153ZM16.4134 40.387C22.2085 34.7516 24.0494 32.7608 23.5579 32.2533C23.0665 31.7458 22.5132 31.8972 21.2907 32.7475C18.2358 34.7633 11.8087 37.411 8.10571 38.0347C4.45785 38.6598 4.45785 38.6598 4.77215 40.3187C5.19123 42.5306 7.62017 47.8743 8.17179 47.888C8.44759 47.8948 12.1232 44.5185 16.4134 40.387Z" fill="#F9D110"/>
<path d="M0.730839 30.7521C-1.91135 30.1363 3.14462 15.7317 7.38019 11.5438C8.10451 10.8462 8.92527 11.527 14.3313 17.1096L20.4466 23.4803L19.057 24.4916C14.1639 28.223 4.25339 31.6099 0.730839 30.7521ZM8.83826 25.6144C15.0396 23.4564 15.0391 23.5115 11.5465 19.6824C8.76329 16.6415 8.54376 16.5259 7.76206 17.4422C6.97925 18.4685 5.0014 23.0977 4.37019 25.5037C3.91169 27.1985 4.29782 27.2081 8.83826 25.6144Z" fill="#F9D110"/>
<path d="M53.3739 7.32074C50.256 4.49295 41.1878 0.527572 37.711 0.441446C36.3313 0.40727 36.1635 0.623158 36.1474 2.21808C36.04 7.38645 32.5274 16.3212 28.8389 20.7958C27.8891 21.9275 27.1048 23.0633 27.1031 23.2283C27.1009 23.4483 28.411 24.911 29.9953 26.5456L32.8362 29.4765L43.5945 19.1259C49.4481 13.4397 54.2988 8.66391 54.3005 8.49892C54.3021 8.33393 53.8662 7.77302 53.3739 7.32074ZM40.9689 16.7504C35.1164 22.3266 33.0562 24.0909 32.5645 23.5836C32.0728 23.0763 32.2439 22.5305 33.1391 21.3424C35.2668 18.3695 38.1457 12.0595 38.9004 8.39249C39.6544 4.78045 39.6544 4.78044 41.3067 5.15144C43.5098 5.6461 48.7828 8.25222 48.7773 8.80219C48.7745 9.07718 45.261 12.6209 40.9689 16.7504Z" fill="#F9D110"/>
<path d="M31.856 0.791771C31.3308 -1.86177 16.7119 2.67208 12.3651 6.74524C11.6404 7.44243 12.2943 8.28379 17.7029 13.8639L23.877 20.178L24.9394 18.8291C28.8514 14.085 32.5931 4.33073 31.856 0.791771ZM26.4218 8.68876C24.0417 14.791 24.0969 14.7924 20.3797 11.1796C17.4279 8.30094 17.3197 8.07822 18.2657 7.33149C19.322 6.58751 24.0324 4.7788 26.4667 4.23399C28.182 3.83639 28.1781 4.22137 26.4218 8.68876Z" fill="#F9D110"/>
<defs>
<clipPath id="clip0_485_1004">
<rect width="65" height="20" fill="white" transform="translate(0 75)"/>
</clipPath>
</defs>
</svg>
