<svg width="220" height="51" viewBox="0 0 220 51" fill="none" xmlns="http://www.w3.org/2000/svg">
<g clip-path="url(#clip0_491_1005)">
<path d="M185.235 0.50844C184.934 1.31828 183.019 6.9307 180.236 15.161C179.598 17.0255 178.907 19.0219 178.694 19.5869C178.481 20.1519 178.162 21.0936 177.985 21.6586C177.808 22.2236 177.347 23.6173 176.957 24.7661C176.567 25.8961 175.68 28.5328 174.989 30.6045C174.28 32.6762 173.606 34.6726 173.464 35.0304C173.322 35.3883 172.879 36.7066 172.471 37.9496C172.046 39.1927 171.691 40.2473 171.674 40.2662C171.656 40.3038 170.752 40.4733 169.67 40.6428L167.703 40.9253V45.6149V50.2856H177.719H187.735L187.7 45.6149L187.646 40.963L186.264 40.6993C185.377 40.5487 184.899 40.3792 184.952 40.2285C184.987 40.1155 185.182 39.5317 185.36 38.929L185.679 37.8555L193.904 37.8931L202.148 37.9496L202.485 39.1362C202.68 39.7953 202.804 40.3792 202.751 40.4168C202.697 40.4733 202.095 40.624 201.403 40.737L200.145 40.9442V45.6149V50.2856H210.072H220V45.5772C220 42.8087 219.929 40.8688 219.84 40.8688C219.574 40.8688 216.933 40.4922 216.507 40.398C216.241 40.3227 216.029 40.0025 215.763 39.2303C214.806 36.3488 211.154 25.5195 210.498 23.6361C210.356 23.2218 210.037 22.2801 209.806 21.5644C209.576 20.8299 209.168 19.6434 208.92 18.9277C208.654 18.1932 208.388 17.4022 208.299 17.1385C208.228 16.8748 207.874 15.8202 207.502 14.7843C206.739 12.5243 206.137 10.7916 205.463 8.75756C205.179 7.92888 204.612 6.27152 204.222 5.085C203.814 3.89849 203.265 2.25996 203.017 1.46895L202.538 -6.74278e-05H193.975H185.43L185.235 0.50844ZM196.138 18.7394C197.29 22.4684 198.336 25.8396 198.478 26.2163L198.726 26.932H193.922C190.182 26.932 189.136 26.8755 189.189 26.6871C189.508 25.3311 193.869 11.7333 193.958 11.8274C194.011 11.9028 194.986 15.0103 196.138 18.7394Z" fill="white"/>
<path d="M56.5713 4.55375V9.10756L59.1159 9.60135L61.6606 10.0951V21.7449C61.6606 30.8342 61.7133 33.7421 61.9063 35.0222C62.6609 39.9784 65.0125 43.8373 68.9436 46.5439C71.225 48.0985 73.2958 48.9763 76.4898 49.7627C78.4905 50.2382 84.2818 50.4577 86.6685 50.1285C95.1799 48.958 101.322 44.075 103.077 37.0705C103.674 34.6748 103.779 32.5899 103.779 21.1779V10.0951L104.27 9.98541C104.534 9.93054 105.674 9.71108 106.815 9.49162L108.868 9.10756V4.55375V-6.61883e-05H97.1981H85.5278V4.53546V9.07099L87.2476 9.40018C88.1777 9.58306 89.3184 9.82081 89.7923 9.91225L90.6171 10.0951V21.8546C90.6171 32.3887 90.582 33.7055 90.3187 34.5833C89.5992 36.9608 88.1075 38.369 85.5804 39.0457C84.3871 39.3749 81.3861 39.4115 80.0524 39.1188C78.0868 38.6799 76.2617 37.3632 75.5246 35.8452C74.6822 34.1078 74.6471 33.5409 74.6471 21.4522V10.0951L77.2796 9.58306L79.912 9.07099V4.53546V-6.61883e-05H68.2416H56.5713V4.55375Z" fill="white"/>
<path d="M115.406 4.49948V9.01785L117.204 9.31907C118.171 9.48851 119.448 9.71443 120.009 9.82739L121.015 10.0157V25.2463V40.4582L119.719 40.6653C118.984 40.7971 117.746 40.9853 116.953 41.1171L115.502 41.3619L115.444 45.8238L115.406 50.2856H130.666C140.491 50.2856 146.66 50.2103 147.937 50.0786C155.248 49.3067 160.682 46.3132 162.964 41.776C164.183 39.3662 164.434 38.199 164.434 35.0361C164.415 32.551 164.376 32.1745 163.893 30.819C163.293 29.1623 162.075 27.2231 160.895 26.0747C160.16 25.3593 158.613 24.2485 158.091 24.0603C157.955 24.0038 158.342 23.5143 158.942 22.9683C160.295 21.7258 161.32 20.182 161.978 18.3935C162.423 17.2262 162.481 16.7556 162.481 14.6093C162.5 11.7665 162.21 10.4675 161.108 8.30244C159.425 5.02662 155.538 2.3909 150.509 1.14835C146.602 0.169369 146.061 0.150542 130.259 0.075236L115.406 -7.01789e-05V4.49948ZM144.397 11.2394C146.061 11.5971 147.337 12.369 147.763 13.2538C148.536 14.8353 148.343 16.8309 147.299 17.8852C145.983 19.2407 144.281 19.5984 139.156 19.5984H135.327V15.2683V10.9382H139.214C142.019 10.9382 143.45 11.0135 144.397 11.2394ZM147.144 30.0659C149.078 30.6307 150.219 32.4004 150.219 34.8479C150.2 36.9941 149.271 38.2743 147.202 39.0274C146.157 39.4227 145.655 39.4604 140.703 39.5169L135.327 39.5922V34.6784V29.7647H140.703C145.094 29.7647 146.273 29.8212 147.144 30.0659Z" fill="white"/>
</g>
<path d="M8.99421 44.6222C11.4063 46.8099 18.4217 49.8776 21.1115 49.9442C22.1788 49.9707 22.3087 49.8036 22.3211 48.5698C22.4042 44.5714 25.1217 37.6592 27.9751 34.1976C28.71 33.322 29.3167 32.4433 29.318 32.3157C29.3197 32.1455 28.3062 31.0139 27.0805 29.7494L24.8827 27.4819L16.5598 35.4894C12.0314 39.8884 8.27871 43.5831 8.27742 43.7107C8.27613 43.8384 8.6134 44.2723 8.99421 44.6222ZM18.5911 37.3272C23.1187 33.0133 24.7126 31.6484 25.0929 32.0408C25.4733 32.4333 25.341 32.8556 24.6484 33.7747C23.0024 36.0746 20.7751 40.9561 20.1913 43.7931C19.608 46.5874 19.608 46.5874 18.3297 46.3004C16.6254 45.9178 12.546 43.9016 12.5503 43.4761C12.5525 43.2634 15.2706 40.5219 18.5911 37.3272Z" fill="#FECF00"/>
<path d="M25.641 49.6732C26.0474 51.726 37.357 48.2185 40.7198 45.0674C41.2804 44.5281 40.7745 43.8772 36.5902 39.5603L31.8138 34.6755L30.9919 35.7191C27.9655 39.3892 25.0708 46.9354 25.641 49.6732ZM29.8451 43.5639C31.6864 38.843 31.6437 38.8419 34.5194 41.6369C36.803 43.8639 36.8867 44.0362 36.1549 44.6139C35.3377 45.1895 31.6936 46.5887 29.8103 47.0102C28.4834 47.3178 28.4864 47.02 29.8451 43.5639Z" fill="#FECF00"/>
<path d="M45.237 9.73603C47.3462 12.2152 50.1772 19.3108 50.1501 21.9925C50.1394 23.0567 49.9674 23.1802 48.7299 23.1495C44.718 23.0927 37.6928 25.5586 34.1225 28.2803C33.2191 28.9817 32.3169 29.5555 32.1889 29.5523C32.0182 29.5481 30.9189 28.499 29.6938 27.2339L27.4971 24.9654L35.8162 16.9539C40.3848 12.5963 44.2201 8.98701 44.3482 8.99018C44.4762 8.99335 44.8995 9.34446 45.237 9.73603ZM37.5879 19.0415C33.1046 23.4011 31.6805 24.9413 32.0607 25.3339C32.4409 25.7265 32.8689 25.6094 33.8146 24.9516C36.178 23.3921 41.1502 21.3438 44.0149 20.8612C46.837 20.3776 46.837 20.3776 46.5939 19.0943C46.2696 17.3831 44.3905 13.2491 43.9638 13.2385C43.7504 13.2332 40.9069 15.8452 37.5879 19.0415Z" fill="#FECF00"/>
<path d="M49.7203 26.4952C51.7644 26.9717 47.853 38.1154 44.5762 41.3553C44.0159 41.895 43.3809 41.3683 39.1987 37.0495L34.4677 32.1209L35.5427 31.3386C39.3281 28.4519 46.9952 25.8316 49.7203 26.4952ZM43.4482 30.47C38.6506 32.1394 38.6511 32.0968 41.353 35.0591C43.5062 37.4116 43.676 37.501 44.2808 36.7922C44.8864 35.9982 46.4165 32.4169 46.9048 30.5556C47.2595 29.2444 46.9608 29.237 43.4482 30.47Z" fill="#FECF00"/>
<path d="M5.0487 40.5499C2.93948 38.0707 0.108516 30.9751 0.135583 28.2934C0.146324 27.2292 0.31831 27.1057 1.55586 27.1364C5.56767 27.1932 12.5929 24.7274 16.1632 22.0056C17.0667 21.3042 17.9688 20.7304 18.0969 20.7336C18.2676 20.7378 19.3668 21.7869 20.5919 23.0521L22.7886 25.3205L14.4695 33.3321C9.90096 37.6896 6.06558 41.2989 5.93755 41.2957C5.80953 41.2926 5.38623 40.9414 5.0487 40.5499ZM12.6978 31.2444C17.1811 26.8848 18.6052 25.3446 18.225 24.952C17.8448 24.5594 17.4168 24.6765 16.4711 25.3344C14.1077 26.8938 9.13555 28.9421 6.27079 29.4247C3.44871 29.9083 3.44871 29.9083 3.69186 31.1916C4.01607 32.9028 5.89517 37.0369 6.32191 37.0474C6.53528 37.0527 9.37885 34.4407 12.6978 31.2444Z" fill="#FECF00"/>
<path d="M0.565397 23.7907C-1.47867 23.3143 2.43276 12.1705 5.70951 8.93057C6.26986 8.39093 6.90482 8.9176 11.087 13.2364L15.818 18.165L14.743 18.9473C10.9576 21.834 3.29053 24.4543 0.565397 23.7907ZM6.83751 19.816C11.6351 18.1465 11.6346 18.1891 8.9327 15.2268C6.77952 12.8743 6.60968 12.7849 6.00494 13.4938C5.39933 14.2877 3.86922 17.869 3.3809 19.7303C3.02618 21.0415 3.3249 21.0489 6.83751 19.816Z" fill="#FECF00"/>
<path d="M41.2915 5.66352C38.8794 3.47587 31.864 0.408143 29.1742 0.341515C28.1068 0.315074 27.977 0.482091 27.9646 1.71596C27.8815 5.71435 25.164 12.6265 22.3106 16.0882C21.5757 16.9637 20.969 17.8424 20.9677 17.97C20.966 18.1402 21.9795 19.2718 23.2052 20.5364L25.403 22.8038L33.7259 14.7963C38.2543 10.3973 42.007 6.70263 42.0083 6.57499C42.0096 6.44735 41.6723 6.01341 41.2915 5.66352ZM31.6946 12.9585C27.167 17.2724 25.5731 18.6374 25.1927 18.2449C24.8124 17.8525 24.9447 17.4302 25.6373 16.511C27.2833 14.2111 29.5105 9.32958 30.0943 6.49265C30.6777 3.69828 30.6777 3.69828 31.956 3.98529C33.6603 4.36797 37.7397 6.38413 37.7354 6.80961C37.7332 7.02234 35.0151 9.76384 31.6946 12.9585Z" fill="#FECF00"/>
<path d="M24.6447 0.612535C24.2383 -1.44031 12.9287 2.06719 9.56593 5.2183C9.00532 5.75766 9.51121 6.40856 13.6955 10.7255L18.4718 15.6103L19.2938 14.5667C22.3202 10.8965 25.2149 3.35037 24.6447 0.612535ZM20.4406 6.72186C18.5993 11.4427 18.642 11.4438 15.7663 8.64885C13.4827 6.42183 13.399 6.24952 14.1308 5.67184C14.948 5.09627 18.5921 3.69701 20.4754 3.27552C21.8023 2.96793 21.7993 3.26576 20.4406 6.72186Z" fill="#FECF00"/>
<defs>
<clipPath id="clip0_491_1005">
<rect width="163.429" height="50.2857" fill="white" transform="translate(56.5713)"/>
</clipPath>
</defs>
</svg>
