<svg width="440" height="100" viewBox="0 0 440 100" fill="none" xmlns="http://www.w3.org/2000/svg">
<g clip-path="url(#clip0_790_1005)">
<mask id="mask0_790_1005" style="mask-type:alpha" maskUnits="userSpaceOnUse" x="0" y="0" width="440" height="100">
<path d="M440 0H0V100H440V0Z" fill="white"/>
</mask>
<g mask="url(#mask0_790_1005)">
<path d="M370.47 0.997073C369.868 2.585 366.038 13.5897 360.472 29.7276C359.196 33.3835 357.814 37.298 357.388 38.4059C356.962 39.5137 356.324 41.3602 355.97 42.468C355.616 43.5759 354.694 46.3086 353.914 48.5612C353.134 50.7769 351.36 55.9469 349.978 60.009C348.56 64.0712 347.212 67.9857 346.928 68.6873C346.644 69.389 345.758 71.9739 344.942 74.4112C344.092 76.8486 343.382 78.9165 343.348 78.9535C343.312 79.0273 341.504 79.3596 339.34 79.692L335.406 80.2459V89.4412V98.5994H355.438H375.47L375.4 89.4412L375.292 80.3198L372.528 79.8028C370.754 79.5075 369.798 79.1751 369.904 78.8796C369.974 78.658 370.364 77.5133 370.72 76.3316L371.358 74.2267L387.808 74.3004L404.296 74.4112L404.97 76.7378C405.36 78.0302 405.608 79.1751 405.502 79.2488C405.394 79.3596 404.19 79.6551 402.806 79.8767L400.29 80.2829V89.4412V98.5994H420.144H440V89.3673C440 83.9388 439.858 80.1351 439.68 80.1351C439.148 80.1351 433.866 79.3967 433.014 79.212C432.482 79.0643 432.058 78.4365 431.526 76.9224C429.612 71.2724 422.308 50.0384 420.996 46.3455C420.712 45.5331 420.074 43.6867 419.612 42.2833C419.152 40.8431 418.336 38.5167 417.84 37.1133C417.308 35.6731 416.776 34.1222 416.598 33.6051C416.456 33.088 415.748 31.0202 415.004 28.989C413.478 24.5576 412.274 21.1602 410.926 17.1718C410.358 15.547 409.224 12.2972 408.444 9.97073C407.628 7.64424 406.53 4.43143 406.034 2.88043L405.076 0H387.95H370.86L370.47 0.997073ZM392.276 36.7441C394.58 44.0559 396.672 50.6661 396.956 51.4047L397.452 52.808H387.844C380.364 52.808 378.272 52.6973 378.378 52.3278C379.016 49.669 387.738 23.0067 387.916 23.1912C388.022 23.339 389.972 29.4322 392.276 36.7441Z" fill="#3A3A3A"/>
<path d="M113.143 8.92906V17.8581L118.232 18.8263L123.321 19.7945V42.6373C123.321 60.4594 123.427 66.1612 123.813 68.6712C125.322 78.3892 130.025 85.9557 137.887 91.2627C142.45 94.311 146.592 96.0322 152.98 97.5741C156.981 98.5065 168.564 98.9369 173.337 98.2914C190.36 95.9963 202.644 86.4218 206.154 72.6874C207.348 67.99 207.558 63.902 207.558 41.5255V19.7945L208.54 19.5794C209.068 19.4718 211.348 19.0415 213.63 18.6112L217.736 17.8581V8.92906V0H194.396H171.056V8.8932V17.7864L174.495 18.4319C176.355 18.7905 178.637 19.2566 179.585 19.4359L181.234 19.7945V42.8524C181.234 63.5075 181.164 66.0894 180.637 67.8106C179.198 72.4724 176.215 75.2335 171.161 76.5604C168.774 77.2059 162.772 77.2776 160.105 76.7037C156.174 75.8431 152.523 73.2614 151.049 70.2849C149.364 66.8782 149.294 65.7667 149.294 42.0633V19.7945L154.559 18.7905L159.824 17.7864V8.8932V0H136.483H113.143V8.92906Z" fill="#3A3A3A"/>
<path d="M230.812 8.82265V17.6822L234.408 18.2728C236.342 18.6051 238.896 19.048 240.018 19.2695L242.03 19.6388V49.5027V79.33L239.438 79.7361C237.968 79.9945 235.492 80.3635 233.906 80.622L231.004 81.102L230.888 89.8508L230.812 98.5994H261.332C280.982 98.5994 293.32 98.4518 295.874 98.1935C310.496 96.68 321.364 90.8104 325.928 81.9139C328.366 77.1888 328.868 74.9002 328.868 68.6984C328.83 63.8257 328.752 63.0875 327.786 60.4296C326.586 57.1812 324.15 53.3788 321.79 51.1271C320.32 49.7243 317.226 47.5463 316.182 47.1773C315.91 47.0665 316.684 46.1067 317.884 45.0361C320.59 42.5998 322.64 39.5727 323.956 36.0659C324.846 33.7771 324.962 32.8543 324.962 28.6459C325 23.0718 324.42 20.5247 322.216 16.2794C318.85 9.85626 311.076 4.68818 301.018 2.2518C293.204 0.332233 292.122 0.295318 260.518 0.147659L230.812 0V8.82265ZM288.794 22.0382C292.122 22.7396 294.674 24.2531 295.526 25.988C297.072 29.089 296.686 33.002 294.598 35.0692C291.966 37.7271 288.562 38.4284 278.312 38.4284H270.654V29.938V21.4476H278.428C284.038 21.4476 286.9 21.5953 288.794 22.0382ZM294.288 58.9529C298.156 60.0604 300.438 63.5304 300.438 68.3294C300.4 72.5377 298.542 75.0478 294.404 76.5245C292.314 77.2996 291.31 77.3735 281.406 77.4843L270.654 77.632V67.9971V58.3624H281.406C290.188 58.3624 292.546 58.4731 294.288 58.9529Z" fill="#3A3A3A"/>
<path d="M17.9883 87.4934C22.8124 91.783 36.8432 97.7981 42.2228 97.9287C44.3574 97.9807 44.6172 97.6531 44.642 95.2338C44.8082 87.3938 50.2432 73.8405 55.95 67.0531C57.4198 65.3362 58.6332 63.6132 58.6358 63.3631C58.6392 63.0293 56.6122 60.8105 54.1608 58.3311L49.7652 53.885L33.1194 69.586C24.0626 78.2115 16.5573 85.456 16.5547 85.7062C16.5521 85.9566 17.2267 86.8074 17.9883 87.4934ZM37.182 73.1895C46.2372 64.7309 49.425 62.0546 50.1856 62.824C50.9464 63.5936 50.6818 64.4217 49.2966 66.2238C46.0046 70.7334 41.55 80.305 40.3824 85.8678C39.2158 91.3468 39.2158 91.3468 36.6592 90.784C33.2506 90.0338 25.0918 86.0805 25.1004 85.2462C25.1048 84.8291 30.541 79.4536 37.182 73.1895Z" fill="#3A3A3A"/>
<path d="M51.2824 97.399C52.0952 101.424 74.7144 94.5466 81.44 88.368C82.5612 87.3105 81.5494 86.0342 73.1808 77.5697L63.628 67.9917L61.9842 70.038C55.9314 77.2342 50.142 92.0307 51.2824 97.399ZM59.6906 85.4199C63.3732 76.1633 63.2878 76.1611 69.0392 81.6415C73.6064 86.0082 73.7738 86.346 72.3102 87.4788C70.6758 88.6074 63.3876 91.3509 59.621 92.1774C56.9672 92.7805 56.9732 92.1966 59.6906 85.4199Z" fill="#3A3A3A"/>
<path d="M90.4739 19.0904C94.6923 23.9516 100.354 37.8645 100.3 43.1228C100.279 45.2094 99.9347 45.4516 97.4597 45.3914C89.4359 45.28 75.3855 50.1151 68.2449 55.4518C66.4381 56.8271 64.6337 57.9522 64.3777 57.9459C64.0363 57.9377 61.8377 55.8806 59.3875 53.4L54.9941 48.952L71.6323 33.2432C80.7695 24.6988 88.4401 17.6217 88.6963 17.6279C88.9523 17.6341 89.7989 18.3226 90.4739 19.0904ZM75.1757 37.3365C66.2091 45.8847 63.3609 48.9047 64.1213 49.6745C64.8817 50.4443 65.7377 50.2147 67.6291 48.9249C72.3559 45.8671 82.3003 41.8508 88.0297 40.9045C93.6739 39.9563 93.6739 39.9563 93.1877 37.44C92.5391 34.0847 88.7809 25.9788 87.9275 25.9581C87.5007 25.9477 81.8137 31.0692 75.1757 37.3365Z" fill="#3A3A3A"/>
<path d="M99.4408 51.9521C103.529 52.8864 95.7061 74.7368 89.1525 81.0895C88.0319 82.1477 86.7619 81.115 78.3975 72.6468L68.9355 62.9829L71.0855 61.4489C78.6563 55.7887 93.9906 50.6509 99.4408 51.9521ZM86.8965 59.7458C77.3013 63.0191 77.3023 62.9356 82.7061 68.744C87.0125 73.3568 87.3521 73.5321 88.5617 72.1423C89.7729 70.5854 92.8331 63.5632 93.8097 59.9136C94.5191 57.3427 93.9217 57.3281 86.8965 59.7458Z" fill="#3A3A3A"/>
<path d="M10.0971 79.5093C5.87868 74.6482 0.216759 60.7352 0.270893 55.477C0.292375 53.3903 0.636347 53.1481 3.11144 53.2083C11.1351 53.3197 25.1856 48.4848 32.3262 43.148C34.1332 41.7727 35.9374 40.6476 36.1936 40.6538C36.535 40.6621 38.7334 42.7191 41.1836 45.1999L45.577 49.6478L28.9388 65.3568C19.8016 73.9009 12.1309 80.978 11.8748 80.9717C11.6188 80.9656 10.7722 80.277 10.0971 79.5093ZM25.3954 61.2632C34.362 52.715 37.2102 49.695 36.4498 48.9252C35.6894 48.1554 34.8334 48.385 32.942 49.675C28.2152 52.7327 18.2708 56.7489 12.5413 57.6952C6.89714 58.6434 6.89714 58.6434 7.38344 61.1597C8.03186 64.515 11.7901 72.6211 12.6435 72.6417C13.0703 72.6521 18.7574 67.5305 25.3954 61.2632Z" fill="#3A3A3A"/>
<path d="M1.13079 46.6489C-2.95734 45.7148 4.86552 23.8642 11.419 17.5114C12.5397 16.4533 13.8096 17.486 22.174 25.9542L31.636 35.6181L29.486 37.1521C21.9152 42.8123 6.58106 47.9501 1.13079 46.6489ZM13.675 38.8554C23.2702 35.5819 23.2692 35.6654 17.8654 29.857C13.559 25.2442 13.2194 25.0689 12.0099 26.4589C10.7987 28.0156 7.73844 35.0378 6.7618 38.6874C6.05236 41.2583 6.6498 41.2728 13.675 38.8554Z" fill="#3A3A3A"/>
<path d="M82.5831 11.1047C77.7589 6.8152 63.7281 0.800059 58.3485 0.669416C56.2137 0.617571 55.9542 0.945056 55.9294 3.3644C55.7632 11.2044 50.3281 24.7576 44.6213 31.5452C43.1515 33.2619 41.9382 34.9848 41.9356 35.235C41.9322 35.5687 43.9591 37.7876 46.4105 40.2672L50.8061 44.713L67.452 29.0121C76.5088 20.3866 84.0142 13.1422 84.0168 12.8919C84.0194 12.6416 83.3447 11.7908 82.5831 11.1047ZM63.3894 25.4085C54.3342 33.8672 51.1464 36.5436 50.3856 35.774C49.625 35.0046 49.8895 34.1766 51.2747 32.3742C54.5667 27.8646 59.0212 18.2931 60.1888 12.7305C61.3556 7.2513 61.3556 7.2513 63.9122 7.81407C67.3208 8.56442 75.4796 12.5177 75.471 13.3519C75.4666 13.7691 70.0304 19.1446 63.3894 25.4085Z" fill="#3A3A3A"/>
<path d="M49.2892 1.20105C48.4764 -2.82414 25.8572 4.05331 19.1317 10.232C18.0104 11.2895 19.0222 12.5658 27.3908 21.0304L36.9434 30.6084L38.5874 28.5622C44.6402 21.3657 50.4296 6.56935 49.2892 1.20105ZM40.881 13.1801C37.1984 22.4367 37.2838 22.4388 31.5324 16.9585C26.9652 12.5918 26.7978 12.254 28.2614 11.1213C29.8958 9.99269 37.184 7.24904 40.9506 6.42259C43.6044 5.81947 43.5984 6.40345 40.881 13.1801Z" fill="#3A3A3A"/>
</g>
</g>
<defs>
<clipPath id="clip0_790_1005">
<rect width="440" height="100" fill="white"/>
</clipPath>
</defs>
</svg>
