<svg width="220" height="51" viewBox="0 0 220 51" fill="none" xmlns="http://www.w3.org/2000/svg">
<g clip-path="url(#clip0_647_991)">
<path d="M185.235 0.508507C184.934 1.31835 183.019 6.93077 180.236 15.1611C179.598 17.0256 178.907 19.022 178.694 19.587C178.481 20.152 178.162 21.0937 177.985 21.6587C177.808 22.2237 177.347 23.6174 176.957 24.7662C176.567 25.8962 175.68 28.5329 174.989 30.6046C174.28 32.6763 173.606 34.6727 173.464 35.0305C173.322 35.3884 172.879 36.7067 172.471 37.9497C172.046 39.1928 171.691 40.2474 171.674 40.2663C171.656 40.3039 170.752 40.4734 169.67 40.6429L167.703 40.9254V45.615V50.2857H177.719H187.735L187.7 45.615L187.646 40.9631L186.264 40.6994C185.377 40.5488 184.899 40.3793 184.952 40.2286C184.987 40.1156 185.182 39.5318 185.36 38.9291L185.679 37.8556L193.904 37.8932L202.148 37.9497L202.485 39.1363C202.68 39.7954 202.804 40.3793 202.751 40.4169C202.697 40.4734 202.095 40.6241 201.403 40.7371L200.145 40.9443V45.615V50.2857H210.072H220V45.5773C220 42.8088 219.929 40.8689 219.84 40.8689C219.574 40.8689 216.933 40.4923 216.507 40.3981C216.241 40.3228 216.029 40.0026 215.763 39.2304C214.806 36.3489 211.154 25.5196 210.498 23.6362C210.356 23.2219 210.037 22.2802 209.806 21.5645C209.576 20.83 209.168 19.6435 208.92 18.9278C208.654 18.1933 208.388 17.4023 208.299 17.1386C208.228 16.8749 207.874 15.8203 207.502 14.7844C206.739 12.5244 206.137 10.7917 205.463 8.75763C205.179 7.92895 204.612 6.27159 204.222 5.08507C203.814 3.89856 203.265 2.26003 203.017 1.46902L202.538 0H193.975H185.43L185.235 0.508507ZM196.138 18.7395C197.29 22.4685 198.336 25.8397 198.478 26.2164L198.726 26.9321H193.922C190.182 26.9321 189.136 26.8756 189.189 26.6872C189.508 25.3312 193.869 11.7334 193.958 11.8275C194.011 11.9029 194.986 15.0104 196.138 18.7395Z" fill="white"/>
<path d="M56.5713 4.55382V9.10763L59.1159 9.60142L61.6606 10.0952V21.745C61.6606 30.8343 61.7133 33.7422 61.9063 35.0223C62.6609 39.9785 65.0125 43.8374 68.9436 46.544C71.225 48.0986 73.2958 48.9764 76.4898 49.7628C78.4905 50.2383 84.2818 50.4578 86.6685 50.1286C95.1799 48.9581 101.322 44.0751 103.077 37.0706C103.674 34.6749 103.779 32.59 103.779 21.178V10.0952L104.27 9.98548C104.534 9.93061 105.674 9.71115 106.815 9.49169L108.868 9.10763V4.55382V0H97.1981H85.5278V4.53553V9.07106L87.2476 9.40025C88.1777 9.58313 89.3184 9.82088 89.7923 9.91232L90.6171 10.0952V21.8547C90.6171 32.3888 90.582 33.7056 90.3187 34.5834C89.5992 36.9609 88.1075 38.3691 85.5804 39.0458C84.3871 39.375 81.3861 39.4116 80.0524 39.1189C78.0868 38.68 76.2617 37.3633 75.5246 35.8453C74.6822 34.1079 74.6471 33.541 74.6471 21.4523V10.0952L77.2796 9.58313L79.912 9.07106V4.53553V0H68.2416H56.5713V4.55382Z" fill="white"/>
<path d="M115.406 4.49955V9.01792L117.204 9.31914C118.171 9.48858 119.448 9.7145 120.009 9.82746L121.015 10.0158V25.2464V40.4583L119.719 40.6654C118.984 40.7972 117.746 40.9854 116.953 41.1172L115.502 41.362L115.444 45.8239L115.406 50.2857H130.666C140.491 50.2857 146.66 50.2104 147.937 50.0787C155.248 49.3068 160.682 46.3133 162.964 41.7761C164.183 39.3663 164.434 38.1991 164.434 35.0362C164.415 32.5511 164.376 32.1746 163.893 30.8191C163.293 29.1624 162.075 27.2232 160.895 26.0748C160.16 25.3594 158.613 24.2486 158.091 24.0604C157.955 24.0039 158.342 23.5144 158.942 22.9684C160.295 21.7259 161.32 20.1821 161.978 18.3936C162.423 17.2263 162.481 16.7557 162.481 14.6094C162.5 11.7666 162.21 10.4676 161.108 8.30251C159.425 5.02669 155.538 2.39097 150.509 1.14842C146.602 0.169439 146.061 0.150612 130.259 0.0753062L115.406 0V4.49955ZM144.397 11.2395C146.061 11.5972 147.337 12.3691 147.763 13.2539C148.536 14.8354 148.343 16.831 147.299 17.8853C145.983 19.2408 144.281 19.5985 139.156 19.5985H135.327V15.2684V10.9383H139.214C142.019 10.9383 143.45 11.0136 144.397 11.2395ZM147.144 30.066C149.078 30.6308 150.219 32.4005 150.219 34.848C150.2 36.9942 149.271 38.2744 147.202 39.0275C146.157 39.4228 145.655 39.4605 140.703 39.517L135.327 39.5923V34.6785V29.7648H140.703C145.094 29.7648 146.273 29.8213 147.144 30.066Z" fill="white"/>
<path d="M8.99414 44.6217C11.4062 46.8094 18.4216 49.8771 21.1114 49.9437C22.1787 49.9702 22.3086 49.8031 22.321 48.5693C22.4041 44.5709 25.1216 37.6587 27.975 34.1971C28.7099 33.3215 29.3166 32.4428 29.3179 32.3152C29.3196 32.145 28.3061 31.0134 27.0804 29.7489L24.8826 27.4814L16.5597 35.4889C12.0313 39.8879 8.27864 43.5826 8.27735 43.7102C8.27606 43.8379 8.61333 44.2718 8.99414 44.6217ZM18.591 37.3267C23.1186 33.0128 24.7125 31.6479 25.0928 32.0403C25.4732 32.4328 25.3409 32.8551 24.6483 33.7742C23.0023 36.0741 20.775 40.9556 20.1912 43.7926C19.6079 46.5869 19.6079 46.5869 18.3296 46.2999C16.6253 45.9173 12.5459 43.9011 12.5502 43.4756C12.5524 43.2629 15.2705 40.5214 18.591 37.3267Z" fill="white"/>
<path d="M25.6412 49.6735C26.0476 51.7263 37.3572 48.2188 40.72 45.0677C41.2806 44.5284 40.7747 43.8775 36.5904 39.5606L31.814 34.6758L30.9921 35.7194C27.9657 39.3895 25.071 46.9357 25.6412 49.6735ZM29.8453 43.5642C31.6866 38.8433 31.6439 38.8422 34.5196 41.6372C36.8032 43.8642 36.8869 44.0365 36.1551 44.6142C35.3379 45.1898 31.6938 46.589 29.8105 47.0105C28.4836 47.3181 28.4866 47.0203 29.8453 43.5642Z" fill="white"/>
<path d="M45.237 9.73609C47.3462 12.2153 50.1772 19.3109 50.1501 21.9926C50.1394 23.0568 49.9674 23.1803 48.7299 23.1496C44.718 23.0928 37.6928 25.5587 34.1225 28.2804C33.2191 28.9818 32.3169 29.5556 32.1889 29.5524C32.0182 29.5482 30.9189 28.4991 29.6938 27.234L27.4971 24.9655L35.8162 16.954C40.3848 12.5964 44.2201 8.98707 44.3482 8.99024C44.4762 8.99341 44.8995 9.34452 45.237 9.73609ZM37.5879 19.0416C33.1046 23.4012 31.6805 24.9414 32.0607 25.334C32.4409 25.7266 32.8689 25.6095 33.8146 24.9517C36.178 23.3922 41.1502 21.3439 44.0149 20.8613C46.837 20.3777 46.837 20.3777 46.5939 19.0944C46.2696 17.3832 44.3905 13.2492 43.9638 13.2386C43.7504 13.2333 40.9069 15.8453 37.5879 19.0416Z" fill="white"/>
<path d="M49.7204 26.4955C51.7645 26.972 47.8531 38.1157 44.5763 41.3556C44.016 41.8953 43.381 41.3686 39.1988 37.0498L34.4678 32.1212L35.5428 31.3389C39.3282 28.4522 46.9953 25.8319 49.7204 26.4955ZM43.4483 30.4703C38.6507 32.1397 38.6512 32.0971 41.3531 35.0594C43.5063 37.4119 43.6761 37.5013 44.2809 36.7925C44.8865 35.9985 46.4166 32.4172 46.9049 30.5559C47.2596 29.2447 46.9609 29.2373 43.4483 30.4703Z" fill="white"/>
<path d="M5.04856 40.5497C2.93934 38.0705 0.10838 30.9749 0.135447 28.2932C0.146188 27.229 0.318174 27.1055 1.55572 27.1362C5.56753 27.193 12.5928 24.7272 16.1631 22.0054C17.0666 21.304 17.9687 20.7302 18.0968 20.7334C18.2675 20.7376 19.3667 21.7867 20.5918 23.0519L22.7885 25.3203L14.4694 33.3319C9.90082 37.6894 6.06544 41.2987 5.93741 41.2955C5.80939 41.2924 5.38609 40.9412 5.04856 40.5497ZM12.6977 31.2442C17.181 26.8846 18.6051 25.3444 18.2249 24.9518C17.8447 24.5592 17.4167 24.6763 16.471 25.3342C14.1076 26.8936 9.13541 28.9419 6.27065 29.4245C3.44857 29.9081 3.44857 29.9081 3.69172 31.1914C4.01593 32.9026 5.89503 37.0367 6.32177 37.0472C6.53514 37.0525 9.37871 34.4405 12.6977 31.2442Z" fill="white"/>
<path d="M0.565397 23.791C-1.47867 23.3146 2.43276 12.1708 5.70951 8.93086C6.26986 8.39122 6.90482 8.91789 11.087 13.2367L15.818 18.1653L14.743 18.9476C10.9576 21.8343 3.29053 24.4546 0.565397 23.791ZM6.83751 19.8163C11.6351 18.1468 11.6346 18.1894 8.9327 15.2271C6.77952 12.8746 6.60968 12.7852 6.00494 13.4941C5.39933 14.288 3.86922 17.8693 3.3809 19.7306C3.02618 21.0418 3.3249 21.0492 6.83751 19.8163Z" fill="white"/>
<path d="M41.2916 5.66335C38.8795 3.4757 31.8641 0.407977 29.1743 0.341349C28.1069 0.314908 27.9771 0.481925 27.9647 1.71579C27.8816 5.71418 25.1641 12.6263 22.3107 16.088C21.5758 16.9635 20.9691 17.8422 20.9678 17.9698C20.9661 18.14 21.9796 19.2716 23.2053 20.5362L25.4031 22.8036L33.726 14.7961C38.2544 10.3971 42.0071 6.70246 42.0084 6.57482C42.0097 6.44718 41.6724 6.01324 41.2916 5.66335ZM31.6947 12.9583C27.1671 17.2722 25.5732 18.6372 25.1928 18.2447C24.8125 17.8523 24.9448 17.43 25.6374 16.5108C27.2834 14.2109 29.5106 9.32941 30.0944 6.49248C30.6778 3.69811 30.6778 3.69811 31.9561 3.98512C33.6604 4.3678 37.7398 6.38396 37.7355 6.80944C37.7333 7.02217 35.0152 9.76367 31.6947 12.9583Z" fill="white"/>
<path d="M24.6446 0.612534C24.2382 -1.44031 12.9286 2.06719 9.56583 5.2183C9.00522 5.75766 9.51111 6.40856 13.6954 10.7255L18.4717 15.6103L19.2937 14.5667C22.3201 10.8965 25.2148 3.35037 24.6446 0.612534ZM20.4405 6.72186C18.5992 11.4427 18.6419 11.4438 15.7662 8.64885C13.4826 6.42183 13.3989 6.24952 14.1307 5.67184C14.9479 5.09627 18.592 3.69701 20.4753 3.27552C21.8022 2.96793 21.7992 3.26576 20.4405 6.72186Z" fill="white"/>
</g>
<defs>
<clipPath id="clip0_647_991">
<rect width="220" height="51" fill="white"/>
</clipPath>
</defs>
</svg>
