<svg width="352" height="80" viewBox="0 0 352 80" fill="none" xmlns="http://www.w3.org/2000/svg">
<g clip-path="url(#clip0_790_1005)">
<mask id="mask0_790_1005" style="mask-type:alpha" maskUnits="userSpaceOnUse" x="0" y="0" width="352" height="80">
<path d="M352 0H0V80H352V0Z" fill="white"/>
</mask>
<g mask="url(#mask0_790_1005)">
<path d="M205.891 0.797658C205.409 2.068 202.345 10.8718 197.893 23.7821C196.872 26.7068 195.766 29.8384 195.425 30.7247C195.085 31.611 194.574 33.0882 194.291 33.9744C194.008 34.8607 193.27 37.0469 192.646 38.8489C192.022 40.6215 190.603 44.7575 189.497 48.0072C188.363 51.2569 187.285 54.3885 187.057 54.9498C186.83 55.5112 186.121 57.5791 185.469 59.5289C184.789 61.4789 184.221 63.1332 184.193 63.1628C184.165 63.2218 182.718 63.4877 180.987 63.7536L177.84 64.1967V71.5529V78.8795H193.865H209.891L209.835 71.5529L209.749 64.2558L207.537 63.8422C206.118 63.606 205.353 63.3401 205.438 63.1037C205.494 62.9264 205.806 62.0107 206.091 61.0653L206.601 59.3813L219.761 59.4403L232.952 59.5289L233.491 61.3903C233.803 62.4242 234.001 63.3401 233.917 63.3991C233.83 63.4877 232.867 63.7241 231.76 63.9013L229.747 64.2264V71.5529V78.8795H245.63H261.515V71.4938C261.515 67.1511 261.401 64.1081 261.259 64.1081C260.833 64.1081 256.608 63.5173 255.926 63.3696C255.501 63.2515 255.161 62.7492 254.736 61.5379C253.205 57.0179 247.361 40.0307 246.312 37.0764C246.085 36.4265 245.574 34.9493 245.205 33.8267C244.837 32.6745 244.184 30.8133 243.787 29.6907C243.361 28.5385 242.936 27.2977 242.793 26.8841C242.68 26.4704 242.113 24.8162 241.518 23.1912C240.297 19.6461 239.334 16.9282 238.256 13.7375C237.801 12.4376 236.894 9.83779 236.27 7.97658C235.617 6.11539 234.739 3.54515 234.342 2.30435L233.576 0H219.875H206.203L205.891 0.797658ZM223.336 29.3953C225.179 35.2447 226.853 40.5329 227.08 41.1238L227.477 42.2464H219.79C213.806 42.2464 212.133 42.1578 212.217 41.8623C212.728 39.7352 219.705 18.4053 219.848 18.5529C219.933 18.6712 221.493 23.5457 223.336 29.3953Z" fill="#3A3A3A"/>
<path d="M0.0283203 7.14325V14.2865L4.09968 15.0611L8.1712 15.8356V34.1098C8.1712 48.3675 8.25552 52.9289 8.56432 54.9369C9.77168 62.7114 13.5342 68.7645 19.824 73.0102C23.4742 75.4488 26.7875 76.8257 31.8979 78.0593C35.099 78.8052 44.3651 79.1495 48.1838 78.6331C61.8021 76.797 71.6294 69.1374 74.4374 58.15C75.3926 54.392 75.5606 51.1216 75.5606 33.2204V15.8356L76.3462 15.6635C76.7686 15.5774 78.5926 15.2332 80.4182 14.8889L83.703 14.2865V7.14325V0H65.0312H46.3587V7.11456V14.2291L49.1104 14.7455C50.5986 15.0324 52.4237 15.4053 53.1819 15.5487L54.5016 15.8356V34.2819C54.5016 50.806 54.4454 52.8715 54.0242 54.2485C52.873 57.9779 50.4862 60.1868 46.4429 61.2483C44.5336 61.7647 39.732 61.8221 37.5981 61.363C34.4531 60.6745 31.533 58.6091 30.3536 56.2279C29.0058 53.5026 28.9496 52.6133 28.9496 33.6507V15.8356L33.1616 15.0324L37.3734 14.2291V7.11456V0H18.7008H0.0283203V7.14325Z" fill="#3A3A3A"/>
<path d="M94.1641 7.05812V14.1458L97.0409 14.6183C98.5881 14.884 100.631 15.2384 101.529 15.4156L103.138 15.7111V39.6022V63.464L101.065 63.7889C99.8889 63.9956 97.9081 64.2908 96.6393 64.4976L94.3177 64.8816L94.2249 71.8806L94.1641 78.8795H118.58C134.3 78.8795 144.17 78.7614 146.214 78.5548C157.911 77.344 166.606 72.6483 170.257 65.5311C172.207 61.7511 172.609 59.9202 172.609 54.9587C172.578 51.0606 172.516 50.47 171.743 48.3437C170.783 45.7449 168.834 42.7031 166.946 40.9016C165.77 39.7795 163.295 38.037 162.46 37.7418C162.242 37.6532 162.862 36.8853 163.822 36.0289C165.986 34.0798 167.626 31.6582 168.679 28.8527C169.391 27.0216 169.484 26.2835 169.484 22.9167C169.514 18.4574 169.05 16.4198 167.287 13.0235C164.594 7.885 158.375 3.75054 150.329 1.80144C144.078 0.265787 143.212 0.236254 117.929 0.118127L94.1641 0V7.05812ZM140.55 17.6306C143.212 18.1917 145.254 19.4025 145.935 20.7904C147.172 23.2712 146.863 26.4016 145.193 28.0554C143.087 30.1816 140.364 30.7427 132.164 30.7427H126.038V23.9504V17.1581H132.257C136.745 17.1581 139.034 17.2762 140.55 17.6306ZM144.945 47.1624C148.039 48.0483 149.865 50.8243 149.865 54.6635C149.834 58.0301 148.348 60.0383 145.038 61.2196C143.366 61.8397 142.562 61.8988 134.639 61.9874L126.038 62.1056V54.3976V46.6899H134.639C141.665 46.6899 143.551 46.7785 144.945 47.1624Z" fill="#3A3A3A"/>
<path d="M285.906 69.9949C289.765 73.4266 300.99 78.2387 305.293 78.3431C307.001 78.3847 307.209 78.1226 307.229 76.1872C307.362 69.9152 311.71 59.0725 316.275 53.6426C317.451 52.2691 318.422 50.8907 318.424 50.6906C318.426 50.4236 316.805 48.6485 314.844 46.665L311.327 43.1082L298.011 55.6689C290.765 62.5693 284.761 68.3649 284.759 68.5651C284.757 68.7654 285.296 69.446 285.906 69.9949ZM301.261 58.5518C308.505 51.7849 311.055 49.6438 311.664 50.2594C312.272 50.8751 312.06 51.5375 310.952 52.9792C308.319 56.5869 304.755 64.2442 303.821 68.6943C302.888 73.0776 302.888 73.0776 300.842 72.6274C298.116 72.0272 291.588 68.8645 291.595 68.1971C291.599 67.8634 295.948 63.5631 301.261 58.5518Z" fill="#3A3A3A"/>
<path d="M312.541 77.9191C313.191 81.1392 331.286 75.6372 336.667 70.6943C337.564 69.8484 336.754 68.8273 330.059 62.0557L322.417 54.3933L321.102 56.0303C316.26 61.7873 311.628 73.6245 312.541 77.9191ZM319.267 68.3359C322.213 60.9306 322.145 60.9288 326.746 65.3132C330.4 68.8065 330.534 69.0768 329.363 69.983C328.055 70.8859 322.225 73.0807 319.211 73.7419C317.088 74.2244 317.093 73.7572 319.267 68.3359Z" fill="#3A3A3A"/>
<path d="M343.894 15.2723C347.268 19.1612 351.798 30.2916 351.755 34.4982C351.737 36.1675 351.462 36.3612 349.482 36.3131C343.063 36.224 331.823 40.092 326.11 44.3614C324.665 45.4616 323.221 46.3617 323.017 46.3567C322.744 46.3501 320.985 44.7044 319.024 42.72L315.51 39.1615L328.82 26.5945C336.13 19.759 342.267 14.0973 342.472 14.1023C342.676 14.1073 343.354 14.658 343.894 15.2723ZM331.655 29.8691C324.482 36.7077 322.203 39.1237 322.812 39.7396C323.42 40.3554 324.105 40.1717 325.618 39.1399C329.399 36.6936 337.355 33.4806 341.938 32.7236C346.454 31.965 346.454 31.965 346.065 29.952C345.546 27.2677 342.539 20.783 341.856 20.7664C341.515 20.7581 336.965 24.8553 331.655 29.8691Z" fill="#3A3A3A"/>
<path d="M351.067 41.5615C354.338 42.3089 348.08 59.7892 342.837 64.8714C341.94 65.718 340.924 64.8918 334.233 58.1172L326.663 50.3861L328.383 49.1589C334.44 44.6308 346.707 40.5205 351.067 41.5615ZM341.032 47.7964C333.356 50.4151 333.357 50.3483 337.68 54.995C341.125 58.6852 341.396 58.8255 342.364 57.7136C343.333 56.4681 345.781 50.8504 346.562 47.9307C347.13 45.8739 346.652 45.8623 341.032 47.7964Z" fill="#3A3A3A"/>
<path d="M279.593 63.6074C276.218 59.7184 271.688 48.5881 271.732 44.3815C271.749 42.7121 272.024 42.5184 274.004 42.5666C280.423 42.6557 291.664 38.7878 297.376 34.5183C298.822 33.418 300.265 32.518 300.47 32.523C300.743 32.5296 302.502 34.1752 304.462 36.1598L307.977 39.7181L294.666 52.2853C287.356 59.1206 281.22 64.7823 281.015 64.7772C280.81 64.7724 280.133 64.2215 279.593 63.6074ZM291.831 49.0105C299.005 42.1719 301.283 39.7559 300.675 39.1401C300.067 38.5242 299.382 38.7079 297.869 39.7399C294.087 42.186 286.132 45.399 281.548 46.1561C277.033 46.9147 277.033 46.9147 277.422 48.9277C277.941 51.6119 280.947 58.0968 281.63 58.1132C281.971 58.1216 286.521 54.0243 291.831 49.0105Z" fill="#3A3A3A"/>
<path d="M272.419 37.3193C269.149 36.572 275.407 19.0916 280.65 14.0093C281.546 13.1628 282.562 13.989 289.254 20.7636L296.823 28.4947L295.103 29.7218C289.047 34.25 276.779 38.3603 272.419 37.3193ZM282.455 31.0845C290.131 28.4657 290.13 28.5325 285.807 23.8858C282.362 20.1956 282.09 20.0553 281.123 21.1673C280.154 22.4127 277.705 28.0304 276.924 30.9501C276.357 33.0069 276.834 33.0185 282.455 31.0845Z" fill="#3A3A3A"/>
<path d="M337.582 8.88362C333.722 5.45202 322.498 0.639901 318.194 0.535387C316.486 0.49391 316.278 0.755898 316.259 2.69137C316.126 8.96336 311.778 19.8059 307.212 25.236C306.036 26.6093 305.066 27.9877 305.063 28.1879C305.061 28.4548 306.682 30.2299 308.643 32.2136L312.16 35.7703L325.477 23.2095C332.722 16.3091 338.726 10.5136 338.728 10.3134C338.731 10.1132 338.191 9.43247 337.582 8.88362ZM322.227 20.3267C314.982 27.0936 312.432 29.2348 311.823 28.6191C311.215 28.0035 311.427 27.3411 312.535 25.8992C315.168 22.2915 318.732 14.6343 319.666 10.1842C320.599 5.80089 320.599 5.80089 322.645 6.25111C325.372 6.85139 331.899 10.014 331.892 10.6814C331.888 11.0151 327.539 15.3155 322.227 20.3267Z" fill="#3A3A3A"/>
<path d="M310.946 0.960837C310.296 -2.25931 292.201 3.24265 286.82 8.18557C285.923 9.03162 286.733 10.0526 293.427 16.8243L301.07 24.4867L302.385 22.8497C307.227 17.0925 311.859 5.25548 310.946 0.960837ZM304.22 10.5441C301.274 17.9493 301.342 17.9511 296.741 13.5668C293.087 10.0735 292.953 9.80317 294.124 8.897C295.431 7.99415 301.262 5.79923 304.275 5.13807C306.398 4.65558 306.394 5.12276 304.22 10.5441Z" fill="#3A3A3A"/>
</g>
</g>
<defs>
<clipPath id="clip0_790_1005">
<rect width="352" height="80" fill="white"/>
</clipPath>
</defs>
</svg>
