<svg width="440" height="100" viewBox="0 0 440 100" fill="none" xmlns="http://www.w3.org/2000/svg">
<g clip-path="url(#clip0_491_1005)">
<path d="M370.471 1.01126C369.869 2.62175 366.039 13.7828 360.473 30.1498C359.196 33.8577 357.814 37.8277 357.388 38.9513C356.963 40.0749 356.324 41.9476 355.97 43.0712C355.615 44.1948 354.694 46.9663 353.914 49.2509C353.133 51.4981 351.361 56.7416 349.978 60.8614C348.56 64.9813 347.212 68.9513 346.929 69.6629C346.645 70.3745 345.759 72.9963 344.943 75.4682C344.092 77.9401 343.383 80.0375 343.348 80.0749C343.312 80.1498 341.504 80.4869 339.341 80.824L335.406 81.3858V90.7116V100H355.438H375.471L375.4 90.7116L375.293 81.4607L372.528 80.9363C370.755 80.6367 369.798 80.2996 369.904 80C369.975 79.7753 370.365 78.6142 370.72 77.4157L371.358 75.2809L387.809 75.3558L404.296 75.4682L404.97 77.8277C405.36 79.1386 405.608 80.2996 405.502 80.3745C405.395 80.4869 404.19 80.7865 402.807 81.0112L400.29 81.4232V90.7116V100H420.145H440V90.6367C440 85.1311 439.858 81.2734 439.681 81.2734C439.149 81.2734 433.866 80.5243 433.015 80.3371C432.483 80.1873 432.058 79.5506 431.526 78.015C429.611 72.2847 422.308 50.7491 420.996 47.0038C420.712 46.1798 420.074 44.3071 419.613 42.8839C419.152 41.4232 418.336 39.0637 417.84 37.6405C417.308 36.1798 416.776 34.6068 416.599 34.0824C416.457 33.5581 415.748 31.4607 415.004 29.4008C413.479 24.9064 412.274 21.4607 410.926 17.4158C410.359 15.7678 409.224 12.4719 408.444 10.1124C407.629 7.75283 406.53 4.4944 406.033 2.92137L405.076 2.38419e-05H387.951H370.861L370.471 1.01126ZM392.277 37.2659C394.581 44.6817 396.673 51.3858 396.957 52.1348L397.453 53.5581H387.845C380.363 53.5581 378.272 53.4457 378.378 53.0712C379.016 50.3745 387.738 23.3334 387.916 23.5206C388.022 23.6704 389.972 29.8502 392.277 37.2659Z" fill="#3A3A3A" fill-opacity="0.1"/>
<path d="M113.143 9.05591V18.1118L118.232 19.0938L123.321 20.0757V43.2428C123.321 61.3181 123.427 67.1008 123.813 69.6467C125.322 79.5026 130.025 87.1765 137.887 92.5591C142.45 95.6505 146.592 97.3962 152.98 98.9601C156.981 99.9057 168.564 100.342 173.337 99.6874C190.36 97.3598 202.645 87.6493 206.155 73.72C207.348 68.9556 207.558 64.8096 207.558 42.1153V20.0757L208.541 19.8575C209.068 19.7484 211.349 19.312 213.631 18.8755L217.737 18.1118V9.05591V2.72869e-05H194.396H171.056V9.01954V18.039L174.495 18.6937C176.356 19.0574 178.637 19.5302 179.585 19.712L181.234 20.0757V43.461C181.234 64.4095 181.164 67.0281 180.638 68.7738C179.199 73.5018 176.215 76.3022 171.161 77.6478C168.774 78.3025 162.772 78.3752 160.105 77.7933C156.174 76.9204 152.524 74.3019 151.049 71.2833C149.365 67.8282 149.295 66.7008 149.295 42.6609V20.0757L154.559 19.0574L159.824 18.039V9.01954V2.72869e-05H136.483H113.143V9.05591Z" fill="#3A3A3A" fill-opacity="0.1"/>
<path d="M230.811 8.94798V17.9334L234.409 18.5324C236.343 18.8694 238.896 19.3186 240.018 19.5433L242.029 19.9177V50.2059V80.4568L239.437 80.8686C237.967 81.1307 235.492 81.5051 233.906 81.7671L231.005 82.2538L230.889 91.1269L230.811 100H261.331C280.981 100 293.32 99.8502 295.873 99.5882C310.495 98.0532 321.364 92.1003 325.929 83.0775C328.366 78.2853 328.869 75.9641 328.869 69.6743C328.83 64.7323 328.753 63.9835 327.785 61.2879C326.586 57.9933 324.149 54.137 321.79 51.8532C320.32 50.4306 317.225 48.2217 316.181 47.8473C315.91 47.7349 316.684 46.7615 317.883 45.6758C320.591 43.2048 322.641 40.1348 323.956 36.5781C324.846 34.2568 324.962 33.3209 324.962 29.0528C325 23.3995 324.42 20.8162 322.215 16.5107C318.85 9.99628 311.075 4.7548 301.018 2.28381C293.204 0.336976 292.121 0.299537 260.519 0.14978L230.811 2.34097e-05V8.94798ZM288.795 22.3512C292.121 23.0625 294.674 24.5975 295.525 26.3572C297.073 29.5021 296.686 33.4706 294.597 35.5672C291.967 38.2628 288.563 38.9742 278.312 38.9742H270.653V30.3632V21.7522H278.428C284.037 21.7522 286.899 21.9019 288.795 22.3512ZM294.287 59.7904C298.156 60.9135 300.438 64.4328 300.438 69.2999C300.399 73.568 298.542 76.1138 294.403 77.6114C292.315 78.3976 291.309 78.4725 281.407 78.5848L270.653 78.7346V68.9629V59.1913H281.407C290.187 59.1913 292.547 59.3036 294.287 59.7904Z" fill="#3A3A3A" fill-opacity="0.1"/>
</g>
<path d="M17.9884 88.7373C22.8127 93.0878 36.8435 99.1884 42.223 99.3209C44.3577 99.3734 44.6173 99.0413 44.6422 96.5876C44.8083 88.6362 50.2433 74.8904 55.9503 68.0065C57.4199 66.2654 58.6334 64.518 58.636 64.2642C58.6394 63.9257 56.6124 61.6754 54.161 59.1607L49.7655 54.6515L33.1196 70.5755C24.0627 79.3235 16.5574 86.6709 16.5548 86.9247C16.5523 87.1786 17.2268 88.0415 17.9884 88.7373ZM37.1822 74.2302C46.2374 65.6514 49.4251 62.9371 50.1859 63.7175C50.9467 64.498 50.6819 65.3378 49.2968 67.1655C46.0048 71.7392 41.5503 81.4469 40.3827 87.0885C39.216 92.6455 39.216 92.6455 36.6594 92.0747C33.2507 91.3137 25.092 87.3043 25.1006 86.4582C25.1049 86.0351 30.5411 80.5833 37.1822 74.2302Z" fill="#3A3A3A" fill-opacity="0.1"/>
<path d="M51.2821 98.7819C52.0947 102.864 74.7139 95.8891 81.4395 89.6227C82.5608 88.5501 81.549 87.2557 73.1805 78.671L63.6277 68.9569L61.9838 71.0322C55.931 78.3307 50.1416 93.3373 51.2821 98.7819ZM59.6902 86.6327C63.3728 77.2446 63.2874 77.2425 69.0389 82.8006C73.6061 87.2293 73.7734 87.572 72.3098 88.7208C70.6754 89.8654 63.3872 92.648 59.6207 93.4862C56.9667 94.0979 56.9727 93.5056 59.6902 86.6327Z" fill="#3A3A3A" fill-opacity="0.1"/>
<path d="M90.474 19.3614C94.6925 24.2917 100.354 38.4021 100.3 43.7351C100.279 45.8514 99.9348 46.097 97.4597 46.036C89.4361 45.923 75.3857 50.8267 68.245 56.2392C66.4381 57.6341 64.6338 58.7751 64.3777 58.7688C64.0363 58.7604 61.8379 56.6741 59.3877 54.1582L54.9943 49.647L71.6324 33.715C80.7695 25.0495 88.4403 17.8719 88.6963 17.8782C88.9524 17.8845 89.799 18.5827 90.474 19.3614ZM75.1757 37.8666C66.2093 46.5364 63.361 49.5991 64.1214 50.3799C64.8818 51.1607 65.7378 50.9277 67.6293 49.6196C72.3561 46.5184 82.3003 42.4451 88.0298 41.4854C93.674 40.5237 93.674 40.5237 93.1877 37.9716C92.5393 34.5687 88.7811 26.3475 87.9276 26.3265C87.5009 26.316 81.8137 31.5103 75.1757 37.8666Z" fill="#3A3A3A" fill-opacity="0.1"/>
<path d="M99.4406 52.6894C103.529 53.6368 95.7059 75.7977 89.1524 82.2407C88.0317 83.3139 86.7618 82.2665 78.3974 73.6779L68.9354 63.8769L71.0855 62.321C78.6563 56.5804 93.9904 51.3697 99.4406 52.6894ZM86.8964 60.5936C77.3013 63.9136 77.3022 63.8289 82.706 69.7198C87.0124 74.3981 87.3521 74.5758 88.5616 73.1662C89.7728 71.5873 92.833 64.4655 93.8096 60.7639C94.5191 58.1566 93.9216 58.1418 86.8964 60.5936Z" fill="#3A3A3A" fill-opacity="0.1"/>
<path d="M10.0974 80.639C5.87895 75.7087 0.217033 61.5983 0.271166 56.2652C0.292648 54.149 0.636619 53.9034 3.11172 53.9644C11.1353 54.0773 25.1858 49.1737 32.3264 43.7612C34.1333 42.3663 35.9377 41.2253 36.1937 41.2316C36.5351 41.24 38.7335 43.3263 41.1837 45.8421L45.5772 50.3533L28.9391 66.2853C19.8019 74.9509 12.1312 82.1285 11.8751 82.1222C11.6191 82.1159 10.7725 81.4176 10.0974 80.639ZM25.3957 62.1338C34.3622 53.464 37.2104 50.4013 36.45 49.6205C35.6896 48.8397 34.8336 49.0726 32.9422 50.3808C28.2153 53.4819 18.2711 57.5553 12.5416 58.5149C6.89741 59.4767 6.89741 59.4767 7.38373 62.0288C8.03214 65.4317 11.7903 73.6528 12.6438 73.6739C13.0706 73.6844 18.7577 68.4901 25.3957 62.1338Z" fill="#3A3A3A" fill-opacity="0.1"/>
<path d="M1.13079 47.311C-2.95734 46.3636 4.86552 24.2027 11.419 17.7596C12.5397 16.6865 13.8096 17.7339 22.1741 26.3225L31.636 36.1235L29.486 37.6793C21.9152 43.4199 6.58107 48.6307 1.13079 47.311ZM13.675 39.4067C23.2701 36.0868 23.2693 36.1715 17.8654 30.2806C13.559 25.6022 13.2194 25.4245 12.0099 26.8342C10.7987 28.4131 7.73843 35.5349 6.76179 39.2364C6.05237 41.8438 6.64981 41.8585 13.675 39.4067Z" fill="#3A3A3A" fill-opacity="0.1"/>
<path d="M82.583 11.2627C77.7587 6.91223 63.7279 0.811649 58.3484 0.679148C56.2137 0.626568 55.9541 0.958704 55.9292 3.41243C55.7631 11.3638 50.3281 25.1096 44.6211 31.9935C43.1515 33.7346 41.938 35.482 41.9354 35.7358C41.932 36.0743 43.959 38.3246 46.4104 40.8393L50.8059 45.3485L67.4518 29.4244C76.5087 20.6765 84.014 13.3291 84.0165 13.0753C84.0191 12.8214 83.3446 11.9585 82.583 11.2627ZM63.3892 25.7698C54.334 34.3486 51.1463 37.0629 50.3855 36.2825C49.6247 35.502 49.8895 34.6622 51.2746 32.8344C54.5666 28.2608 59.0211 18.5531 60.1887 12.9115C61.3554 7.35453 61.3554 7.35453 63.912 7.92529C67.3207 8.68631 75.4794 12.6957 75.4708 13.5418C75.4665 13.9649 70.0303 19.4167 63.3892 25.7698Z" fill="#3A3A3A" fill-opacity="0.1"/>
<path d="M49.2893 1.21811C48.4766 -2.86426 25.8575 4.11089 19.1319 10.3773C18.0106 11.4499 19.0224 12.7443 27.3909 21.329L36.9437 31.0431L38.5876 28.9678C44.6404 21.6693 50.4298 6.66267 49.2893 1.21811ZM40.8812 13.3673C37.1986 22.7554 37.284 22.7575 31.5325 17.1994C26.9653 12.7707 26.798 12.428 28.2616 11.2792C29.896 10.1346 37.1842 7.35201 40.9507 6.51383C43.6047 5.90213 43.5987 6.49441 40.8812 13.3673Z" fill="#3A3A3A" fill-opacity="0.1"/>
<defs>
<clipPath id="clip0_491_1005">
<rect width="326.857" height="100" fill="white" transform="translate(113.143)"/>
</clipPath>
</defs>
</svg>
