<svg width="80" height="25" viewBox="0 0 80 25" fill="none" xmlns="http://www.w3.org/2000/svg">
<path d="M63.7762 1.10555C63.6356 1.47952 62.7421 4.07121 61.4433 7.87177C61.1454 8.73277 60.8228 9.65464 60.7235 9.91555C60.6242 10.1765 60.4753 10.6113 60.3926 10.8722C60.3099 11.1331 60.0948 11.7767 59.9127 12.3072C59.7307 12.829 59.3171 14.0466 58.9944 15.0033C58.6635 15.9599 58.3492 16.8818 58.283 17.047C58.2168 17.2123 58.01 17.8211 57.8197 18.3951C57.6211 18.9691 57.4557 19.4561 57.4474 19.4648C57.4391 19.4822 57.0172 19.5604 56.5125 19.6387L55.5942 19.7692V21.9347V24.0916H60.2685H64.9427L64.9262 21.9347L64.9014 19.7866L64.2561 19.6648C63.8424 19.5952 63.6191 19.517 63.6439 19.4474C63.6604 19.3952 63.7514 19.1256 63.8342 18.8473L63.9831 18.3516L67.8217 18.369L71.6687 18.3951L71.8259 18.943C71.9169 19.2474 71.9748 19.517 71.95 19.5344C71.9252 19.5604 71.6439 19.63 71.3212 19.6822L70.7338 19.7779V21.9347V24.0916H75.3667H79.9996V21.9173C79.9996 20.6389 79.9665 19.7431 79.9252 19.7431C79.8011 19.7431 78.5684 19.5691 78.3698 19.5257C78.2457 19.4909 78.1465 19.343 78.0224 18.9865C77.5756 17.6558 75.8714 12.6551 75.5653 11.7854C75.4991 11.5941 75.3502 11.1592 75.2426 10.8287C75.1351 10.4895 74.9448 9.94164 74.829 9.61116C74.7049 9.27198 74.5808 8.9067 74.5394 8.78495C74.5063 8.66319 74.3409 8.17616 74.1671 7.69783C73.8114 6.6542 73.5301 5.85408 73.2157 4.91481C73.0834 4.53215 72.8186 3.76682 72.6366 3.21891C72.4464 2.671 72.1899 1.91437 72.0741 1.5491L71.8507 0.870736H67.8548H63.8672L63.7762 1.10555ZM68.8641 9.52419C69.4019 11.2462 69.89 12.8029 69.9562 12.9769L70.072 13.3074H67.83C66.0844 13.3074 65.5963 13.2813 65.6211 13.1943C65.77 12.5681 67.8052 6.28893 67.8466 6.33241C67.8714 6.3672 68.3264 7.80219 68.8641 9.52419Z" fill="#3A3A3A"/>
<path d="M0 3.12334V5.28888L1.19959 5.5237L2.39917 5.75852V11.2985C2.39917 15.6208 2.42399 17.0037 2.515 17.6124C2.87073 19.9693 3.97932 21.8044 5.83247 23.0915C6.90796 23.8307 7.88418 24.2482 9.38987 24.6222C10.333 24.8483 13.0631 24.9527 14.1882 24.7961C18.2006 24.2395 21.0962 21.9174 21.9235 18.5865C22.2048 17.4472 22.2544 16.4557 22.2544 11.0289V5.75852L22.486 5.70633C22.6101 5.68024 23.1479 5.57588 23.6856 5.47152L24.6536 5.28888V3.12334V0.957806H19.152H13.6505V3.11465V5.27149L14.4612 5.42803C14.8997 5.515 15.4374 5.62806 15.6608 5.67155L16.0496 5.75852V11.3506C16.0496 16.3601 16.0331 16.9863 15.909 17.4037C15.5698 18.5343 14.8666 19.204 13.6753 19.5258C13.1127 19.6823 11.698 19.6997 11.0693 19.5606C10.1427 19.3518 9.28232 18.7256 8.93485 18.0038C8.53775 17.1776 8.5212 16.908 8.5212 11.1593V5.75852L9.76215 5.515L11.0031 5.27149V3.11465V0.957806H5.50155H0V3.12334Z" fill="#3A3A3A"/>
<path d="M30.1968 3.02752V5.11478L30.9662 5.25393C31.3798 5.3322 31.9258 5.43657 32.1658 5.48875L32.596 5.57572V12.6115V19.6387L32.0417 19.7343C31.7273 19.7952 31.1978 19.8822 30.8586 19.9431L30.2381 20.0561L30.2133 22.1173L30.1968 24.1785H36.7242C40.9269 24.1785 43.566 24.1437 44.112 24.0828C47.2392 23.7262 49.5639 22.3434 50.5401 20.2475C51.0613 19.1342 51.1689 18.595 51.1689 17.1339C51.1606 15.986 51.144 15.812 50.9372 15.1858C50.6808 14.4205 50.1596 13.5247 49.6549 12.9942C49.3405 12.6637 48.6787 12.1506 48.4553 12.0636C48.3974 12.0375 48.5629 11.8114 48.8193 11.5592C49.3984 10.9852 49.8369 10.2721 50.1182 9.44586C50.3085 8.90665 50.3333 8.68922 50.3333 7.69777C50.3416 6.38453 50.2175 5.78445 49.7459 4.7843C49.0261 3.27103 47.3633 2.05346 45.2123 1.47946C43.5411 1.02722 43.3095 1.01852 36.5504 0.983736L30.1968 0.948948V3.02752ZM42.598 6.14102C43.3095 6.30626 43.8555 6.66284 44.0375 7.07159C44.3684 7.80213 44.2857 8.72401 43.839 9.21104C43.2764 9.83722 42.5484 10.0025 40.356 10.0025H38.718V8.00216V6.00187H40.3809C41.5804 6.00187 42.1926 6.03666 42.598 6.14102ZM43.7728 14.838C44.6001 15.0989 45.0882 15.9164 45.0882 17.047C45.0799 18.0384 44.6828 18.6298 43.7976 18.9777C43.3509 19.1603 43.1358 19.1777 41.0179 19.2038L38.718 19.2386V16.9687V14.6988H41.0179C42.8958 14.6988 43.4005 14.7249 43.7728 14.838Z" fill="#3A3A3A"/>
</svg>
