<svg width="80" height="81" viewBox="0 0 80 81" fill="none" xmlns="http://www.w3.org/2000/svg">
<path d="M31.6584 1.14839C27.6131 1.89038 16.6908 7.08431 14.803 9.04047L13.522 10.5244L26.6018 23.6105L39.749 36.7639L43.5246 32.9865L47.3676 29.2091L44.9404 26.0388C40.2883 19.968 36.1082 8.7032 36.0408 2.1602C36.0408 1.14839 35.8385 0.406401 35.5688 0.406401C35.2317 0.473855 33.5462 0.743669 31.6584 1.14839ZM32.4674 9.24283C33.5462 14.3019 35.7037 19.6981 38.4005 24.2175C40.6929 27.9949 41.2997 30.0186 40.2209 30.0186C39.9512 30.0186 35.3666 25.6341 30.0403 20.3052L20.3315 10.5919L23.2981 9.10792C25.8601 7.75885 30.3774 5.9376 31.3213 5.80269C31.5235 5.73524 32.0629 7.35413 32.4674 9.24283Z" fill="#F9D110"/>
<path d="M41.4351 2.8345C41.4351 8.3657 45.4804 18.6861 49.256 23.138L51.2112 25.364L58.8972 17.6743L66.5159 9.98458L61.5941 6.88171C56.133 3.50903 50.4695 1.41797 45.0084 0.67598L41.4351 0.203804V2.8345ZM54.9194 8.3657C56.942 9.31005 58.6276 10.4568 58.6276 10.794C58.6276 11.1987 57.0094 12.9525 55.0542 14.8412C51.6157 18.0116 51.346 18.1465 50.4695 16.8649C49.5931 15.7181 47.7053 11.0638 46.4917 7.15153C46.0197 5.6001 46.0871 5.6001 48.5817 6.00482C50.065 6.27463 52.8967 7.35389 54.9194 8.3657Z" fill="#F9D110"/>
<path d="M8.26287 15.6508C4.89179 19.4957 0.307129 30.6255 0.307129 34.8751C0.307129 36.5615 0.576815 36.7638 2.53204 36.7638C8.86966 36.8313 19.9268 41.0134 25.5228 45.4653C26.9386 46.612 28.3545 47.5564 28.5568 47.5564C28.8264 47.5564 30.5794 45.9375 32.5346 43.9814L36.0405 40.4738L23.0282 27.4552C15.8815 20.3726 9.88099 14.5041 9.67872 14.5041C9.47646 14.5041 8.80224 15.0437 8.26287 15.6508ZM20.1965 30.693C27.2083 37.7756 29.4332 40.2714 28.8264 40.8785C28.2196 41.4856 27.5454 41.2832 26.0622 40.2039C22.354 37.6407 14.5331 34.2006 10.0158 33.3237C5.56601 32.4468 5.56601 32.4468 5.97054 30.4232C6.50991 27.725 9.54388 21.2495 10.2181 21.2495C10.5552 21.2495 15.005 25.4991 20.1965 30.693Z" fill="#F9D110"/>
<path d="M62.0657 21.8567L54.7168 29.2092L57.6833 31.3677C63.7513 35.7522 71.7744 38.7876 77.5053 38.7876H79.9999L79.5953 35.5498C78.8537 29.9512 76.3591 23.1383 73.5274 18.9562C71.9767 16.7302 70.426 14.8415 70.0889 14.7066C69.6844 14.5717 66.111 17.8095 62.0657 21.8567ZM71.9767 25.6341C72.9206 27.4554 73.9319 30.1535 74.1342 31.6375C74.6062 34.1333 74.6062 34.2007 73.0555 33.7286C69.4147 32.5819 64.83 30.6932 63.2793 29.6814L61.5938 28.6021L65.5042 24.9596C67.6617 23.0034 69.617 21.5195 69.8866 21.7893C70.1563 22.0591 71.1002 23.7454 71.9767 25.6341Z" fill="#F9D110"/>
<path d="M46.963 36.9666L43.457 40.4742L56.4694 53.4927C63.6161 60.5754 69.6166 66.4438 69.8863 66.4438C70.156 66.4438 71.5718 64.6901 72.9877 62.5315C75.8868 58.2145 78.3814 52.2111 79.123 47.4894L79.595 44.454L74.4709 43.6445C67.9985 42.7002 61.2563 40.0695 55.7952 36.2921C53.4354 34.6732 51.2779 33.3916 51.0082 33.3916C50.7386 33.3916 48.9182 35.0105 46.963 36.9666ZM58.3572 43.0374C61.8631 44.7912 66.8523 46.7474 69.4817 47.3545L74.2687 48.5012L73.6619 50.8621C73.2574 52.2111 72.246 54.7744 71.3021 56.5956L69.6166 59.9008L59.9753 50.255C54.649 44.9261 50.4689 40.2718 50.6037 40.002C51.0757 39.26 50.5363 39.0577 58.3572 43.0374Z" fill="#F9D110"/>
<path d="M0.914538 42.0254C-2.3217 42.7 3.67882 60.5077 8.80286 65.7691C9.67934 66.646 10.6907 65.8366 17.3654 59.1587L24.9166 51.5364L23.2311 50.2548C17.298 45.533 5.22952 41.0811 0.914538 42.0254ZM10.7581 48.5685C18.3093 51.4015 18.3093 51.334 13.9943 55.9209C10.5558 59.5634 10.2861 59.6983 9.34223 58.5516C8.39833 57.27 6.03857 51.5364 5.29694 48.5685C4.75757 46.4774 5.22952 46.4774 10.7581 48.5685Z" fill="#F9D110"/>
<path d="M36.0406 47.8936L32.4673 51.5361L35.299 55.5833C39.9511 62.3287 43.3896 71.7048 43.457 77.8431V80.1365L46.6932 79.7318C48.4462 79.5294 51.615 78.7199 53.7051 77.9105C57.6829 76.4265 65.7061 71.5699 65.7061 70.6255C65.7061 70.2208 42.985 47.1516 39.8162 44.386C39.7488 44.3186 38.0633 45.87 36.0406 47.8936ZM49.862 60.44C58.8291 69.4113 59.2336 69.951 58.0201 70.8953C56.5368 71.9746 49.9295 74.5378 48.581 74.5378C48.0417 74.5378 47.4349 73.1213 46.9629 70.9628C45.9516 66.0387 43.8615 60.6424 41.0972 56.0555C39.0072 52.4805 38.6026 50.929 39.9511 50.929C40.2208 50.929 44.6706 55.1786 49.862 60.44Z" fill="#F9D110"/>
<path d="M20.8714 63.0709L13.4551 70.5582L15.1406 71.9073C20.4669 76.0894 29.1643 79.6645 35.03 80.0017L38.4011 80.2041L38.1314 77.3036C37.8617 73.3238 36.311 67.6577 34.6254 64.2176C32.7376 60.6425 29.3666 55.651 28.7598 55.651C28.4901 55.651 24.9167 59.0237 20.8714 63.0709ZM30.5127 66.5785C31.6589 68.9393 32.7376 71.8398 33.0073 73.1215C33.4793 75.3474 33.4119 75.4149 31.7263 74.9427C28.6923 74.2007 22.9615 71.8398 21.6805 70.8955C20.5343 70.0186 20.6692 69.6813 24.0403 66.2412C25.9955 64.2176 27.8159 62.5312 28.0856 62.4638C28.3552 62.4638 29.434 64.285 30.5127 66.5785Z" fill="#F9D110"/>
</svg>
