<svg width="65" height="20" viewBox="0 0 65 20" fill="none" xmlns="http://www.w3.org/2000/svg">
<g clip-path="url(#clip0_485_948)">
<path d="M51.1735 0.202247C51.0536 0.524344 50.2921 2.75655 49.1851 6.02996C48.9313 6.77154 48.6563 7.56554 48.5717 7.79026C48.4871 8.01498 48.3602 8.38951 48.2897 8.61423C48.2192 8.83895 48.0359 9.39326 47.8807 9.85019C47.7256 10.2996 47.3731 11.3483 47.0981 12.1723C46.8161 12.9963 46.5481 13.7903 46.4917 13.9326C46.4353 14.0749 46.259 14.5993 46.0969 15.0936C45.9277 15.588 45.7866 16.0075 45.7796 16.015C45.7725 16.03 45.4129 16.0974 44.9828 16.1648L44.2002 16.2772V18.1423V20H48.1839H52.1677L52.1536 18.1423L52.1324 16.2921L51.5824 16.1873C51.2299 16.1273 51.0395 16.0599 51.0607 16C51.0748 15.9551 51.1523 15.7228 51.2228 15.4831L51.3498 15.0562L54.6213 15.0712L57.9 15.0936L58.034 15.5655C58.1115 15.8277 58.1609 16.0599 58.1397 16.0749C58.1186 16.0974 57.8788 16.1573 57.6039 16.2022L57.1032 16.2846V18.1423V20H61.0517H65.0002V18.1273C65.0002 17.0262 64.972 16.2547 64.9367 16.2547C64.831 16.2547 63.7804 16.1049 63.6112 16.0674C63.5054 16.0375 63.4208 15.9101 63.315 15.603C62.9343 14.4569 61.4818 10.1498 61.2209 9.40075C61.1645 9.23595 61.0376 8.86142 60.946 8.57678C60.8543 8.28464 60.6921 7.81273 60.5934 7.52809C60.4877 7.23595 60.3819 6.92135 60.3466 6.81648C60.3184 6.71161 60.1774 6.29213 60.0293 5.88015C59.7262 4.98127 59.4864 4.29213 59.2185 3.48315C59.1057 3.15356 58.8801 2.49438 58.7249 2.02247C58.5628 1.55056 58.3442 0.898876 58.2455 0.584269L58.0551 -2.04891e-07H54.6496H51.251L51.1735 0.202247ZM55.5098 7.45318C55.9681 8.93633 56.3841 10.2772 56.4405 10.427L56.5392 10.7116H54.6284C53.1407 10.7116 52.7247 10.6891 52.7458 10.6142C52.8727 10.0749 54.6072 4.66667 54.6425 4.70412C54.6637 4.73408 55.0514 5.97004 55.5098 7.45318Z" fill="white"/>
<path d="M0 1.81118V3.62235L1.01208 3.81875L2.02416 4.01514V8.64855C2.02416 12.2636 2.0451 13.4202 2.12188 13.9293C2.42201 15.9005 3.35732 17.4353 4.92081 18.5118C5.82819 19.1301 6.65181 19.4792 7.92215 19.792C8.71785 19.9811 11.0212 20.0684 11.9705 19.9375C15.3557 19.472 17.7987 17.5299 18.4966 14.744C18.734 13.7911 18.7758 12.9619 18.7758 8.42306V4.01514L18.9713 3.9715C19.076 3.94967 19.5297 3.86239 19.9834 3.7751L20.8 3.62235V1.81118V7.97862e-08H16.1584H11.5168V1.8039V3.60781L12.2008 3.73873C12.5707 3.81147 13.0244 3.90603 13.2129 3.9424L13.5409 4.01514V8.69219C13.5409 12.8819 13.527 13.4056 13.4223 13.7548C13.1361 14.7004 12.5428 15.2604 11.5377 15.5296C11.0631 15.6605 9.86953 15.675 9.33906 15.5587C8.55732 15.3841 7.83141 14.8604 7.53825 14.2566C7.20322 13.5656 7.18926 13.3402 7.18926 8.53217V4.01514L8.23624 3.81147L9.28322 3.60781V1.8039V7.97862e-08H4.64161H0V1.81118Z" fill="white"/>
<path d="M23.3999 1.78959V3.58667L24.1153 3.70648C24.4999 3.77387 25.0076 3.86372 25.2307 3.90865L25.6307 3.98353V10.0412V16.0914L25.1153 16.1737C24.823 16.2261 24.3307 16.301 24.0153 16.3534L23.4384 16.4508L23.4153 18.2254L23.3999 20H29.4691C33.3768 20 35.8307 19.97 36.3384 19.9176C39.2461 19.6106 41.4076 18.4201 42.3153 16.6155C42.7999 15.6571 42.8999 15.1928 42.8999 13.9349C42.8922 12.9465 42.8768 12.7967 42.6845 12.2576C42.4461 11.5987 41.9614 10.8274 41.4922 10.3706C41.1999 10.0861 40.5845 9.64433 40.3768 9.56945C40.323 9.54699 40.4768 9.3523 40.7153 9.13516C41.2537 8.64096 41.6614 8.02696 41.923 7.31561C42.0999 6.85137 42.123 6.66417 42.123 5.81056C42.1307 4.6799 42.0153 4.16324 41.5768 3.30213C40.9076 1.99925 39.3614 0.950955 37.3614 0.456758C35.8076 0.0673909 35.5922 0.0599031 29.3076 0.0299518L23.3999 4.53088e-07V1.78959ZM34.9307 4.47024C35.5922 4.61251 36.0999 4.91951 36.2691 5.27143C36.5768 5.90041 36.4999 6.69412 36.0845 7.11344C35.5614 7.65256 34.8845 7.79483 32.8461 7.79483H31.323V6.07263V4.35043H32.8691C33.9845 4.35043 34.5537 4.38038 34.9307 4.47024ZM36.023 11.9581C36.7922 12.1827 37.2461 12.8866 37.2461 13.86C37.2384 14.7136 36.8691 15.2228 36.0461 15.5223C35.6307 15.6795 35.4307 15.6945 33.4614 15.717L31.323 15.7469V13.7926V11.8383H33.4614C35.2076 11.8383 35.6768 11.8607 36.023 11.9581Z" fill="white"/>
</g>
<defs>
<clipPath id="clip0_485_948">
<rect width="65" height="20" fill="white"/>
</clipPath>
</defs>
</svg>
