<svg width="100" height="30" viewBox="0 0 100 30" fill="none" xmlns="http://www.w3.org/2000/svg">
<g clip-path="url(#clip0_485_948)">
<path d="M78.7281 0.30337C78.5437 0.786517 77.3722 4.13483 75.6692 9.04494C75.2786 10.1573 74.8556 11.3483 74.7254 11.6854C74.5953 12.0225 74.4 12.5843 74.2915 12.9213C74.1831 13.2584 73.901 14.0899 73.6624 14.7753C73.4237 15.4494 72.8814 17.0225 72.4583 18.2584C72.0244 19.4944 71.6122 20.6854 71.5254 20.8989C71.4386 21.1124 71.1675 21.8989 70.918 22.6404C70.6576 23.382 70.4407 24.0112 70.4298 24.0225C70.419 24.0449 69.8658 24.1461 69.2041 24.2472L68 24.4157V27.2135V30H74.1288H80.2576L80.2359 27.2135L80.2034 24.4382L79.3573 24.2809C78.8149 24.191 78.522 24.0899 78.5546 24C78.5763 23.9326 78.6956 23.5843 78.8041 23.2247L78.9993 22.5843L84.0325 22.6067L89.0766 22.6404L89.2827 23.3483C89.402 23.7416 89.478 24.0899 89.4454 24.1124C89.4129 24.1461 89.0441 24.236 88.621 24.3034L87.8508 24.427V27.2135V30H93.9254H100V27.191C100 25.5393 99.9566 24.382 99.9024 24.382C99.7397 24.382 98.1234 24.1573 97.8631 24.1011C97.7003 24.0562 97.5702 23.8652 97.4075 23.4045C96.8217 21.6854 94.5871 15.2247 94.1858 14.1011C94.099 13.8539 93.9037 13.2921 93.7627 12.8652C93.6217 12.427 93.3722 11.7191 93.2203 11.2921C93.0576 10.8539 92.8949 10.382 92.8407 10.2247C92.7973 10.0674 92.5803 9.4382 92.3525 8.82022C91.8861 7.47191 91.5173 6.4382 91.1051 5.22472C90.9315 4.73034 90.5844 3.74157 90.3458 3.03371C90.0963 2.32584 89.76 1.34831 89.6081 0.876404L89.3153 -3.07336e-07H84.0759H78.8475L78.7281 0.30337ZM85.3993 11.1798C86.1044 13.4045 86.7444 15.4157 86.8312 15.6404L86.9831 16.0674H84.0434C81.7546 16.0674 81.1146 16.0337 81.1471 15.9213C81.3424 15.1124 84.0108 7 84.0651 7.05618C84.0976 7.10112 84.6942 8.95506 85.3993 11.1798Z" fill="#3A3A3A"/>
<path d="M0 2.71676V5.43353L1.55705 5.72812L3.11409 6.02271V12.9728C3.11409 18.3954 3.14631 20.1302 3.26443 20.894C3.72617 23.8508 5.1651 26.153 7.57047 27.7677C8.96644 28.6951 10.2336 29.2189 12.1879 29.688C13.4121 29.9717 16.9557 30.1026 18.4161 29.9062C23.6242 29.2079 27.3826 26.2948 28.4564 22.116C28.8215 20.6867 28.8859 19.4429 28.8859 12.6346V6.02271L29.1866 5.95724C29.3477 5.92451 30.0456 5.79358 30.7436 5.66265L32 5.43353V2.71676V-5.2051e-07H24.8591H17.7181V2.70585V5.41171L18.7705 5.6081C19.3396 5.71721 20.0376 5.85905 20.3275 5.9136L20.8322 6.02271V13.0383C20.8322 19.3229 20.8107 20.1084 20.6497 20.6321C20.2094 22.0505 19.2966 22.8907 17.7503 23.2943C17.0201 23.4907 15.1839 23.5126 14.3678 23.338C13.1651 23.0761 12.0483 22.2906 11.5973 21.385C11.0819 20.3485 11.0604 20.0102 11.0604 12.7983V6.02271L12.6711 5.71721L14.2819 5.41171V2.70585V-5.2051e-07H7.14094H0V2.71676Z" fill="#3A3A3A"/>
<path d="M36 2.68439V5.38001L37.1006 5.55972C37.6923 5.6608 38.4734 5.79558 38.8166 5.86297L39.432 5.97529V15.0618V24.137L38.6391 24.2606C38.1893 24.3392 37.432 24.4515 36.9467 24.5301L36.0592 24.6762L36.0237 27.3381L36 30H45.3373C51.3491 30 55.1243 29.9551 55.9053 29.8765C60.3787 29.4159 63.7041 27.6301 65.1006 24.9232C65.8462 23.4856 66 22.7892 66 20.9023C65.9882 19.4197 65.9645 19.1951 65.6686 18.3864C65.3018 17.398 64.5562 16.2411 63.8343 15.556C63.3846 15.1292 62.4379 14.4665 62.1183 14.3542C62.0355 14.3205 62.2722 14.0285 62.6391 13.7027C63.4675 12.9614 64.0947 12.0404 64.497 10.9734C64.7692 10.277 64.8047 9.99626 64.8047 8.71584C64.8166 7.01984 64.6391 6.24485 63.9645 4.9532C62.9349 2.99888 60.5562 1.42643 57.4793 0.685137C55.0888 0.101086 54.7574 0.089854 45.0888 0.0449271L36 5.7742e-08V2.68439ZM53.7396 6.70535C54.7574 6.91876 55.5385 7.37926 55.7988 7.90715C56.2722 8.85062 56.1538 10.0412 55.5148 10.6702C54.7101 11.4788 53.6686 11.6923 50.5325 11.6923H48.1893V9.10895V6.52565H50.568C52.284 6.52565 53.1598 6.57057 53.7396 6.70535ZM55.4201 17.9371C56.6036 18.2741 57.3018 19.3298 57.3018 20.79C57.2899 22.0704 56.7219 22.8341 55.4556 23.2834C54.8166 23.5193 54.5089 23.5417 51.4793 23.5754L48.1893 23.6204V20.6889V17.7574H51.4793C54.1657 17.7574 54.8876 17.7911 55.4201 17.9371Z" fill="#3A3A3A"/>
</g>
<defs>
<clipPath id="clip0_485_948">
<rect width="100" height="30" fill="white"/>
</clipPath>
</defs>
</svg>
