<svg width="101" height="101" viewBox="0 0 101 101" fill="none" xmlns="http://www.w3.org/2000/svg">
<path d="M17.9985 89.688C22.7953 94.0385 36.7464 100.139 42.0954 100.272C44.218 100.324 44.4761 99.992 44.5009 97.5383C44.666 89.5869 50.0701 75.8411 55.7447 68.9572C57.206 67.2161 58.4126 65.4687 58.4151 65.2149C58.4185 64.8764 56.4031 62.6261 53.9656 60.1113L49.595 55.6022L33.0437 71.5262C24.0383 80.2742 16.5756 87.6216 16.5731 87.8754C16.5705 88.1293 17.2412 88.9922 17.9985 89.688ZM37.0833 75.1809C46.087 66.6021 49.2566 63.8878 50.0131 64.6682C50.7695 65.4486 50.5063 66.2884 49.129 68.1162C45.8557 72.6899 41.4265 82.3976 40.2656 88.0392C39.1054 93.5962 39.1054 93.5962 36.5635 93.0254C33.1741 92.2644 25.0618 88.255 25.0703 87.4089C25.0746 86.9858 30.4799 81.534 37.0833 75.1809Z" fill="white"/>
<path d="M51.103 99.7326C51.9111 103.815 74.4017 96.8398 81.0891 90.5734C82.204 89.5008 81.1979 88.2064 72.877 79.6217L63.3785 69.9076L61.744 71.9829C55.7255 79.2814 49.969 94.288 51.103 99.7326ZM59.4634 87.5834C63.125 78.1953 63.0401 78.1931 68.7589 83.7513C73.3002 88.18 73.4665 88.5227 72.0112 89.6715C70.3861 90.8161 63.1394 93.5987 59.3942 94.4369C56.7554 95.0486 56.7613 94.4563 59.4634 87.5834Z" fill="white"/>
<path d="M90.0723 20.3121C94.2668 25.2423 99.8965 39.3528 99.8427 44.6858C99.8213 46.8021 99.4793 47.0476 97.0183 46.9867C89.0402 46.8737 75.0696 51.7774 67.9696 57.1899C66.1729 58.5848 64.3788 59.7258 64.1242 59.7195C63.7848 59.7111 61.5988 57.6248 59.1626 55.1089L54.7941 50.5977L71.3377 34.6657C80.4229 26.0002 88.0501 18.8226 88.3047 18.8289C88.5593 18.8352 89.4011 19.5334 90.0723 20.3121ZM74.8609 38.8173C65.9454 47.4871 63.1133 50.5498 63.8694 51.3306C64.6255 52.1113 65.4766 51.8784 67.3573 50.5702C72.0573 47.4691 81.945 43.3957 87.642 42.4361C93.2541 41.4744 93.2541 41.4744 92.7705 38.9222C92.1258 35.5194 88.389 27.2982 87.5403 27.2772C87.116 27.2667 81.4612 32.461 74.8609 38.8173Z" fill="white"/>
<path d="M98.9879 53.6401C103.053 54.5875 95.2744 76.7484 88.7582 83.1914C87.6438 84.2646 86.3811 83.2172 78.0642 74.6286L68.6561 64.8275L70.7939 63.2717C78.3217 57.5311 93.5686 52.3204 98.9879 53.6401ZM86.515 61.5443C76.9744 64.8642 76.9752 64.7796 82.3484 70.6704C86.6303 75.3488 86.9681 75.5265 88.1707 74.1169C89.375 72.5379 92.4178 65.4162 93.3889 61.7146C94.0943 59.1072 93.5003 59.0925 86.515 61.5443Z" fill="white"/>
<path d="M10.1523 81.5896C5.95785 76.6594 0.328104 62.549 0.38193 57.2159C0.40329 55.0996 0.745307 54.8541 3.20635 54.9151C11.1844 55.028 25.155 50.1244 32.255 44.7119C34.0517 43.3169 35.8458 42.176 36.1004 42.1823C36.4398 42.1907 38.6258 44.277 41.062 46.7928L45.4305 51.304L28.887 67.236C19.8017 75.9016 12.1745 83.0792 11.9199 83.0729C11.6653 83.0666 10.8235 82.3683 10.1523 81.5896ZM25.3637 63.0845C34.2792 54.4147 37.1113 51.352 36.3552 50.5712C35.5992 49.7904 34.748 50.0233 32.8673 51.3315C28.1673 54.4326 18.2796 58.506 12.5826 59.4656C6.97053 60.4274 6.97053 60.4274 7.45408 62.9795C8.09881 66.3824 11.8356 74.6035 12.6843 74.6245C13.1086 74.6351 18.7634 69.4408 25.3637 63.0845Z" fill="white"/>
<path d="M1.23667 48.2617C-2.82823 47.3143 4.95018 25.1534 11.4665 18.7103C12.5808 17.6372 13.8435 18.6845 22.1604 27.2731L31.5686 37.0742L29.4307 38.63C21.9029 44.3706 6.65598 49.5813 1.23667 48.2617ZM13.7096 40.3574C23.2502 37.0375 23.2494 37.1221 17.8762 31.2313C13.5943 26.5529 13.2566 26.3752 12.0539 27.7849C10.8496 29.3638 7.80677 36.4856 6.83568 40.1871C6.13028 42.7945 6.72433 42.8092 13.7096 40.3574Z" fill="white"/>
<path d="M82.2261 12.2134C77.4292 7.86292 63.4782 1.76233 58.1292 1.62983C56.0066 1.57725 55.7485 1.90939 55.7237 4.36311C55.5585 12.3145 50.1544 26.0603 44.4799 32.9442C43.0186 34.6853 41.812 36.4327 41.8094 36.6865C41.806 37.0249 43.8215 39.2753 46.259 41.79L50.6296 46.2992L67.1809 30.3751C76.1863 21.6272 83.6489 14.2798 83.6515 14.0259C83.654 13.7721 82.9834 12.9092 82.2261 12.2134ZM63.1413 26.7205C54.1376 35.2992 50.968 38.0136 50.2115 37.2332C49.4551 36.4527 49.7183 35.6129 51.0956 33.7851C54.3689 29.2114 58.7981 19.5038 59.959 13.8622C61.1191 8.30522 61.1191 8.30521 63.6611 8.87597C67.0505 9.63699 75.1628 13.6464 75.1543 14.4925C75.15 14.9156 69.7447 20.3674 63.1413 26.7205Z" fill="white"/>
<path d="M49.1216 2.16879C48.3135 -1.91357 25.8229 5.06158 19.1355 11.328C18.0206 12.4006 19.0266 13.695 27.3476 22.2797L36.8461 31.9938L38.4806 29.9185C44.499 22.6199 50.2556 7.61335 49.1216 2.16879ZM40.7612 14.318C37.0996 23.7061 37.1845 23.7082 31.4657 18.1501C26.9244 13.7214 26.758 13.3787 28.2134 12.2299C29.8385 11.0853 37.0852 8.30269 40.8304 7.46451C43.4692 6.85282 43.4633 7.4451 40.7612 14.318Z" fill="white"/>
</svg>
