<svg width="120" height="121" viewBox="0 0 120 121" fill="none" xmlns="http://www.w3.org/2000/svg">
<path d="M47.4878 1.62066C41.4199 2.73365 25.0364 10.5245 22.2047 13.4588L20.2832 15.6847L39.9029 35.3138L59.6237 55.0439L65.2871 49.3778L71.0516 43.7117L67.4109 38.9563C60.4327 29.85 54.1625 12.9529 54.0614 3.13837C54.0614 1.62066 53.758 0.507675 53.3535 0.507675C52.8478 0.608856 50.3195 1.01358 47.4878 1.62066ZM48.7014 13.7623C50.3195 21.3509 53.5557 29.4453 57.601 36.2244C61.0395 41.8905 61.9497 44.9259 60.3316 44.9259C59.9271 44.9259 53.0501 38.3492 45.0606 30.3559L30.4976 15.7859L34.9474 13.56C38.7904 11.5363 45.5663 8.80447 46.9821 8.60211C47.2855 8.50093 48.0946 10.9293 48.7014 13.7623Z" fill="#A80D1C"/>
<path d="M62.1523 4.15006C62.1523 12.4469 68.2203 27.9275 73.8837 34.6054L76.8165 37.9443L88.3456 26.4098L99.7736 14.8752L92.3909 10.2209C84.1992 5.16186 75.7041 2.02527 67.5124 0.912283L62.1523 0.20402V4.15006ZM82.3788 12.4469C85.4128 13.8634 87.9411 15.5835 87.9411 16.0894C87.9411 16.6964 85.5139 19.3271 82.5811 22.1602C77.4233 26.9157 77.0188 27.118 75.7041 25.1956C74.3894 23.4755 71.5576 16.4941 69.7373 10.6256C69.0293 8.29846 69.1305 8.29846 72.8724 8.90554C75.0973 9.31026 79.3448 10.9292 82.3788 12.4469Z" fill="#A80D1C"/>
<path d="M12.3946 23.3741C7.33794 29.1413 0.460938 45.8361 0.460938 52.2105C0.460938 54.74 0.865467 55.0435 3.7983 55.0435C13.3047 55.1447 29.8904 61.4179 38.2844 68.0958C40.4082 69.8159 42.532 71.2324 42.8354 71.2324C43.2399 71.2324 45.8693 68.8041 48.8022 65.8699L54.0611 60.6085L34.5425 41.0806C23.8225 30.4567 14.8217 21.654 14.5183 21.654C14.2149 21.654 13.2036 22.4634 12.3946 23.3741ZM30.295 45.9373C40.8127 56.5613 44.1501 60.3049 43.2399 61.2156C42.3297 62.1262 41.3184 61.8226 39.0935 60.2038C33.5312 56.3589 21.7999 51.1987 15.024 49.8833C8.34926 48.568 8.34926 48.568 8.95605 45.5326C9.76511 41.4854 14.3161 31.772 15.3274 31.772C15.833 31.772 22.5078 38.1464 30.295 45.9373Z" fill="#A80D1C"/>
<path d="M93.0986 32.6828L82.0752 43.7115L86.525 46.9492C95.6269 53.526 107.662 58.0791 116.258 58.0791H120L119.393 53.2224C118.281 44.8245 114.539 34.6052 110.291 28.332C107.965 24.9931 105.639 22.16 105.133 21.9577C104.527 21.7553 99.1666 26.612 93.0986 32.6828ZM107.965 38.3489C109.381 41.0808 110.898 45.128 111.201 47.354C111.909 51.0976 111.909 51.1988 109.583 50.4906C104.122 48.7705 97.245 45.9374 94.919 44.4197L92.3907 42.8008L98.2564 37.3371C101.493 34.4029 104.425 32.1769 104.83 32.5816C105.234 32.9863 106.65 35.5158 107.965 38.3489Z" fill="#A80D1C"/>
<path d="M70.4444 55.3476L65.1855 60.609L84.7041 80.1368C95.4241 90.7608 104.425 99.5635 104.829 99.5635C105.234 99.5635 107.358 96.9328 109.481 93.695C113.83 87.2195 117.572 78.2144 118.685 71.1318L119.392 66.5786L111.706 65.3645C101.998 63.948 91.8845 60.0019 83.6928 54.3358C80.1531 51.9075 76.9169 49.985 76.5124 49.985C76.1078 49.985 73.3773 52.4134 70.4444 55.3476ZM87.5358 64.4539C92.7947 67.0845 100.278 70.0188 104.223 70.9294L111.403 72.6495L110.493 76.1908C109.886 78.2144 108.369 82.0593 106.953 84.7911L104.425 89.749L89.963 75.2802C81.9735 67.2869 75.7033 60.3055 75.9056 59.9007C76.6135 58.7877 75.8044 58.4842 87.5358 64.4539Z" fill="#A80D1C"/>
<path d="M1.37181 62.9367C-3.48254 63.9485 5.51823 90.6602 13.2043 98.5523C14.519 99.8676 16.036 98.6534 26.0481 88.6366L37.3749 77.2032L34.8466 75.2807C25.947 68.1981 7.84427 61.5202 1.37181 62.9367ZM16.1371 72.7512C27.4639 77.0008 27.4639 76.8996 20.9915 83.7799C15.8337 89.2437 15.4292 89.446 14.0133 87.7259C12.5975 85.8035 9.05786 77.2032 7.94541 72.7512C7.13635 69.6146 7.84427 69.6146 16.1371 72.7512Z" fill="#A80D1C"/>
<path d="M54.0612 71.7383L48.7012 77.202L52.9487 83.2728C59.9269 93.3909 65.0846 107.455 65.1857 116.662V120.103L70.0401 119.495C72.6695 119.192 77.4228 117.978 80.5579 116.764C86.5247 114.538 98.5594 107.253 98.5594 105.836C98.5594 105.229 64.4778 70.6253 59.7246 66.4769C59.6235 66.3757 57.0952 68.7029 54.0612 71.7383ZM74.7933 90.5578C88.2439 104.015 88.8507 104.824 87.0303 106.241C84.8054 107.86 74.8944 111.705 72.8718 111.705C72.0627 111.705 71.1525 109.58 70.4446 106.342C68.9276 98.9558 65.7925 90.8614 61.6461 83.9811C58.511 78.6185 57.9042 76.2914 59.9269 76.2914C60.3314 76.2914 67.0061 82.6658 74.7933 90.5578Z" fill="#A80D1C"/>
<path d="M31.3072 94.5043L20.1826 105.735L22.7109 107.759C30.7004 114.032 43.7464 119.395 52.545 119.901L57.6016 120.204L57.197 115.853C56.7925 109.884 54.4665 101.385 51.9382 96.2243C49.1065 90.8618 44.0498 83.3744 43.1397 83.3744C42.7351 83.3744 37.3751 88.4334 31.3072 94.5043ZM45.7691 99.7656C47.4883 103.307 49.1065 107.658 49.511 109.58C50.2189 112.919 50.1178 113.02 47.5895 112.312C43.0385 111.199 34.4423 107.658 32.5208 106.241C30.8015 104.926 31.0038 104.42 36.0604 99.2597C38.9932 96.2243 41.7238 93.6948 42.1283 93.5936C42.5329 93.5936 44.151 96.3255 45.7691 99.7656Z" fill="#A80D1C"/>
</svg>
