<svg width="300" height="200" viewBox="0 0 300 200" fill="none" xmlns="http://www.w3.org/2000/svg">
<g clip-path="url(#clip0_539_943)">
<path d="M235.82 107.39C235.269 108.884 231.759 119.238 226.658 134.421C225.489 137.861 224.222 141.544 223.832 142.586C223.441 143.628 222.857 145.366 222.532 146.408C222.208 147.45 221.363 150.022 220.648 152.141C219.933 154.226 218.308 159.09 217.041 162.912C215.742 166.734 214.506 170.417 214.246 171.077C213.986 171.737 213.174 174.169 212.426 176.462C211.647 178.755 210.996 180.701 210.965 180.736C210.932 180.805 209.275 181.118 207.292 181.431L203.687 181.952V190.603V199.22H222.045H240.403L240.338 190.603L240.239 182.021L237.706 181.535C236.081 181.257 235.205 180.944 235.302 180.666C235.366 180.458 235.723 179.381 236.05 178.269L236.634 176.289L251.709 176.358L266.819 176.462L267.437 178.651C267.794 179.867 268.022 180.944 267.925 181.014C267.826 181.118 266.722 181.396 265.454 181.604L263.148 181.987V190.603V199.22H281.343H299.539V190.534C299.539 185.426 299.409 181.848 299.246 181.848C298.758 181.848 293.918 181.153 293.137 180.979C292.65 180.84 292.261 180.249 291.774 178.825C290.019 173.509 283.326 153.531 282.124 150.056C281.863 149.292 281.279 147.555 280.855 146.234C280.434 144.879 279.686 142.69 279.231 141.37C278.744 140.015 278.256 138.556 278.093 138.069C277.963 137.583 277.314 135.637 276.632 133.726C275.234 129.557 274.131 126.36 272.895 122.608C272.375 121.079 271.335 118.022 270.621 115.833C269.873 113.644 268.867 110.621 268.412 109.162L267.534 106.452H251.84H236.178L235.82 107.39ZM255.804 141.023C257.915 147.902 259.833 154.121 260.093 154.816L260.547 156.137H251.742C244.888 156.137 242.97 156.032 243.067 155.685C243.652 153.183 251.645 128.098 251.808 128.271C251.905 128.41 253.693 134.143 255.804 141.023Z" fill="white"/>
<path d="M0 114.853V123.254L4.66385 124.165L9.32789 125.075V146.567C9.32789 163.335 9.42449 168.7 9.77822 171.062C11.1613 180.205 15.4714 187.324 22.6765 192.317C26.858 195.185 30.6534 196.804 36.5075 198.255C40.1745 199.132 50.789 199.537 55.1635 198.93C70.7636 196.771 82.0211 187.762 85.2377 174.84C86.3319 170.421 86.5244 166.574 86.5244 145.521V125.075L87.4243 124.873C87.9082 124.772 89.9976 124.367 92.0889 123.962L95.8517 123.254V114.853V106.452H74.4626H53.0728V114.819V123.186L56.2249 123.793C57.9296 124.131 60.0203 124.569 60.8889 124.738L62.4007 125.075V146.77C62.4007 166.203 62.3363 168.632 61.8537 170.252C60.535 174.638 57.8009 177.236 53.1692 178.484C50.982 179.092 45.4817 179.159 43.0372 178.619C39.4346 177.809 36.0894 175.38 34.7384 172.58C33.1945 169.375 33.1301 168.329 33.1301 146.027V125.075L37.9551 124.131L42.7799 123.186V114.819V106.452H21.3898H0V114.853Z" fill="white"/>
<path d="M107.835 114.753V123.088L111.13 123.644C112.903 123.956 115.243 124.373 116.272 124.582L118.115 124.929V153.027V181.09L115.74 181.472C114.393 181.715 112.124 182.062 110.67 182.306L108.011 182.757L107.905 190.989L107.835 199.22H135.804C153.812 199.22 165.119 199.081 167.459 198.838C180.859 197.414 190.819 191.891 195.001 183.521C197.236 179.076 197.696 176.922 197.696 171.087C197.661 166.503 197.589 165.808 196.704 163.307C195.604 160.251 193.372 156.674 191.209 154.555C189.862 153.235 187.027 151.186 186.07 150.839C185.821 150.735 186.53 149.832 187.63 148.824C190.11 146.532 191.988 143.684 193.194 140.385C194.01 138.231 194.116 137.363 194.116 133.403C194.151 128.159 193.619 125.762 191.6 121.768C188.515 115.725 181.391 110.863 172.173 108.57C165.012 106.764 164.021 106.73 135.058 106.591L107.835 106.452V114.753ZM160.971 127.187C164.021 127.846 166.36 129.27 167.14 130.903C168.557 133.82 168.203 137.502 166.29 139.447C163.878 141.947 160.758 142.607 151.365 142.607H144.347V134.619V126.631H151.471C156.612 126.631 159.235 126.77 160.971 127.187ZM166.006 161.918C169.551 162.96 171.642 166.225 171.642 170.74C171.607 174.699 169.904 177.061 166.112 178.45C164.197 179.18 163.277 179.249 154.2 179.354L144.347 179.492V170.427V161.362H154.2C162.248 161.362 164.409 161.467 166.006 161.918Z" fill="white"/>
<path d="M119.711 82.3201C124.132 86.356 136.99 92.0153 141.92 92.1382C143.876 92.1871 144.114 91.8788 144.137 89.6027C144.289 82.2263 149.27 69.4745 154.5 63.0885C155.847 61.4732 156.959 59.8521 156.961 59.6167C156.964 59.3027 155.107 57.2151 152.86 54.8824L148.832 50.6992L133.577 65.4716C125.277 73.587 118.399 80.4031 118.397 80.6385C118.395 80.8741 119.013 81.6746 119.711 82.3201ZM137.3 68.8621C145.599 60.9037 148.52 58.3857 149.217 59.1096C149.914 59.8337 149.672 60.6128 148.402 62.3083C145.386 66.5512 141.303 75.5567 140.233 80.7905C139.164 85.9455 139.164 85.9455 136.821 85.416C133.698 84.7102 126.221 80.9907 126.229 80.2057C126.233 79.8133 131.214 74.7557 137.3 68.8621Z" fill="white"/>
<path d="M150.222 91.6383C150.967 95.4254 171.695 88.9547 177.859 83.1414C178.886 82.1465 177.959 80.9457 170.29 72.9818L161.536 63.9702L160.029 65.8955C154.482 72.6662 149.177 86.5876 150.222 91.6383ZM157.927 80.3677C161.302 71.6585 161.224 71.6565 166.494 76.8128C170.68 80.9212 170.833 81.2391 169.492 82.3048C167.994 83.3667 161.315 85.948 157.863 86.7256C155.431 87.293 155.437 86.7436 157.927 80.3677Z" fill="white"/>
<path d="M186.138 17.9612C190.004 22.5348 195.193 35.6249 195.143 40.5722C195.124 42.5355 194.808 42.7633 192.54 42.7067C185.187 42.6019 172.311 47.151 165.767 52.1721C164.111 53.466 162.458 54.5246 162.223 54.5187C161.91 54.511 159.895 52.5755 157.65 50.2417L153.624 46.0567L168.871 31.2769C177.245 23.2379 184.274 16.5794 184.509 16.5852C184.744 16.5911 185.52 17.2388 186.138 17.9612ZM172.119 35.1281C163.901 43.1708 161.291 46.0122 161.988 46.7365C162.685 47.4608 163.469 47.2447 165.203 46.0312C169.535 43.1542 178.648 39.3755 183.898 38.4851C189.071 37.593 189.071 37.593 188.625 35.2255C188.031 32.0687 184.587 24.4422 183.805 24.4226C183.414 24.4128 178.202 29.2315 172.119 35.1281Z" fill="white"/>
<path d="M194.356 48.879C198.102 49.758 190.933 70.3162 184.927 76.2933C183.9 77.2889 182.736 76.3172 175.071 68.3498L166.4 59.2574L168.37 57.8142C175.308 52.4887 189.361 47.6548 194.356 48.879ZM182.86 56.2118C174.067 59.2915 174.067 59.213 179.02 64.6779C182.966 69.0178 183.277 69.1827 184.386 67.8751C185.496 66.4103 188.3 59.8035 189.195 56.3697C189.845 53.9508 189.298 53.9371 182.86 56.2118Z" fill="white"/>
<path d="M112.479 74.8074C108.613 70.2337 103.425 57.1435 103.474 52.1963C103.494 50.233 103.809 50.0052 106.077 50.0618C113.43 50.1666 126.307 45.6176 132.85 40.5964C134.506 39.3024 136.16 38.2439 136.395 38.2498C136.707 38.2575 138.722 40.1929 140.967 42.527L144.994 46.7118L129.746 61.4918C121.373 69.5306 114.343 76.1891 114.108 76.1832C113.874 76.1775 113.098 75.5296 112.479 74.8074ZM126.499 57.6404C134.716 49.5977 137.326 46.7563 136.629 46.032C135.932 45.3077 135.148 45.5237 133.415 46.7374C129.083 49.6143 119.97 53.393 114.719 54.2833C109.547 55.1755 109.547 55.1755 109.992 57.543C110.587 60.6998 114.031 68.3265 114.813 68.3459C115.204 68.3556 120.416 63.537 126.499 57.6404Z" fill="white"/>
<path d="M104.262 43.8897C100.516 43.0108 107.685 22.4524 113.69 16.4753C114.718 15.4798 115.881 16.4514 123.547 24.4188L132.218 33.5112L130.247 34.9545C123.309 40.2799 109.257 45.1139 104.262 43.8897ZM115.758 36.5571C124.551 33.4771 124.55 33.5557 119.598 28.0908C115.652 23.7508 115.34 23.5859 114.232 24.8937C113.122 26.3583 110.318 32.9652 109.422 36.399C108.772 38.8179 109.32 38.8315 115.758 36.5571Z" fill="white"/>
<path d="M178.907 10.4482C174.486 6.4124 161.627 0.752983 156.697 0.630066C154.741 0.581287 154.503 0.889404 154.48 3.16567C154.328 10.542 149.347 23.2937 144.118 29.6799C142.771 31.2951 141.659 32.9161 141.656 33.1515C141.653 33.4655 143.511 35.5531 145.757 37.8861L149.785 42.069L165.04 27.2966C173.34 19.1812 180.218 12.3652 180.22 12.1297C180.223 11.8943 179.605 11.0937 178.907 10.4482ZM161.317 23.9062C153.019 31.8646 150.097 34.3828 149.4 33.6587C148.703 32.9347 148.945 32.1557 150.215 30.4599C153.232 26.217 157.314 17.2115 158.384 11.9778C159.453 6.82271 159.453 6.82271 161.796 7.35219C164.92 8.05817 172.397 11.7776 172.389 12.5626C172.385 12.955 167.403 18.0126 161.317 23.9062Z" fill="white"/>
<path d="M148.396 1.13002C147.651 -2.65712 126.922 3.8136 120.759 9.62684C119.731 10.6219 120.658 11.8227 128.328 19.7867L137.082 28.7983L138.588 26.873C144.135 20.1021 149.441 6.18084 148.396 1.13002ZM140.69 12.4006C137.315 21.1098 137.394 21.1118 132.123 15.9556C127.938 11.8471 127.784 11.5293 129.125 10.4635C130.623 9.40172 137.302 6.82033 140.754 6.04276C143.186 5.47531 143.181 6.02475 140.69 12.4006Z" fill="white"/>
</g>
<defs>
<clipPath id="clip0_539_943">
<rect width="300" height="200" fill="white"/>
</clipPath>
</defs>
</svg>
