<svg width="142" height="142" viewBox="0 0 142 142" fill="none" xmlns="http://www.w3.org/2000/svg">
<g clip-path="url(#clip0_485_984)">
<path d="M38.9584 109.775C43.7444 114.13 57.664 120.236 63.0009 120.369C65.1188 120.422 65.3763 120.089 65.401 117.633C65.5658 109.674 70.9577 95.9147 76.6195 89.024C78.0775 87.2812 79.2814 85.5321 79.2839 85.278C79.2873 84.9393 77.2764 82.6867 74.8444 80.1695L70.4837 75.6559L53.9697 91.5956C44.9845 100.352 37.5387 107.707 37.5362 107.961C37.5336 108.215 38.2028 109.079 38.9584 109.775ZM58.0001 95.2538C66.9836 86.6667 70.146 83.9496 70.9008 84.7308C71.6555 85.512 71.3929 86.3527 70.0187 88.1823C66.7528 92.7604 62.3336 102.478 61.1752 108.125C60.0177 113.687 60.0178 113.687 57.4815 113.116C54.0998 112.354 46.0057 108.341 46.0142 107.494C46.0185 107.07 51.4116 101.613 58.0001 95.2538Z" fill="#E7362E"/>
<path d="M71.9883 119.83C72.7945 123.916 95.2345 116.934 101.907 110.661C103.019 109.588 102.015 108.292 93.7132 99.699L84.2361 89.9753L82.6053 92.0527C76.6004 99.3584 70.8568 114.38 71.9883 119.83ZM80.3298 107.668C83.9832 98.2712 83.8985 98.2691 89.6044 103.833C94.1354 108.266 94.3014 108.609 92.8494 109.759C91.2279 110.904 83.9975 113.69 80.2608 114.529C77.6279 115.141 77.6339 114.548 80.3298 107.668Z" fill="#E7362E"/>
<path d="M110.87 40.3312C115.055 45.2663 120.672 59.3906 120.618 64.7288C120.597 66.8472 120.256 67.093 117.8 67.032C109.84 66.9189 95.9009 71.8273 88.8169 77.2452C87.0242 78.6415 85.2342 79.7836 84.9802 79.7772C84.6415 79.7688 82.4605 77.6805 80.0297 75.1622L75.6711 70.6465L92.1773 54.6989C101.242 46.0248 108.852 38.8402 109.106 38.8465C109.36 38.8528 110.2 39.5518 110.87 40.3312ZM95.6927 58.8545C86.7972 67.5328 83.9715 70.5986 84.7259 71.3801C85.4803 72.1617 86.3295 71.9285 88.206 70.619C92.8953 67.5149 102.761 63.4375 108.445 62.4769C114.044 61.5143 114.044 61.5143 113.562 58.9596C112.919 55.5534 109.19 47.3242 108.344 47.3031C107.92 47.2926 102.278 52.492 95.6927 58.8545Z" fill="#E7362E"/>
<path d="M119.765 73.6919C123.821 74.6402 116.06 96.8229 109.559 103.272C108.447 104.346 107.187 103.298 98.8888 94.701L89.5018 84.8903L91.6348 83.333C99.1456 77.5867 114.358 72.3709 119.765 73.6919ZM107.32 81.6039C97.8014 84.9271 97.8022 84.8423 103.163 90.739C107.436 95.4219 107.773 95.5998 108.972 94.1888C110.174 92.6083 113.21 85.4795 114.179 81.7743C114.883 79.1644 114.29 79.1497 107.32 81.6039Z" fill="#E7362E"/>
<path d="M31.1299 101.669C26.9448 96.7338 21.3278 82.6095 21.3815 77.2712C21.4028 75.1529 21.744 74.9071 24.1995 74.9681C32.1596 75.0812 46.0987 70.1727 53.1828 64.7549C54.9754 63.3586 56.7654 62.2165 57.0195 62.2228C57.3581 62.2313 59.5392 64.3196 61.9699 66.8379L66.3286 71.3535L49.8223 87.3012C40.7575 95.9752 33.1475 103.16 32.8935 103.154C32.6395 103.147 31.7996 102.448 31.1299 101.669ZM46.307 83.1455C55.2024 74.4673 58.0281 71.4015 57.2738 70.62C56.5194 69.8384 55.6701 70.0716 53.7937 71.381C49.1043 74.4852 39.2388 78.5626 33.5547 79.5232C27.9552 80.4858 27.9552 80.4858 28.4377 83.0405C29.081 86.4467 32.8094 94.6759 33.6561 94.6969C34.0795 94.7075 39.7216 89.5081 46.307 83.1455Z" fill="#E7362E"/>
<path d="M22.2343 68.3082C18.1786 67.3599 25.9394 45.1772 32.441 38.7279C33.5529 37.6537 34.8127 38.702 43.1109 47.2991L52.4979 57.1098L50.3648 58.6671C42.854 64.4133 27.6414 69.6292 22.2343 68.3082ZM34.6792 60.3962C44.1983 57.073 44.1974 57.1577 38.8363 51.2611C34.5641 46.5781 34.2271 46.4003 33.0272 47.8113C31.8256 49.3918 28.7896 56.5206 27.8207 60.2257C27.1169 62.8357 27.7096 62.8504 34.6792 60.3962Z" fill="#E7362E"/>
<path d="M103.041 32.2245C98.2552 27.8698 84.3355 21.7632 78.9986 21.6306C76.8808 21.578 76.6233 21.9104 76.5986 24.3666C76.4338 32.3257 71.0419 46.085 65.3801 52.9757C63.9221 54.7185 62.7182 56.4676 62.7157 56.7217C62.7123 57.0604 64.7232 59.313 67.1552 61.8302L71.5159 66.3438L88.0299 50.4041C97.015 41.6476 104.461 34.293 104.463 34.0389C104.466 33.7848 103.797 32.921 103.041 32.2245ZM83.9995 46.7459C75.016 55.333 71.8536 58.0501 71.0988 57.2689C70.3441 56.4877 70.6067 55.647 71.9809 53.8175C75.2468 49.2393 79.666 39.5221 80.8243 33.875C81.9818 28.3125 81.9818 28.3125 84.5181 28.8838C87.8998 29.6456 95.9939 33.659 95.9853 34.5059C95.9811 34.9294 90.588 40.3866 83.9995 46.7459Z" fill="#E7362E"/>
<path d="M70.0113 22.1701C69.2051 18.0837 46.7651 25.0657 40.0928 31.3383C38.9804 32.4119 39.9842 33.7076 48.2864 42.3007L57.7635 52.0244L59.3943 49.947C65.3992 42.6413 71.1428 27.62 70.0113 22.1701ZM61.6698 34.3312C58.0164 43.7286 58.1011 43.7307 52.3952 38.1671C47.8642 33.734 47.6982 33.391 49.1502 32.2411C50.7717 31.0953 58.0021 28.31 61.7388 27.471C64.3717 26.8587 64.3657 27.4516 61.6698 34.3312Z" fill="#E7362E"/>
</g>
<defs>
<clipPath id="clip0_485_984">
<rect width="100" height="100" fill="white" transform="translate(0.299805 69.7659) rotate(-44)"/>
</clipPath>
</defs>
</svg>
