<svg width="101" height="101" viewBox="0 0 101 101" fill="none" xmlns="http://www.w3.org/2000/svg">
<g clip-path="url(#clip0_647_982)">
<path d="M17.9987 89.6883C22.7955 94.0388 36.7466 100.139 42.0956 100.272C44.2182 100.324 44.4763 99.9923 44.5011 97.5386C44.6662 89.5872 50.0703 75.8414 55.7449 68.9575C57.2062 67.2164 58.4127 65.469 58.4152 65.2152C58.4186 64.8767 56.4032 62.6264 53.9657 60.1116L49.5951 55.6025L33.0439 71.5265C24.0385 80.2745 16.5757 87.6219 16.5732 87.8757C16.5706 88.1296 17.2414 88.9925 17.9987 89.6883ZM37.0835 75.1812C46.0872 66.6024 49.2567 63.8881 50.0132 64.6685C50.7696 65.4489 50.5065 66.2887 49.1292 68.1165C45.8559 72.6902 41.4266 82.3979 40.2657 88.0395C39.1055 93.5965 39.1056 93.5965 36.5637 93.0257C33.1743 92.2647 25.0619 88.2553 25.0704 87.4092C25.0747 86.9861 30.4801 81.5343 37.0835 75.1812Z" fill="#A80D1C"/>
<path d="M51.1029 99.7322C51.911 103.815 74.4016 96.8394 81.089 90.573C82.2039 89.5004 81.1978 88.206 72.8769 79.6213L63.3784 69.9072L61.7439 71.9825C55.7254 79.281 49.9689 94.2876 51.1029 99.7322ZM59.4633 87.583C63.1249 78.1949 63.04 78.1927 68.7588 83.7509C73.3001 88.1796 73.4664 88.5223 72.0111 89.6711C70.386 90.8157 63.1393 93.5983 59.3941 94.4365C56.7553 95.0482 56.7612 94.4559 59.4633 87.583Z" fill="#A80D1C"/>
<path d="M90.0721 20.3123C94.2666 25.2425 99.8963 39.353 99.8425 44.686C99.8211 46.8023 99.4791 47.0478 97.0181 46.9869C89.04 46.8739 75.0694 51.7776 67.9694 57.1901C66.1727 58.585 64.3786 59.726 64.124 59.7197C63.7846 59.7113 61.5986 57.625 59.1624 55.1091L54.7939 50.5979L71.3375 34.6659C80.4227 26.0004 88.0499 18.8228 88.3045 18.8291C88.5591 18.8354 89.4009 19.5336 90.0721 20.3123ZM74.8607 38.8175C65.9452 47.4873 63.1131 50.55 63.8692 51.3308C64.6253 52.1115 65.4764 51.8786 67.3571 50.5704C72.0571 47.4693 81.9448 43.3959 87.6418 42.4363C93.2539 41.4746 93.2539 41.4746 92.7703 38.9224C92.1256 35.5196 88.3888 27.2984 87.5401 27.2774C87.1158 27.2669 81.461 32.4612 74.8607 38.8175Z" fill="#A80D1C"/>
<path d="M98.9881 53.6403C103.053 54.5877 95.2746 76.7486 88.7584 83.1916C87.644 84.2648 86.3813 83.2174 78.0644 74.6288L68.6562 64.8277L70.7941 63.2719C78.3219 57.5313 93.5688 52.3206 98.9881 53.6403ZM86.5152 61.5445C76.9746 64.8644 76.9753 64.7798 82.3485 70.6706C86.6304 75.349 86.9683 75.5267 88.1709 74.1171C89.3752 72.5381 92.418 65.4164 93.3891 61.7148C94.0945 59.1074 93.5005 59.0927 86.5152 61.5445Z" fill="#A80D1C"/>
<path d="M10.1521 81.5899C5.95765 76.6597 0.327905 62.5493 0.381731 57.2162C0.403091 55.0999 0.745108 54.8544 3.20615 54.9154C11.1842 55.0283 25.1548 50.1247 32.2548 44.7122C34.0515 43.3172 35.8456 42.1763 36.1002 42.1826C36.4396 42.191 38.6256 44.2773 41.0618 46.7931L45.4303 51.3043L28.8868 67.2363C19.8015 75.9019 12.1743 83.0795 11.9197 83.0732C11.6651 83.0669 10.8233 82.3686 10.1521 81.5899ZM25.3635 63.0848C34.279 54.415 37.1111 51.3523 36.355 50.5715C35.599 49.7907 34.7478 50.0236 32.8671 51.3318C28.1671 54.4329 18.2794 58.5063 12.5824 59.4659C6.97033 60.4277 6.97033 60.4277 7.45388 62.9798C8.09861 66.3827 11.8354 74.6038 12.6841 74.6248C13.1084 74.6354 18.7632 69.4411 25.3635 63.0848Z" fill="#A80D1C"/>
<path d="M1.23667 48.2617C-2.82823 47.3143 4.95018 25.1534 11.4665 18.7103C12.5808 17.6372 13.8435 18.6845 22.1604 27.2731L31.5686 37.0742L29.4307 38.63C21.9029 44.3706 6.65598 49.5813 1.23667 48.2617ZM13.7096 40.3574C23.2502 37.0375 23.2494 37.1221 17.8762 31.2313C13.5943 26.5529 13.2566 26.3752 12.0539 27.7849C10.8496 29.3638 7.80677 36.4856 6.83568 40.1871C6.13028 42.7945 6.72433 42.8092 13.7096 40.3574Z" fill="#A80D1C"/>
<path d="M82.2263 12.2135C77.4294 7.86302 63.4784 1.76243 58.1294 1.62993C56.0068 1.57735 55.7487 1.90949 55.7239 4.36321C55.5587 12.3146 50.1546 26.0604 44.4801 32.9443C43.0188 34.6854 41.8122 36.4328 41.8096 36.6866C41.8062 37.025 43.8217 39.2754 46.2592 41.7901L50.6298 46.2993L67.1811 30.3752C76.1865 21.6273 83.6491 14.2799 83.6517 14.026C83.6542 13.7722 82.9836 12.9093 82.2263 12.2135ZM63.1415 26.7206C54.1378 35.2993 50.9682 38.0137 50.2117 37.2333C49.4553 36.4528 49.7185 35.613 51.0958 33.7852C54.3691 29.2115 58.7983 19.5039 59.9592 13.8623C61.1193 8.30532 61.1193 8.30531 63.6613 8.87607C67.0507 9.63709 75.163 13.6465 75.1545 14.4926C75.1502 14.9157 69.7449 20.3675 63.1415 26.7206Z" fill="#A80D1C"/>
<path d="M49.1215 2.16928C48.3134 -1.91308 25.8228 5.06207 19.1354 11.3285C18.0205 12.4011 19.0265 13.6955 27.3475 22.2802L36.846 31.9943L38.4805 29.919C44.4989 22.6204 50.2555 7.61384 49.1215 2.16928ZM40.7611 14.3185C37.0995 23.7066 37.1844 23.7087 31.4656 18.1506C26.9243 13.7219 26.7579 13.3792 28.2133 12.2304C29.8384 11.0858 37.0851 8.30318 40.8303 7.465C43.4691 6.85331 43.4632 7.44559 40.7611 14.3185Z" fill="#A80D1C"/>
</g>
<defs>
<clipPath id="clip0_647_982">
<rect width="101" height="101" fill="white"/>
</clipPath>
</defs>
</svg>
