<svg width="100" height="141" viewBox="0 0 100 141" fill="none" xmlns="http://www.w3.org/2000/svg">
<g clip-path="url(#clip0_485_1004)">
<path d="M78.7281 111.254C78.5437 111.737 77.3722 115.086 75.6692 119.996C75.2786 121.108 74.8556 122.299 74.7254 122.636C74.5953 122.973 74.4 123.535 74.2915 123.872C74.1831 124.209 73.901 125.041 73.6624 125.726C73.4237 126.4 72.8814 127.973 72.4583 129.209C72.0244 130.445 71.6122 131.636 71.5254 131.85C71.4386 132.063 71.1675 132.85 70.918 133.591C70.6576 134.333 70.4407 134.962 70.4298 134.973C70.419 134.996 69.8658 135.097 69.2041 135.198L68 135.366V138.164V140.951H74.1288H80.2576L80.2359 138.164L80.2034 135.389L79.3573 135.232C78.8149 135.142 78.522 135.041 78.5546 134.951C78.5763 134.883 78.6956 134.535 78.8041 134.175L78.9993 133.535L84.0325 133.557L89.0766 133.591L89.2827 134.299C89.402 134.692 89.478 135.041 89.4454 135.063C89.4129 135.097 89.0441 135.187 88.621 135.254L87.8508 135.378V138.164V140.951H93.9254H100V138.142C100 136.49 99.9566 135.333 99.9024 135.333C99.7397 135.333 98.1234 135.108 97.8631 135.052C97.7003 135.007 97.5702 134.816 97.4075 134.355C96.8217 132.636 94.5871 126.175 94.1858 125.052C94.099 124.805 93.9037 124.243 93.7627 123.816C93.6217 123.378 93.3722 122.67 93.2203 122.243C93.0576 121.805 92.8949 121.333 92.8407 121.175C92.7973 121.018 92.5803 120.389 92.3525 119.771C91.8861 118.423 91.5173 117.389 91.1051 116.175C90.9315 115.681 90.5844 114.692 90.3458 113.984C90.0963 113.277 89.76 112.299 89.6081 111.827L89.3153 110.951H84.0759H78.8475L78.7281 111.254ZM85.3993 122.13C86.1044 124.355 86.7444 126.366 86.8312 126.591L86.9831 127.018H84.0434C81.7546 127.018 81.1146 126.984 81.1471 126.872C81.3424 126.063 84.0108 117.951 84.0651 118.007C84.0976 118.052 84.6942 119.906 85.3993 122.13Z" fill="white"/>
<path d="M0 113.667V116.384L1.55705 116.679L3.11409 116.973V123.924C3.11409 129.346 3.14631 131.081 3.26443 131.845C3.72617 134.801 5.1651 137.104 7.57047 138.718C8.96644 139.646 10.2336 140.17 12.1879 140.639C13.4121 140.922 16.9557 141.053 18.4161 140.857C23.6242 140.159 27.3826 137.245 28.4564 133.067C28.8215 131.637 28.8859 130.394 28.8859 123.585V116.973L29.1866 116.908C29.3477 116.875 30.0456 116.744 30.7436 116.613L32 116.384V113.667V110.951H24.8591H17.7181V113.657V116.362L18.7705 116.559C19.3396 116.668 20.0376 116.81 20.3275 116.864L20.8322 116.973V123.989C20.8322 130.274 20.8107 131.059 20.6497 131.583C20.2094 133.001 19.2966 133.841 17.7503 134.245C17.0201 134.441 15.1839 134.463 14.3678 134.289C13.1651 134.027 12.0483 133.241 11.5973 132.336C11.0819 131.299 11.0604 130.961 11.0604 123.749V116.973L12.6711 116.668L14.2819 116.362V113.657V110.951H7.14094H0V113.667Z" fill="white"/>
<path d="M36 113.635V116.331L37.1006 116.51C37.6923 116.611 38.4734 116.746 38.8166 116.814L39.432 116.926V126.012V135.088L38.6391 135.211C38.1893 135.29 37.432 135.402 36.9467 135.481L36.0592 135.627L36.0237 138.289L36 140.951H45.3373C51.3491 140.951 55.1243 140.906 55.9053 140.827C60.3787 140.367 63.7041 138.581 65.1006 135.874C65.8462 134.436 66 133.74 66 131.853C65.9882 130.37 65.9645 130.146 65.6686 129.337C65.3018 128.349 64.5562 127.192 63.8343 126.507C63.3846 126.08 62.4379 125.417 62.1183 125.305C62.0355 125.271 62.2722 124.979 62.6391 124.653C63.4675 123.912 64.0947 122.991 64.497 121.924C64.7692 121.228 64.8047 120.947 64.8047 119.667C64.8166 117.971 64.6391 117.196 63.9645 115.904C62.9349 113.95 60.5562 112.377 57.4793 111.636C55.0888 111.052 54.7574 111.041 45.0888 110.996L36 110.951V113.635ZM53.7396 117.656C54.7574 117.869 55.5385 118.33 55.7988 118.858C56.2722 119.801 56.1538 120.992 55.5148 121.621C54.7101 122.43 53.6686 122.643 50.5325 122.643H48.1893V120.06V117.476H50.568C52.284 117.476 53.1598 117.521 53.7396 117.656ZM55.4201 128.888C56.6036 129.225 57.3018 130.281 57.3018 131.741C57.2899 133.021 56.7219 133.785 55.4556 134.234C54.8166 134.47 54.5089 134.492 51.4793 134.526L48.1893 134.571V131.64V128.708H51.4793C54.1657 128.708 54.8876 128.742 55.4201 128.888Z" fill="white"/>
</g>
<path d="M17.8862 89.688C22.683 94.0385 36.6341 100.139 41.9831 100.272C44.1057 100.324 44.3638 99.992 44.3886 97.5383C44.5537 89.5869 49.9578 75.8411 55.6324 68.9572C57.0937 67.2161 58.3003 65.4687 58.3028 65.2149C58.3062 64.8764 56.2907 62.6261 53.8533 60.1113L49.4827 55.6022L32.9314 71.5262C23.926 80.2742 16.4633 87.6216 16.4608 87.8754C16.4582 88.1293 17.1289 88.9922 17.8862 89.688ZM36.9709 75.1809C45.9747 66.6021 49.1443 63.8878 49.9008 64.6682C50.6572 65.4486 50.394 66.2884 49.0167 68.1162C45.7434 72.6899 41.3142 82.3976 40.1532 88.0392C38.9931 93.5962 38.9931 93.5962 36.4511 93.0254C33.0618 92.2644 24.9495 88.255 24.958 87.4089C24.9623 86.9858 30.3676 81.534 36.9709 75.1809Z" fill="white"/>
<path d="M50.9907 99.7326C51.7988 103.815 74.2894 96.8398 80.9768 90.5734C82.0917 89.5008 81.0856 88.2064 72.7647 79.6217L63.2662 69.9076L61.6317 71.9829C55.6132 79.2814 49.8567 94.288 50.9907 99.7326ZM59.3511 87.5834C63.0127 78.1953 62.9278 78.1931 68.6466 83.7513C73.1879 88.18 73.3542 88.5227 71.8989 89.6715C70.2738 90.8161 63.0271 93.5987 59.2819 94.4369C56.643 95.0486 56.649 94.4563 59.3511 87.5834Z" fill="white"/>
<path d="M89.96 20.3121C94.1545 25.2423 99.7842 39.3528 99.7304 44.6858C99.709 46.8021 99.367 47.0476 96.906 46.9867C88.9279 46.8737 74.9573 51.7774 67.8573 57.1899C66.0606 58.5848 64.2665 59.7258 64.0119 59.7195C63.6725 59.7111 61.4865 57.6248 59.0503 55.1089L54.6818 50.5977L71.2254 34.6657C80.3106 26.0002 87.9378 18.8226 88.1924 18.8289C88.447 18.8352 89.2888 19.5334 89.96 20.3121ZM74.7486 38.8173C65.8331 47.4871 63.001 50.5498 63.7571 51.3306C64.5131 52.1113 65.3643 51.8784 67.245 50.5702C71.945 47.4691 81.8327 43.3957 87.5297 42.4361C93.1418 41.4744 93.1418 41.4744 92.6582 38.9222C92.0135 35.5194 88.2767 27.2982 87.428 27.2772C87.0037 27.2667 81.3489 32.461 74.7486 38.8173Z" fill="white"/>
<path d="M98.8756 53.6401C102.941 54.5875 95.1621 76.7484 88.6459 83.1914C87.5315 84.2646 86.2688 83.2172 77.9519 74.6286L68.5437 64.8275L70.6816 63.2717C78.2094 57.5311 93.4563 52.3204 98.8756 53.6401ZM86.4027 61.5443C76.8621 64.8642 76.8629 64.7796 82.2361 70.6704C86.518 75.3488 86.8558 75.5265 88.0584 74.1169C89.2627 72.5379 92.3055 65.4162 93.2766 61.7146C93.982 59.1072 93.388 59.0925 86.4027 61.5443Z" fill="white"/>
<path d="M10.04 81.5896C5.84555 76.6594 0.2158 62.549 0.269626 57.2159C0.290985 55.0996 0.633002 54.8541 3.09404 54.9151C11.0721 55.028 25.0427 50.1244 32.1427 44.7119C33.9394 43.3169 35.7335 42.176 35.9881 42.1823C36.3275 42.1907 38.5135 44.277 40.9497 46.7928L45.3182 51.304L28.7747 67.236C19.6894 75.9016 12.0622 83.0792 11.8076 83.0729C11.553 83.0666 10.7112 82.3683 10.04 81.5896ZM25.2514 63.0845C34.1669 54.4147 36.999 51.352 36.2429 50.5712C35.4869 49.7904 34.6357 50.0233 32.755 51.3315C28.055 54.4326 18.1673 58.506 12.4703 59.4656C6.85822 60.4274 6.85822 60.4274 7.34177 62.9795C7.98651 66.3824 11.7233 74.6035 12.572 74.6245C12.9963 74.6351 18.6511 69.4408 25.2514 63.0845Z" fill="white"/>
<path d="M1.12437 48.2617C-2.94054 47.3143 4.83788 25.1534 11.3541 18.7103C12.4685 17.6372 13.7312 18.6845 22.0481 27.2731L31.4563 37.0742L29.3184 38.63C21.7906 44.3706 6.54367 49.5813 1.12437 48.2617ZM13.5973 40.3574C23.1379 37.0375 23.1371 37.1221 17.7639 31.2313C13.482 26.5529 13.1443 26.3752 11.9416 27.7849C10.7373 29.3638 7.69447 36.4856 6.72337 40.1871C6.01798 42.7945 6.61203 42.8092 13.5973 40.3574Z" fill="white"/>
<path d="M82.1138 12.2134C77.3169 7.86292 63.3658 1.76233 58.0169 1.62983C55.8943 1.57725 55.6362 1.90939 55.6114 4.36311C55.4462 12.3145 50.0421 26.0603 44.3676 32.9442C42.9063 34.6853 41.6997 36.4327 41.6971 36.6865C41.6937 37.0249 43.7092 39.2753 46.1467 41.79L50.5173 46.2992L67.0685 30.3751C76.074 21.6272 83.5366 14.2798 83.5392 14.0259C83.5417 13.7721 82.8711 12.9092 82.1138 12.2134ZM63.029 26.7205C54.0253 35.2992 50.8557 38.0136 50.0992 37.2332C49.3428 36.4527 49.606 35.6129 50.9833 33.7851C54.2566 29.2114 58.6857 19.5038 59.8467 13.8622C61.0068 8.30522 61.0068 8.30521 63.5488 8.87597C66.9382 9.63699 75.0505 13.6464 75.042 14.4925C75.0377 14.9156 69.6324 20.3674 63.029 26.7205Z" fill="white"/>
<path d="M49.0093 2.16879C48.2012 -1.91357 25.7106 5.06158 19.0232 11.328C17.9083 12.4006 18.9143 13.695 27.2353 22.2797L36.7338 31.9938L38.3683 29.9185C44.3867 22.6199 50.1433 7.61335 49.0093 2.16879ZM40.6489 14.318C36.9873 23.7061 37.0722 23.7082 31.3534 18.1501C26.8121 13.7214 26.6457 13.3787 28.101 12.2299C29.7262 11.0853 36.9729 8.30269 40.7181 7.46451C43.3569 6.85282 43.3509 7.4451 40.6489 14.318Z" fill="white"/>
<defs>
<clipPath id="clip0_485_1004">
<rect width="100" height="30" fill="white" transform="translate(0 110.951)"/>
</clipPath>
</defs>
</svg>
