<svg width="175" height="40" viewBox="0 0 175 40" fill="none" xmlns="http://www.w3.org/2000/svg">
<g clip-path="url(#clip0_491_1005)">
<path d="M147.346 0.404495C147.107 1.04869 145.584 5.51311 143.37 12.0599C142.862 13.5431 142.312 15.1311 142.143 15.5805C141.974 16.03 141.72 16.779 141.579 17.2285C141.438 17.6779 141.071 18.7865 140.761 19.7004C140.451 20.5993 139.746 22.6966 139.196 24.3446C138.632 25.9925 138.096 27.5805 137.983 27.8652C137.87 28.1498 137.518 29.1985 137.193 30.1873C136.855 31.176 136.573 32.015 136.559 32.03C136.545 32.0599 135.825 32.1948 134.965 32.3296L133.4 32.5543V36.2846V40H141.367H149.335L149.307 36.2846L149.264 32.5843L148.164 32.3745C147.459 32.2547 147.079 32.1199 147.121 32C147.149 31.9101 147.304 31.4457 147.445 30.9663L147.699 30.1124L154.242 30.1423L160.799 30.1873L161.067 31.1311C161.223 31.6554 161.321 32.1199 161.279 32.1498C161.237 32.1948 160.757 32.3146 160.207 32.4045L159.206 32.5693V36.2846V40H167.103H175V36.2547C175 34.0524 174.943 32.5094 174.873 32.5094C174.661 32.5094 172.56 32.2097 172.222 32.1348C172.01 32.0749 171.841 31.8202 171.63 31.206C170.868 28.9139 167.963 20.2996 167.441 18.8015C167.329 18.4719 167.075 17.7228 166.891 17.1536C166.708 16.5693 166.384 15.6255 166.186 15.0562C165.975 14.4719 165.763 13.8427 165.693 13.633C165.636 13.4232 165.354 12.5843 165.058 11.7603C164.452 9.96255 163.972 8.58427 163.437 6.96629C163.211 6.30712 162.76 4.98876 162.449 4.04494C162.125 3.10112 161.688 1.79775 161.49 1.16854L161.11 0H154.299H147.502L147.346 0.404495ZM156.019 14.9064C156.936 17.8727 157.768 20.5543 157.88 20.8539L158.078 21.4232H154.256C151.281 21.4232 150.449 21.3783 150.491 21.2285C150.745 20.1498 154.214 9.33333 154.285 9.40824C154.327 9.46816 155.102 11.9401 156.019 14.9064Z" fill="white"/>
<path d="M45 3.62235V7.24471L47.0242 7.63749L49.0483 8.03028V17.2971C49.0483 24.5273 49.0902 26.8403 49.2438 27.8587C49.844 31.8011 51.7146 34.8706 54.8416 37.0236C56.6564 38.2602 58.3036 38.9585 60.8443 39.584C62.4357 39.9623 67.0424 40.1368 68.9409 39.875C75.7114 38.9439 80.5973 35.0597 81.9933 29.488C82.4679 27.5823 82.5517 25.9238 82.5517 16.8461V8.03028L82.9426 7.94299C83.1519 7.89935 84.0593 7.72478 84.9667 7.55021L86.6 7.24471V3.62235V0H77.3168H68.0336V3.60781V7.21561L69.4016 7.47747C70.1415 7.62294 71.0489 7.81206 71.4258 7.8848L72.0819 8.03028V17.3844C72.0819 25.7638 72.054 26.8112 71.8446 27.5095C71.2722 29.4007 70.0856 30.5209 68.0754 31.0591C67.1262 31.321 64.7391 31.3501 63.6781 31.1173C62.1146 30.7682 60.6628 29.7207 60.0765 28.5133C59.4064 27.1313 59.3785 26.6803 59.3785 17.0643V8.03028L61.4725 7.62294L63.5664 7.21561V3.60781V0H54.2832H45V3.62235Z" fill="white"/>
<path d="M91.7998 3.57919V7.17334L93.2306 7.41296C93.9998 7.54774 95.0152 7.72744 95.4613 7.8173L96.2613 7.96705V20.0824V32.1827L95.2306 32.3474C94.646 32.4523 93.6613 32.602 93.0306 32.7069L91.8767 32.9015L91.8306 36.4508L91.7998 40H103.938C111.754 40 116.661 39.9401 117.677 39.8353C123.492 39.2213 127.815 36.8401 129.631 33.231C130.6 31.3141 130.8 30.3856 130.8 27.8697C130.784 25.8929 130.754 25.5934 130.369 24.5152C129.892 23.1973 128.923 21.6548 127.984 20.7413C127.4 20.1722 126.169 19.2887 125.754 19.1389C125.646 19.094 125.954 18.7046 126.431 18.2703C127.507 17.2819 128.323 16.0539 128.846 14.6312C129.2 13.7027 129.246 13.3283 129.246 11.6211C129.261 9.35979 129.031 8.32647 128.154 6.60427C126.815 3.9985 123.723 1.90191 119.723 0.913517C116.615 0.134781 116.184 0.119804 103.615 0.0599022L91.7998 0V3.57919ZM114.861 8.94047C116.184 9.22501 117.2 9.83901 117.538 10.5429C118.154 11.8008 118 13.3882 117.169 14.2269C116.123 15.3051 114.769 15.5897 110.692 15.5897H107.646V12.1453V8.70086H110.738C112.969 8.70086 114.107 8.76077 114.861 8.94047ZM117.046 23.9161C118.584 24.3654 119.492 25.7731 119.492 27.72C119.477 29.4272 118.738 30.4455 117.092 31.0446C116.261 31.359 115.861 31.389 111.923 31.4339L107.646 31.4938V27.5852V23.6765H111.923C115.415 23.6765 116.354 23.7215 117.046 23.9161Z" fill="white"/>
</g>
<path d="M7.15449 35.4949C9.07322 37.2351 14.6536 39.6753 16.7932 39.7283C17.6423 39.7494 17.7455 39.6165 17.7554 38.635C17.8215 35.4545 19.9831 29.9562 22.2529 27.2026C22.8375 26.5062 23.3201 25.8072 23.3211 25.7057C23.3225 25.5703 22.5163 24.6702 21.5413 23.6643L19.7931 21.8606L13.1726 28.2302C9.5704 31.7294 6.58534 34.6684 6.58431 34.7699C6.58329 34.8714 6.85157 35.2166 7.15449 35.4949ZM14.7884 29.6921C18.3899 26.2606 19.6577 25.1748 19.9603 25.487C20.2629 25.7992 20.1576 26.1351 19.6067 26.8662C18.2974 28.6957 16.5257 32.5788 16.0613 34.8354C15.5973 37.0582 15.5973 37.0582 14.5805 36.8299C13.2247 36.5255 9.97979 34.9217 9.9832 34.5833C9.98491 34.4141 12.147 32.2333 14.7884 29.6921Z" fill="white"/>
<path d="M20.3963 39.5128C20.7195 41.1457 29.7158 38.3557 32.3907 35.8491C32.8367 35.42 32.4342 34.9023 29.1059 31.4684L25.3065 27.5828L24.6527 28.4129C22.2453 31.3323 19.9427 37.3349 20.3963 39.5128ZM23.7404 34.6531C25.2051 30.8978 25.1711 30.897 27.4586 33.1202C29.2751 34.8917 29.3417 35.0288 28.7596 35.4883C28.1095 35.9462 25.2108 37.0592 23.7128 37.3945C22.6572 37.6392 22.6596 37.4022 23.7404 34.6531Z" fill="white"/>
<path d="M35.984 7.74457C37.6618 9.71667 39.9137 15.3608 39.8922 17.4941C39.8836 18.3406 39.7468 18.4388 38.7624 18.4144C35.5712 18.3692 29.9829 20.3307 27.1429 22.4957C26.4242 23.0536 25.7066 23.51 25.6048 23.5075C25.469 23.5042 24.5946 22.6696 23.6201 21.6633L21.8727 19.8588L28.4901 13.486C32.1242 10.0198 35.1751 7.14876 35.277 7.15128C35.3788 7.1538 35.7155 7.4331 35.984 7.74457ZM29.8994 15.1466C26.3332 18.6145 25.2004 19.8396 25.5028 20.152C25.8053 20.4643 26.1457 20.3711 26.898 19.8478C28.778 18.6074 32.7331 16.978 35.0119 16.5942C37.2567 16.2095 37.2567 16.2095 37.0633 15.1886C36.8054 13.8275 35.3107 10.539 34.9712 10.5306C34.8015 10.5264 32.5396 12.6041 29.8994 15.1466Z" fill="white"/>
<path d="M39.5503 21.0758C41.1762 21.4547 38.0649 30.3191 35.4583 32.8963C35.0126 33.3256 34.5075 32.9066 31.1808 29.4712L27.4175 25.5507L28.2726 24.9284C31.2837 22.6322 37.3825 20.5479 39.5503 21.0758ZM34.5611 24.2375C30.7448 25.5654 30.7452 25.5316 32.8944 27.8879C34.6072 29.7593 34.7423 29.8303 35.2234 29.2665C35.7051 28.6349 36.9222 25.7862 37.3107 24.3056C37.5928 23.2626 37.3552 23.2567 34.5611 24.2375Z" fill="white"/>
<path d="M4.01601 32.2556C2.33822 30.2835 0.0863198 24.6393 0.10785 22.5061C0.116394 21.6596 0.253201 21.5614 1.23762 21.5858C4.42883 21.6309 10.0171 19.6695 12.8571 17.5045C13.5758 16.9465 14.2934 16.4901 14.3952 16.4926C14.531 16.496 15.4054 17.3305 16.3799 18.3369L18.1273 20.1413L11.5099 26.5141C7.87576 29.9804 4.82489 32.8514 4.72305 32.8489C4.62122 32.8464 4.2845 32.5671 4.01601 32.2556ZM10.1006 24.8535C13.6668 21.3856 14.7996 20.1605 14.4972 19.8482C14.1947 19.5359 13.8543 19.6291 13.102 20.1523C11.222 21.3928 7.26692 23.0221 4.98813 23.406C2.74329 23.7907 2.74329 23.7907 2.93671 24.8115C3.1946 26.1727 4.68934 29.4611 5.02879 29.4695C5.19852 29.4738 7.46045 27.396 10.1006 24.8535Z" fill="white"/>
<path d="M0.449747 18.9244C-1.17622 18.5454 1.93515 9.68108 4.54166 7.10386C4.98739 6.6746 5.49247 7.09354 8.81923 10.529L12.5825 14.4494L11.7274 15.0717C8.71626 17.368 2.61747 19.4523 0.449747 18.9244ZM5.43893 15.7627C9.25517 14.4347 9.25483 14.4686 7.10556 12.1123C5.3928 10.2409 5.2577 10.1698 4.77665 10.7337C4.29493 11.3652 3.07779 14.214 2.68935 15.6946C2.40719 16.7375 2.64481 16.7434 5.43893 15.7627Z" fill="white"/>
<path d="M32.8455 4.50507C30.9268 2.76489 25.3463 0.32466 23.2068 0.271659C22.3577 0.250627 22.2545 0.383482 22.2446 1.36497C22.1785 4.54551 20.0169 10.0438 17.747 12.7974C17.1625 13.4938 16.6799 14.1928 16.6789 14.2943C16.6775 14.4297 17.4837 15.3299 18.4587 16.3357L20.2069 18.1394L26.8274 11.7698C30.4296 8.2706 33.4146 5.33164 33.4157 5.2301C33.4167 5.12857 33.1484 4.7834 32.8455 4.50507ZM25.2116 10.3079C21.6101 13.7394 20.3423 14.8252 20.0397 14.513C19.7371 14.2008 19.8424 13.8649 20.3933 13.1338C21.7026 11.3043 23.4743 7.42125 23.9387 5.16461C24.4027 2.94181 24.4027 2.94181 25.4195 3.17012C26.7753 3.47452 30.0202 5.07829 30.0168 5.41673C30.0151 5.58595 27.853 7.76669 25.2116 10.3079Z" fill="white"/>
<path d="M19.6037 0.487244C19.2805 -1.1457 10.2842 1.64436 7.60926 4.15092C7.16332 4.57996 7.56574 5.09772 10.8941 8.53161L14.6935 12.4173L15.3473 11.5871C17.7547 8.6677 20.0573 2.66507 19.6037 0.487244ZM16.2596 5.34693C14.7949 9.10218 14.8289 9.10302 12.5414 6.87977C10.7248 5.10827 10.6583 4.97121 11.2404 4.51169C11.8905 4.05385 14.7892 2.9408 16.2872 2.60553C17.3428 2.36085 17.3404 2.59777 16.2596 5.34693Z" fill="white"/>
<defs>
<clipPath id="clip0_491_1005">
<rect width="130" height="40" fill="white" transform="translate(45)"/>
</clipPath>
</defs>
</svg>
