<svg width="120" height="30" viewBox="0 0 120 30" fill="none" xmlns="http://www.w3.org/2000/svg">
<g clip-path="url(#clip0_499_1147)">
<path d="M59.8854 9.19069C59.8854 9.63022 59.5279 9.98468 59.0884 9.98468H57.8619C57.4224 9.98468 57.0669 9.6292 57.0669 9.19069V8.24276C57.0669 7.80323 57.4234 7.44775 57.8619 7.44775H59.0884C59.5279 7.44775 59.8854 7.80424 59.8854 8.24276V9.19069Z" fill="white"/>
<path d="M53.7828 8.27524C53.7828 7.83571 53.4729 7.48022 53.0334 7.48022H51.7614C51.3188 7.48022 50.9644 7.83672 50.9644 8.27524V21.0074C50.9644 21.447 51.3188 21.8024 51.7614 21.8024H52.9878C53.4273 21.8024 53.7828 21.447 53.7828 21.0074V8.27524Z" fill="white"/>
<path d="M77.6693 15.1476C77.7372 14.466 77.9843 13.9485 78.4066 13.5961C78.835 13.2396 79.3393 13.0654 79.9176 13.0654C80.2842 13.0654 80.5941 13.1252 80.8534 13.2487C81.1066 13.3703 81.3193 13.5343 81.4884 13.7389C81.6555 13.9435 81.7821 14.1673 81.8661 14.4154C81.9471 14.6575 81.9877 14.9025 81.9877 15.1476H77.6693ZM84.798 15.893C84.7504 14.3445 84.316 13.1404 83.4967 12.2866C82.6267 11.3752 81.4529 10.9204 79.9814 10.9204C79.0629 10.9204 78.2699 11.0794 77.6005 11.4035C76.932 11.7266 76.3801 12.155 75.9456 12.6806C75.5142 13.2062 75.1992 13.8088 74.9947 14.4904C74.7952 15.1719 74.6929 15.8707 74.6929 16.5837C74.6929 17.5134 74.8184 18.3216 75.0747 19.0011C75.3329 19.6827 75.6965 20.2458 76.1684 20.6904C76.6434 21.137 77.2217 21.4661 77.9043 21.6818C78.5848 21.8976 79.3454 22.0049 80.186 22.0049C80.7622 22.0049 81.3547 21.936 81.9553 21.7922C82.1527 21.7467 82.336 21.692 82.5163 21.6302C82.5953 21.6089 82.7077 21.5704 82.8667 21.5006C83.7103 21.1532 84.2917 20.6732 84.2917 20.6732C84.6147 20.4757 84.7109 20.0503 84.5155 19.7303L83.9767 18.8705C83.7772 18.5504 83.3518 18.4897 83.0308 18.6872C83.0308 18.6872 82.013 19.3434 81.4367 19.5196C81.1218 19.6169 80.6974 19.7161 80.264 19.7161C78.6041 19.7161 77.7048 18.8887 77.5701 17.2288L84.0314 17.2319C84.4598 17.2319 84.7879 16.8926 84.8041 16.4612V15.9872C84.8041 15.9568 84.8021 15.9274 84.799 15.892L84.798 15.893Z" fill="white"/>
<path d="M72.5156 13.7432C72.4508 13.1831 72.2371 12.6737 71.8897 12.215C71.5505 11.7957 71.1494 11.4746 70.6795 11.2539C70.2136 11.03 69.6323 10.9197 68.9285 10.9197C68.1983 10.9197 67.5683 11.0787 67.0346 11.3967C66.5009 11.7116 66.0918 12.0803 65.8082 12.4985V12.2534V11.8473C65.8082 11.422 65.4608 11.0766 65.0355 11.0766H63.8435C63.4151 11.0766 63.0708 11.422 63.0708 11.8473V21.042C63.0708 21.4795 63.4232 21.831 63.8597 21.831H65.077C65.5115 21.831 65.8669 21.4785 65.8669 21.042C65.8669 21.042 65.869 16.1545 65.8771 15.8426C65.8821 15.5307 65.9196 15.2552 65.9875 15.0122C66.031 14.8481 66.0958 14.6729 66.19 14.4815C66.2842 14.2931 66.4189 14.1159 66.5971 13.9457C66.7723 13.7786 66.987 13.6368 67.2463 13.5204C67.5025 13.4039 67.8124 13.3502 68.179 13.3502C68.5284 13.3502 68.8302 13.4019 69.0814 13.5092C69.3295 13.6166 69.5159 13.805 69.6394 14.0774C69.7599 14.3498 69.8197 14.7812 69.8197 15.3737V21.041C69.8197 21.4785 70.1721 21.8299 70.6086 21.8299H71.8259C72.2604 21.8299 72.6149 21.4775 72.6149 21.041V20.6916V15.3302C72.6149 14.8288 72.5794 14.3012 72.5126 13.7432H72.5156Z" fill="white"/>
<path d="M11.4309 9.36209C11.3367 9.06637 11.2881 8.8142 11.2881 8.61368C11.2881 8.26226 11.3853 8.02629 11.6709 7.83285C11.8967 7.67588 12.3575 7.70322 12.8325 7.69208C13.6458 7.67284 13.9739 7.64549 14.2493 8.37062C14.2493 8.37062 16.3883 17.0215 16.448 17.3314C16.5108 17.6402 16.5594 17.8995 16.5989 18.099C16.6425 17.8701 16.688 17.619 16.7417 17.3526C16.7964 17.0812 18.8573 11.3146 18.8573 11.3146C18.9657 10.8802 19.2371 10.6685 19.549 10.5369C19.6351 10.4984 19.7374 10.4528 19.862 10.4528H20.975C21.1694 10.4528 21.3578 10.4427 21.4935 10.5176C21.8176 10.6635 22.0677 10.9217 22.1751 11.3531C22.1751 11.3531 24.3737 17.1268 24.4325 17.4002C24.4943 17.6777 24.5348 17.9046 24.5641 18.0788C24.5915 17.9177 24.629 17.7101 24.6857 17.4509C24.7373 17.1683 26.9562 8.36961 26.9562 8.36961C27.2601 7.6536 27.5335 7.7336 28.3731 7.7336C28.847 7.7336 29.1083 7.68803 29.3777 7.84703C29.6967 8.0354 29.7717 8.30783 29.7717 8.63191C29.7717 8.7423 29.7615 8.86079 29.7413 8.99751C29.72 9.1322 29.6825 9.275 29.6279 9.42083L26.2848 20.8527C26.1744 21.2051 25.9668 21.4158 25.6761 21.5373C25.5688 21.5798 25.4523 21.6041 25.348 21.6041C25.029 21.6041 23.8552 21.6061 23.8552 21.6061C23.6132 21.6061 23.5028 21.5849 23.3489 21.5201C23.0207 21.3449 22.8526 21.1059 22.7584 20.7686C22.7584 20.7686 20.5658 14.1574 20.5496 14.0359C20.5354 14.1432 18.2811 20.8304 18.2811 20.8304C18.1727 21.2071 17.9742 21.3904 17.6613 21.5282C17.561 21.5687 17.4456 21.5829 17.3757 21.5829C17.0577 21.5829 15.7745 21.5849 15.7745 21.5849C15.6257 21.5849 15.4565 21.5251 15.3705 21.4826C15.0768 21.3378 14.9016 21.0886 14.7942 20.7524L11.4289 9.36209H11.4309Z" fill="white"/>
<path d="M34.963 9.19069C34.963 9.63022 34.6075 9.98468 34.1649 9.98468H32.9395C32.5 9.98468 32.1445 9.6292 32.1445 9.19069V8.24276C32.1445 7.80323 32.5 7.44775 32.9395 7.44775H34.1649C34.6075 7.44775 34.963 7.80424 34.963 8.24276V9.19069Z" fill="white"/>
<path d="M47.6436 13.7432C47.5757 13.1831 47.3661 12.6737 47.0157 12.215C46.6794 11.7957 46.2753 11.4746 45.8095 11.2539C45.3436 11.03 44.7583 10.9197 44.0554 10.9197C43.3252 10.9197 42.6953 11.0787 42.1616 11.3967C41.6279 11.7116 41.2187 12.0803 40.9351 12.4985V12.2534V11.8473C40.9351 11.422 40.5908 11.0766 40.1624 11.0766H38.9714C38.5451 11.0766 38.1987 11.422 38.1987 11.8473V21.042C38.1987 21.4795 38.5542 21.831 38.9876 21.831H40.205C40.6425 21.831 40.9939 21.4785 40.9939 21.042V16.6325C40.9939 16.4168 40.9959 16.1545 41.005 15.8426C41.0131 15.5307 41.0506 15.2552 41.1154 15.0122C41.1579 14.8481 41.2228 14.6729 41.3169 14.4815C41.4111 14.2931 41.5489 14.1159 41.7231 13.9457C41.8983 13.7786 42.113 13.6368 42.3722 13.5204C42.6305 13.4039 42.9404 13.3502 43.305 13.3502C43.6574 13.3502 43.9562 13.4019 44.2073 13.5092C44.4544 13.6166 44.6428 13.805 44.7653 14.0774C44.8869 14.3498 44.9456 14.7812 44.9456 15.3737V21.041C44.9456 21.4785 45.3021 21.8299 45.7376 21.8299H46.9529C47.3894 21.8299 47.7418 21.4775 47.7418 21.041V15.3302C47.7418 14.8288 47.7063 14.3012 47.6415 13.7432H47.6436Z" fill="white"/>
<path d="M34.166 11.1201H32.9405C32.501 11.1201 32.1455 11.4776 32.1455 11.9171L32.1182 20.9994C32.1182 21.443 32.4787 21.8015 32.9203 21.8015H34.1599C34.6024 21.8015 34.963 21.443 34.963 20.9994V11.9171C34.963 11.4776 34.6065 11.1201 34.1649 11.1201H34.166Z" fill="white"/>
<path d="M59.1025 11.1201H57.8761C57.4365 11.1201 57.078 11.4776 57.078 11.9171L57.0547 20.9994C57.0547 21.443 57.4153 21.8015 57.8578 21.8015H59.0974C59.539 21.8015 59.8995 21.443 59.8995 20.9994V11.9171C59.8995 11.4776 59.542 11.1201 59.1025 11.1201Z" fill="white"/>
<path fill-rule="evenodd" clip-rule="evenodd" d="M105.387 29.3331H14.6129C6.57676 29.3331 0 22.7361 0 14.6696C0 6.60005 6.57676 0 14.6129 0H105.387C113.423 0 120 6.60106 120 14.6696C120 22.7361 113.423 29.3331 105.387 29.3331ZM90.1828 14.6676C90.1828 10.0738 92.1526 6.01468 95.3539 3.21546C95.5372 3.05342 95.4065 2.83062 95.2779 2.83062H14.6129C8.10094 2.83062 2.82049 8.13031 2.82049 14.6686C2.82049 21.2079 8.10094 26.5065 14.6129 26.5065H95.2242C95.3559 26.5065 95.5503 26.2989 95.3002 26.0832C92.1617 23.2901 90.1838 19.2107 90.1838 14.6686L90.1828 14.6676ZM117.183 14.6676C117.183 21.2069 111.902 26.5055 105.388 26.5055C98.8731 26.5055 93.5927 21.2058 93.5927 14.6676C93.5927 8.12929 98.8731 2.82961 105.388 2.82961C111.902 2.82961 117.183 8.12929 117.183 14.6676Z" fill="white"/>
</g>
<defs>
<clipPath id="clip0_499_1147">
<rect width="120" height="30" fill="white"/>
</clipPath>
</defs>
</svg>
