<svg width="430" height="600" viewBox="0 0 430 600" fill="none" xmlns="http://www.w3.org/2000/svg">
<path d="M200 21.4999C187.6 24.4999 177 30.9999 166.4 42.2C154.7 54.3 150 69.4 150 94.5C150 105.6 149.8 106.6 147.9 107.8C142.5 111.2 141.5 123.4 145.6 137.5C148.6 148.1 150.2 150.8 153.9 152.1C156.8 153.1 158 156.6 159.5 167.6C159.7 169.9 161.2 174.3 162.6 177.5C165 182.8 165.3 184.8 165.9 199.7L166.5 216.1L163.9 218.6C162.5 220 159.8 221.5 157.9 222C156 222.6 152.8 224.6 150.6 226.5C148.5 228.5 144.3 231.3 141.1 232.9C138 234.4 129.4 239.4 122 243.9C112.9 249.5 105.3 253.3 98.4995 255.7C87.8995 259.4 82.4995 262.2 81.6995 264.4C81.3995 265.1 77.5995 267.2 73.2995 269C52.9995 277.4 46.9996 282.7 38.4996 299.8C27.5996 322.1 24.2996 337.5 23.2995 371C22.7995 390.2 22.3995 393.7 19.7995 404C15.3995 421.4 14.3995 438.4 15.8995 467C16.5995 479.9 17.7995 494.5 18.4995 499.5C19.2995 504.4 19.8995 513.6 19.9995 519.9V531.3L26.6996 543.9C30.3996 550.8 36.7995 562.3 40.9995 569.5C45.1995 576.7 50.6995 586.4 53.3995 591.2L58.0995 600H216.9H375.6L380.2 592.2C382.7 588 385.5 582.9 386.5 581C387.5 579.1 393.1 569.2 399 559C413.6 533.9 413.3 534.8 413.5 520.5C413.6 513.9 414 497.2 414.4 483.5C415.5 451.7 414.2 431.7 410 415.5C408.4 409.2 406.3 402.4 405.4 400.3C403.9 397 403.6 392.2 403.6 364C403.5 333 403.3 331.1 401.1 323.5C395.7 304.9 387.4 287.8 379.9 279.5C373.7 272.7 370 270.3 360.5 266.6C356.7 265.1 351.7 262.6 349.5 261.2C347.3 259.7 340.3 255.8 334 252.4C327.7 249.1 316.4 242.9 309 238.7C301.6 234.5 293.4 230.3 290.9 229.5C288.4 228.7 284.4 226.1 281.9 223.9C278.1 220.5 277 220 274.3 220.5C271.6 221 270.4 220.4 265.8 216.7L260.5 212.4L260.8 194.9C261.1 180.8 261.6 175.5 263.6 167C265 161.2 266.3 155.5 266.5 154.4C266.8 153.2 268.3 151.7 269.9 151C273.4 149.6 274.3 147.6 277.5 134.5C279.1 128.2 280 121.6 280 116.8C280 109.1 279.8 108.5 275.8 105.7C274.4 104.7 273.8 101.8 273 91C271.7 74.6 270.6 68 267.3 57.5C264.9 49.9 264.4 49.1 255.6 40.4999C248.8 33.7999 244.4 30.3999 238.3 27.1999C225.7 20.5999 212 18.5999 200 21.4999ZM343.5 483.7C345 494.1 347.7 502.5 352.4 511.8C356 518.9 355.8 522.1 350.9 530.4C346.6 537.7 337.9 549.9 337 550C336.7 550 336.6 543.1 336.8 534.7C337.2 521.9 336.9 517.8 335 508.9L332.8 498.2L335.3 487.9C340 468.5 341.1 467.9 343.5 483.7ZM90.0995 497.2C90.7995 515.4 91.0995 518.2 93.3995 524.3C95.4995 529.6 95.9995 532.9 95.9995 539.5C95.9995 550.3 94.6995 550.5 88.5995 540.8C77.5995 523.1 76.4995 516.8 81.6995 503.5C84.4995 496.2 85.9995 490.5 87.5995 479.6C87.8995 477.5 88.3995 476.1 88.6995 476.4C88.9995 476.7 89.5995 486.1 90.0995 497.2Z" fill="#3A3A3A"/>
</svg>
