<svg width="430" height="600" viewBox="0 0 430 600" fill="none" xmlns="http://www.w3.org/2000/svg">
<g clip-path="url(#clip0_653_948)">
<path d="M222.357 21.6261C221.941 22.2499 219.862 22.7697 217.679 22.7697C215.184 22.7697 212.065 23.8093 208.946 25.8885C206.244 27.5519 203.541 29.0073 202.917 29.0073C200.11 29.0073 191.481 33.9974 186.387 38.5716C177.862 46.1607 171.833 52.1904 171.833 53.1261C171.833 53.5419 170.377 55.933 168.714 58.428C165.907 62.2746 165.387 64.3538 164.452 73.1904C163.828 78.9082 163.516 87.9527 163.828 93.1507C164.452 103.027 164.14 103.859 160.397 101.571C158.942 100.636 158.006 100.636 157.278 101.364C155.927 102.715 154.679 114.774 154.783 125.898C154.783 133.487 155.095 134.319 158.838 139.829C162.684 145.443 167.674 148.873 170.273 147.834C171.001 147.626 171.937 148.042 172.56 148.769C174.328 151.057 175.055 168.106 173.912 181.829C171.937 205.532 172.456 203.972 165.803 208.339C162.476 210.418 159.15 211.873 158.11 211.665C157.07 211.353 153.744 211.977 150.833 213.121C147.818 214.16 144.699 215.096 143.867 215.096C143.036 215.096 141.164 216.24 139.709 217.591C138.046 219.15 133.887 221.022 129.001 222.269C124.635 223.517 119.229 225.388 117.046 226.532C114.863 227.571 110.08 229.339 106.338 230.274C102.595 231.21 92.6151 235.264 83.9864 239.215C75.4617 243.269 65.3775 247.532 61.635 248.883C47.4964 253.769 41.5706 258.551 36.0608 269.363C27.3281 286.725 22.9618 309.596 23.1697 337.561C23.3776 354.403 23.2737 355.338 19.6351 369.477C16.2044 382.368 15.6846 386.006 15.1648 401.185C14.437 420.833 16.2044 453.165 18.8034 467.719C19.843 473.541 20.3628 481.442 20.2588 486.952L19.9469 496.308L26.1845 508.264C32.4222 520.323 36.7885 528.016 43.234 538.412C45.1053 541.531 49.1597 548.704 52.0706 554.214C58.7241 566.689 69.328 583.011 77.9567 594.135C85.1299 603.491 85.6497 605.57 82.8428 613.367C81.0755 618.253 80.6597 619.917 79.724 626.05L79.1003 629.897H217.471H355.842L356.05 623.347C356.362 613.783 356.258 613.367 354.179 605.882L352.308 599.021L358.545 590.704C367.174 578.853 380.585 557.957 384.951 549.328C388.59 542.155 391.085 537.788 404.807 514.501C413.228 500.259 414.892 494.853 413.436 487.576C412.708 483.937 412.708 479.986 413.644 473.749C414.476 468.551 414.996 453.892 414.996 436.531C415.099 400.665 413.436 387.774 406.159 366.878C401.377 353.051 401.273 352.531 400.545 335.69C399.921 322.487 399.298 317.393 397.738 313.338C396.595 310.427 394.1 303.462 392.228 297.744C384.535 274.249 377.674 264.373 364.367 257.408C360.52 255.329 354.907 251.794 351.788 249.507C348.773 247.22 344.822 245.037 342.951 244.621C337.025 243.373 326.006 237.239 325.382 234.744C324.966 233.185 324.238 232.665 323.095 233.185C321.223 233.913 310.827 231.21 307.501 229.235C306.357 228.507 300.743 226.116 295.025 223.933C289.308 221.749 283.798 219.254 282.862 218.423C281.823 217.591 279.328 216.655 277.144 216.447C275.065 216.24 271.842 215.408 270.179 214.68C268.412 213.848 266.125 212.913 265.085 212.601C263.422 212.081 263.214 211.042 263.63 203.972C264.149 194.72 268.828 165.195 270.907 158.022C272.154 153.656 272.57 153.24 276.105 152.616C280.991 151.888 284.733 149.185 288.684 143.675C291.179 140.037 291.699 138.062 292.219 130.784C293.05 118.101 292.738 113.319 290.867 109.369C289.204 105.834 287.852 105.106 286.709 106.977C286.397 107.497 285.357 108.017 284.422 108.017C283.278 108.017 282.966 107.393 283.59 105.626C284.318 103.443 285.773 85.3537 286.709 68.3042C286.917 63.834 286.605 59.9874 286.085 59.6756C285.565 59.2597 285.149 58.0122 285.149 56.8686C285.149 55.6211 282.966 52.5023 279.951 49.5914C277.144 46.7845 274.753 44.3934 274.753 44.0815C274.753 43.8736 273.61 42.5221 272.154 41.0667C270.699 39.6112 269.555 37.532 269.555 36.2845C269.555 35.037 268.828 34.2053 267.788 34.2053C266.852 34.2053 264.669 33.0618 262.798 31.7103C258.535 28.4875 248.555 23.6014 249.387 25.1608C249.699 25.8885 249.283 25.6806 248.555 24.7449C246.684 22.4578 223.501 19.7549 222.357 21.6261ZM342.223 441.729C342.847 444.64 343.367 448.279 343.367 449.838C343.367 455.036 347.629 468.135 351.684 475.724C355.01 481.754 355.738 483.833 355.114 486.64C354.491 490.071 342.223 509.615 339.936 511.071C339.209 511.59 338.065 513.046 337.337 514.501C336.298 516.684 336.194 515.645 336.817 508.264C337.961 495.684 337.545 483.625 335.674 475.932C332.659 463.145 332.659 463.145 336.194 449.526C337.961 442.353 339.832 436.531 340.352 436.531C340.768 436.531 341.6 438.922 342.223 441.729ZM89.9121 462.521C90.4319 482.066 90.5359 483.001 93.4468 489.551C95.9418 495.269 96.3576 497.556 96.2537 504.521C96.1497 508.991 95.8378 512.942 95.526 513.15C94.3824 514.293 91.7834 510.967 85.9616 501.194C78.1646 487.887 76.7092 480.714 80.2438 472.709C84.5062 463.041 86.6893 454.932 87.3131 447.031C88.3527 434.452 89.3923 441.001 89.9121 462.521Z" fill="#3A3A3A"/>
</g>
<defs>
<clipPath id="clip0_653_948">
<rect width="430" height="600" fill="white"/>
</clipPath>
</defs>
</svg>
