<svg width="600" height="600" viewBox="0 0 600 600" fill="none" xmlns="http://www.w3.org/2000/svg">
<g clip-path="url(#clip0_655_950)">
<path d="M302.715 53.2523C301.883 54.4998 297.725 55.5394 293.358 55.5394C288.368 55.5394 282.131 57.6186 275.893 61.777C270.487 65.1037 265.081 68.0146 263.834 68.0146C258.22 68.0146 240.962 77.9948 230.774 87.1433C213.725 102.321 201.665 114.381 201.665 116.252C201.665 117.084 198.755 121.866 195.428 126.856C189.814 134.549 188.774 138.708 186.903 156.381C185.656 167.816 185.032 185.905 185.656 196.301C186.903 216.054 186.279 217.717 178.794 213.143C175.883 211.272 174.012 211.272 172.557 212.727C169.854 215.43 167.359 239.549 167.566 261.796C167.566 276.975 168.19 278.638 175.675 289.658C183.368 300.885 193.349 307.747 198.547 305.668C200.002 305.252 201.873 306.083 203.121 307.539C206.655 312.113 208.111 346.212 205.824 373.657C201.873 421.063 202.913 417.944 189.606 426.677C182.953 430.836 176.299 433.746 174.22 433.331C172.141 432.707 165.487 433.954 159.665 436.241C153.636 438.321 147.398 440.192 145.735 440.192C144.072 440.192 140.329 442.479 137.418 445.182C134.091 448.301 125.774 452.043 116.002 454.538C107.27 457.033 96.4578 460.776 92.0914 463.063C87.7251 465.142 78.1608 468.677 70.6756 470.548C63.1905 472.42 43.2301 480.528 25.9728 488.429C8.9233 496.538 -11.245 505.063 -18.7301 507.766C-47.0073 517.538 -58.8587 527.103 -69.8785 548.726C-87.3438 583.449 -96.0764 629.192 -95.6606 685.122C-95.2448 718.805 -95.4527 720.676 -102.73 748.954C-109.591 774.736 -110.631 782.013 -111.67 812.369C-113.126 851.666 -109.591 916.329 -104.393 945.438C-102.314 957.082 -101.274 972.884 -101.482 983.904L-102.106 1002.62L-89.6309 1026.53C-77.1557 1050.65 -68.423 1066.03 -55.532 1086.82C-51.7894 1093.06 -43.6805 1107.41 -37.8588 1118.43C-24.5519 1143.38 -3.34399 1176.02 13.9134 1198.27C28.2599 1216.98 29.2995 1221.14 23.6857 1236.73C20.151 1246.51 19.3193 1249.83 17.448 1262.1L16.2005 1269.79H292.942H569.684L570.1 1256.69C570.724 1237.57 570.516 1236.73 566.358 1221.76L562.615 1208.04L575.09 1191.41C592.348 1167.71 619.169 1125.91 627.902 1108.66C635.179 1094.31 640.169 1085.58 667.615 1039C684.456 1010.52 687.783 999.705 684.872 985.151C683.417 977.874 683.417 969.973 685.288 957.498C686.951 947.102 687.991 917.785 687.991 883.062C688.199 811.33 684.872 785.548 670.318 743.756C660.753 716.102 660.546 715.063 659.09 681.38C657.843 654.974 656.595 644.786 653.476 636.677C651.189 630.855 646.199 616.924 642.456 605.489C627.07 558.499 613.348 538.746 586.734 524.815C579.041 520.657 567.813 513.588 561.576 509.014C555.546 504.439 547.645 500.073 543.902 499.241C532.051 496.746 510.011 484.479 508.764 479.489C507.932 476.37 506.477 475.331 504.189 476.37C500.447 477.826 479.655 472.42 473.001 468.469C470.714 467.014 459.487 462.231 448.051 457.865C436.615 453.499 425.596 448.509 423.724 446.845C421.645 445.182 416.655 443.311 412.289 442.895C408.13 442.479 401.685 440.816 398.358 439.36C394.823 437.697 390.249 435.826 388.17 435.202C384.843 434.162 384.427 432.083 385.259 417.944C386.299 399.44 395.655 340.39 399.813 326.044C402.309 317.311 403.14 316.479 410.209 315.232C419.982 313.776 427.467 308.37 435.368 297.351C440.358 290.073 441.398 286.123 442.437 271.569C444.1 246.202 443.477 236.638 439.734 228.737C436.407 221.668 433.704 220.212 431.417 223.955C430.794 224.994 428.714 226.034 426.843 226.034C424.556 226.034 423.932 224.786 425.18 221.252C426.635 216.886 429.546 180.707 431.417 146.609C431.833 137.668 431.209 129.975 430.17 129.351C429.13 128.519 428.299 126.024 428.299 123.737C428.299 121.242 423.932 115.005 417.903 109.183C412.289 103.569 407.507 98.7868 407.507 98.1631C407.507 97.7472 405.219 95.0443 402.309 92.1334C399.398 89.2225 397.111 85.0641 397.111 82.5691C397.111 80.074 395.655 78.4106 393.576 78.4106C391.705 78.4106 387.338 76.1235 383.596 73.4205C375.071 66.975 355.111 57.2027 356.774 60.3215C357.398 61.777 356.566 61.3612 355.111 59.4899C351.368 54.9156 305.002 49.5098 302.715 53.2523ZM542.447 893.458C543.694 899.28 544.734 906.557 544.734 909.676C544.734 920.072 553.259 946.27 561.368 961.448C568.021 973.508 569.476 977.666 568.229 983.28C566.981 990.141 542.447 1029.23 537.873 1032.14C536.417 1033.18 534.13 1036.09 532.675 1039C530.595 1043.37 530.387 1041.29 531.635 1026.53C533.922 1001.37 533.09 977.25 529.348 961.864C523.318 936.29 523.318 936.29 530.387 909.052C533.922 894.706 537.665 883.062 538.704 883.062C539.536 883.062 541.199 887.844 542.447 893.458ZM37.8242 935.042C38.8638 974.131 39.0718 976.003 44.8935 989.102C49.8836 1000.54 50.7153 1005.11 50.5074 1019.04C50.2994 1027.98 49.6757 1035.88 49.0519 1036.3C46.7648 1038.59 41.5668 1031.93 29.9232 1012.39C14.3292 985.775 11.4184 971.428 18.4876 955.418C27.0124 936.082 31.3787 919.864 32.6262 904.062C34.7054 878.904 36.7846 892.003 37.8242 935.042Z" fill="#3A3A3A"/>
</g>
<defs>
<clipPath id="clip0_655_950">
<rect width="600" height="600" fill="white"/>
</clipPath>
</defs>
</svg>
