<svg width="750" height="750" viewBox="0 0 750 750" fill="none" xmlns="http://www.w3.org/2000/svg">
<g opacity="0.2" clip-path="url(#clip0_656_955)">
<path d="M352.5 33C343.1 35.5 331.6 39.6 325.5 42.7C312.1 49.5 291.8 66.8 281 80.5C273.1 90.4 265 111.8 263 127.7C262.5 131.6 261.6 137.7 261 141.2C260.5 144.7 260 156.2 260 166.7V185.9L256.9 187.5C254.7 188.7 252.9 191.1 250.7 195.8C247.7 202.1 247.5 203.2 247.5 213.5C247.5 224.9 247.6 225.3 255.7 253C258.5 262.8 261.5 266.5 267.5 268.1C272.7 269.5 273.7 270.4 273.8 273.9C273.8 275.6 274.4 277.8 274.9 278.9C275.5 280 276.1 283.3 276.1 286.2C276.1 291.5 279.6 308.1 280.9 309C281.3 309.3 282.5 310.8 283.6 312.5C287.2 317.7 288.9 330.5 289.6 357.5L290.3 382.6L284.9 387.3C280.7 390.9 278.8 392 276.1 392C271.8 392 264.1 396.8 260 402C257.1 405.7 246.5 412 243.3 412C242.5 412 239.3 413.7 236.2 415.9C233.1 418 226.9 421.8 222.5 424.3C218.1 426.8 212 430.4 209 432.3C206 434.2 202.4 436.1 201.1 436.5C199.8 436.9 195.7 439.4 192 442.1C187.4 445.5 183.1 447.7 177.9 449.1C155.3 455.6 139.5 462.7 137.5 467.3C136.1 470.3 128.8 474.1 113.6 479.7C89.8002 488.4 72.2002 502.8 63.5002 520.6C57.9002 532.2 45.1002 570.3 40.0002 591C34.7002 612.2 34.8002 638.5 40.1002 668.4C42.3002 680.8 42.5002 687.7 41.0002 699.9C39.8002 709.3 34.3002 741.6 33.0002 746.7L32.2002 750H377.6H723V729.6C723 711.9 721 682.3 719.4 678.1C718.5 675.4 719 644.5 720 641C722 634.4 722.4 605.5 720.6 594.5C717.5 574.6 708.8 548.8 697.1 524.9C690.1 510.5 685.7 503.6 678 495.1C667.1 482.9 658.9 477.8 639.9 471C632.2 468.3 626.2 465.3 620.3 461.3C610.9 454.9 604.8 451.5 595 447.4C588.4 444.6 583 441.6 568 432.4C563.3 429.6 553.9 424.3 547 420.7C540.1 417.1 531.4 412.4 527.5 410.1C523.7 407.8 519.3 406 517.7 406C511.5 406 502.1 399.5 495 390.4C494.5 389.8 492.4 388.9 490.4 388.5C487.2 387.9 486.3 388.2 484.9 389.9C483.2 392 483.2 392 477.3 388C474.1 385.9 469.2 382 466.3 379.5L461.1 374.9L461.6 343.2C462.1 310.1 462 311.2 467.1 294.3C467.6 292.6 468.5 288.7 469.1 285.8C472.5 266.8 472.1 267.8 476.9 266.4C479.2 265.7 482 264.4 483 263.5C485.5 261.3 488.7 251.9 490.5 241.9C491.3 237.3 493.1 230.3 494.5 226.5C496.7 220.3 497 217.9 497 205.4C497 189.3 496.3 187.6 489 184.4L485 182.6V174.6C485 165.2 482.6 137.3 481 127.9C478 109.8 472.7 91.9 468.3 84.7C463.4 76.7 445.2 58.6 435.7 52.2C427.7 46.8 407.5 36.6 402.5 35.5C385.2 31.8 380.4 31.1 370.5 31.1C363 31.1 357.3 31.7 352.5 33Z" fill="#3A3A3A"/>
</g>
<defs>
<clipPath id="clip0_656_955">
<rect width="750" height="750" fill="white"/>
</clipPath>
</defs>
</svg>
