<svg width="2800" height="1500" viewBox="0 0 2800 1500" fill="none" xmlns="http://www.w3.org/2000/svg">
<rect width="1500" height="2800" transform="translate(0 1500) rotate(-90)" fill="white"/>
<path d="M0 1500L0 1495L2800 1495V1500L0 1500Z" fill="#202A25"/>
<path d="M0 1495L0 5H5L5 1495H0Z" fill="#202A25"/>
<path d="M1397.5 1495V5H1402.5V1495H1397.5Z" fill="#202A25"/>
<path d="M2795 1495V5H2800V1495H2795Z" fill="#202A25"/>
<path d="M0 5L0 0L2800 0V5L0 5Z" fill="#202A25"/>
<path d="M1400 570C1499.41 570 1580 650.589 1580 750C1580 849.411 1499.41 930 1400 930C1300.59 930 1220 849.411 1220 750C1220 650.589 1300.59 570 1400 570ZM1400 924.6C1496.43 924.6 1574.6 846.429 1574.6 750C1574.6 653.571 1496.43 575.4 1400 575.4C1303.57 575.4 1225.4 653.571 1225.4 750C1225.4 846.429 1303.57 924.6 1400 924.6Z" fill="#202A25"/>
<path d="M2220 570C2319.41 570 2400 650.589 2400 750C2400 849.411 2319.41 930 2220 930C2120.59 930 2040 849.411 2040 750C2040 650.589 2120.59 570 2220 570ZM2220 924.6C2316.43 924.6 2394.6 846.429 2394.6 750C2394.6 653.571 2316.43 575.4 2220 575.4C2123.57 575.4 2045.4 653.571 2045.4 750C2045.4 846.429 2123.57 924.6 2220 924.6Z" fill="#202A25"/>
<path d="M2220 995V990L2800 990V995L2220 995Z" fill="#202A25"/>
<path d="M2220 990V510H2225V990H2220Z" fill="#202A25"/>
<path d="M2220 510V505L2800 505V510L2220 510Z" fill="#202A25"/>
<path d="M2625 495V505H2620V495H2625Z" fill="#202A25"/>
<path d="M2535 495V505H2495V495H2535Z" fill="#202A25"/>
<path d="M2410 495V505H2405V495H2410Z" fill="#202A25"/>
<path d="M2320 495V505H2315V495H2320Z" fill="#202A25"/>
<path d="M2625 995V1005H2620V995H2625Z" fill="#202A25"/>
<path d="M2535 995V1005H2495V995H2535Z" fill="#202A25"/>
<path d="M2410 995V1005H2405V995H2410Z" fill="#202A25"/>
<path d="M2320 995V1005H2315V995H2320Z" fill="#202A25"/>
<path d="M2614.5 89C2527.76 89 2441.87 106.084 2361.74 139.278C2281.6 172.471 2208.79 221.123 2147.46 282.456C2086.12 343.789 2037.47 416.602 2004.28 496.738C1971.08 576.873 1954 662.762 1954 749.5C1954 836.238 1971.08 922.127 2004.28 1002.26C2037.47 1082.4 2086.12 1155.21 2147.46 1216.54C2208.79 1277.88 2281.6 1326.53 2361.74 1359.72C2441.87 1392.92 2527.76 1410 2614.5 1410V1404.91C2528.43 1404.91 2443.2 1387.96 2363.68 1355.02C2284.17 1322.09 2211.91 1273.81 2151.05 1212.95C2090.19 1152.09 2041.91 1079.83 2008.98 1000.32C1976.04 920.798 1959.09 835.57 1959.09 749.5C1959.09 663.43 1976.04 578.202 2008.98 498.684C2041.91 419.165 2090.19 346.913 2151.05 286.052C2211.91 225.191 2284.17 176.914 2363.68 143.976C2443.2 111.039 2528.43 94.0859 2614.5 94.0859V89Z" fill="#202A25"/>
<path d="M2614.5 1410V1405H2799.5V1410H2614.5Z" fill="#202A25"/>
<path d="M2614.5 94V89H2799.5V94H2614.5Z" fill="#202A25"/>
<path d="M578 570C677.411 570 758 650.589 758 750C758 849.411 677.411 930 578 930C478.589 930 398 849.411 398 750C398 650.589 478.589 570 578 570ZM578 924.6C674.429 924.6 752.6 846.429 752.6 750C752.6 653.571 674.429 575.4 578 575.4C481.571 575.4 403.4 653.571 403.4 750C403.4 846.429 481.571 924.6 578 924.6Z" fill="#202A25"/>
<path d="M484 496V506H479V496H484Z" fill="#202A25"/>
<path d="M394 496V506H389V496H394Z" fill="#202A25"/>
<path d="M304 496V506H264V496H304Z" fill="#202A25"/>
<path d="M179 496V506H174V496H179Z" fill="#202A25"/>
<path d="M0 996L0 991H580V996H0Z" fill="#202A25"/>
<path d="M575 991L575 511H580L580 991H575Z" fill="#202A25"/>
<path d="M0 511L0 506H580V511H0Z" fill="#202A25"/>
<path d="M484 995V1005H479V995H484Z" fill="#202A25"/>
<path d="M394 995V1005H389V995H394Z" fill="#202A25"/>
<path d="M304 995V1005H264V995H304Z" fill="#202A25"/>
<path d="M179 995V1005H174V995H179Z" fill="#202A25"/>
<path d="M185.5 1410C272.238 1410 358.127 1392.92 438.262 1359.72C518.398 1326.53 591.211 1277.88 652.544 1216.54C713.877 1155.21 762.529 1082.4 795.722 1002.26C828.916 922.127 846 836.238 846 749.5C846 662.762 828.916 576.873 795.722 496.738C762.529 416.602 713.877 343.789 652.544 282.456C591.211 221.123 518.398 172.471 438.262 139.278C358.127 106.084 272.238 89 185.5 89V94.0859C271.57 94.0859 356.798 111.039 436.316 143.976C515.835 176.914 588.087 225.191 648.948 286.052C709.809 346.913 758.086 419.165 791.024 498.684C823.961 578.202 840.914 663.43 840.914 749.5C840.914 835.57 823.961 920.798 791.024 1000.32C758.086 1079.83 709.809 1152.09 648.948 1212.95C588.087 1273.81 515.835 1322.09 436.316 1355.02C356.798 1387.96 271.57 1404.91 185.5 1404.91V1410Z" fill="#202A25"/>
<path d="M185.5 89V94H0.499939L0.499939 89H185.5Z" fill="#202A25"/>
<path d="M185.5 1405L185.5 1410H0.499939L0.499939 1405H185.5Z" fill="#202A25"/>
</svg>
